<?xml version="1.0" standalone="no"?>
<!DOCTYPE svg PUBLIC "-//W3C//DTD SVG 20010904//EN"
 "http://www.w3.org/TR/2001/REC-SVG-20010904/DTD/svg10.dtd">
<svg version="1.0" xmlns="http://www.w3.org/2000/svg"
 width="1080.000000pt" height="714.000000pt" viewBox="0 0 1080.000000 714.000000"
 preserveAspectRatio="xMidYMid meet">

<g transform="translate(0.000000,714.000000) scale(0.100000,-0.100000)"
fill="#000000" stroke="none">
<path d="M0 6551 l0 -589 48 -12 c52 -14 76 -17 175 -24 53 -3 74 -9 92 -26
27 -26 51 -108 61 -210 9 -104 12 -135 14 -135 3 0 9 -93 10 -159 2 -76 20
-124 64 -166 22 -20 36 -24 77 -22 28 1 56 5 63 9 6 4 22 9 36 10 14 2 44 8
67 14 28 8 69 9 115 4 40 -5 199 -9 353 -10 259 -1 282 -2 310 -20 17 -11 35
-24 40 -30 21 -20 72 -101 80 -125 4 -14 15 -36 25 -50 51 -76 51 -155 -1
-208 -37 -37 -89 -51 -249 -66 -19 -2 -51 -6 -70 -9 -19 -4 -69 -9 -110 -12
-41 -4 -93 -8 -115 -10 -22 -2 -105 -9 -185 -15 -80 -6 -163 -13 -185 -16 -22
-3 -47 -5 -55 -6 -8 0 -35 -4 -60 -8 -25 -5 -81 -11 -125 -15 -44 -4 -82 -9
-85 -10 -3 -2 -48 -6 -100 -9 -98 -7 -150 -12 -235 -24 l-50 -7 -3 -393 c-2
-302 1 -392 10 -392 9 0 9 -3 0 -12 -15 -15 -17 -433 -2 -423 5 3 10 2 10 -2
0 -5 7 -18 16 -29 8 -10 12 -12 8 -4 -4 9 2 7 13 -5 22 -21 21 -35 -2 -35 -8
0 -17 -5 -21 -12 -5 -7 -3 -8 6 -3 10 6 12 4 7 -8 -3 -10 -2 -17 3 -17 5 0 11
8 14 18 3 10 4 7 3 -8 -1 -14 -11 -29 -24 -35 -21 -11 -21 -11 -2 -23 21 -13
43 -7 33 9 -3 5 -10 6 -16 3 -7 -4 -8 -2 -4 4 7 12 36 5 36 -8 0 -5 -5 -12
-10 -15 -6 -4 -8 -11 -4 -16 3 -5 9 -7 14 -4 4 3 10 -4 13 -15 3 -13 1 -18 -6
-13 -6 4 -23 8 -37 9 -21 3 -22 1 -7 -7 9 -6 22 -7 27 -4 10 6 14 -7 11 -32
-1 -6 3 -14 8 -18 6 -3 8 -12 4 -20 -3 -9 0 -21 6 -28 13 -16 39 -89 47 -131
9 -50 7 -152 -5 -173 -7 -14 -7 -23 0 -30 13 -13 2 -56 -12 -48 -5 4 -9 2 -9
-4 0 -5 6 -11 12 -14 9 -3 6 -12 -10 -27 -13 -12 -21 -25 -17 -28 3 -4 11 0
16 8 8 11 9 10 4 -7 -7 -24 4 -30 22 -12 7 7 12 5 17 -8 4 -9 4 -14 0 -10 -10
9 -35 -13 -28 -25 3 -5 13 -4 22 4 13 11 15 10 9 -5 -4 -10 0 -28 8 -41 9 -13
18 -34 20 -46 2 -12 8 -27 13 -34 10 -12 9 -41 -2 -68 -4 -9 -4 -22 0 -29 4
-7 3 -9 -3 -6 -6 4 -13 1 -16 -7 -9 -23 -94 -76 -147 -92 l-50 -15 2 -577 3
-577 50 -1 c28 -1 63 -6 78 -12 33 -14 59 -15 73 -4 12 12 211 -3 228 -17 7
-6 28 -10 47 -9 19 0 45 -4 57 -11 12 -6 54 -14 94 -17 47 -3 77 -10 84 -20 6
-8 19 -14 28 -14 9 0 33 -7 54 -16 20 -9 50 -18 67 -20 16 -2 56 -11 90 -19
59 -15 100 -15 122 -2 6 4 20 -4 31 -18 11 -14 27 -25 36 -25 9 0 16 -4 16 -9
0 -4 31 -11 69 -15 41 -4 74 -13 81 -22 15 -17 46 -18 89 -3 21 8 35 8 44 1
16 -14 67 -3 67 14 0 7 8 11 19 9 14 -3 21 4 26 28 7 33 9 31 19 -15 9 -38 26
-35 26 3 0 24 4 30 15 25 10 -3 15 1 15 13 0 22 39 36 90 32 28 -2 32 -1 23
10 -9 11 -6 14 15 16 15 0 30 -3 33 -8 3 -5 16 0 29 11 13 11 33 20 44 20 12
0 32 7 44 16 23 16 30 44 10 44 -6 0 -8 3 -5 6 4 4 13 1 22 -6 10 -9 32 -11
65 -7 60 7 78 16 59 28 -12 8 -11 11 1 19 8 5 20 10 25 10 6 0 4 -4 -4 -9 -14
-9 -7 -31 10 -31 6 0 7 6 2 13 -4 6 5 4 20 -6 26 -17 27 -17 27 2 0 10 7 22
16 25 8 3 13 2 9 -3 -8 -14 6 -42 17 -35 5 3 7 13 4 23 -3 9 7 1 22 -16 16
-18 34 -33 40 -33 7 0 12 -4 12 -10 0 -5 9 -10 19 -10 11 0 22 -6 25 -12 5
-11 7 -11 12 0 9 19 19 15 66 -28 23 -23 53 -43 66 -47 24 -6 29 -19 10 -26
-19 -7 14 -38 53 -51 22 -7 39 -24 52 -48 10 -21 22 -38 27 -38 4 0 10 -14 14
-32 8 -41 65 -94 82 -76 7 7 49 67 95 133 45 66 85 122 88 125 14 12 55 98 77
164 14 39 38 87 54 108 17 20 30 44 30 53 0 8 6 18 13 21 8 3 14 21 15 40 1
19 5 40 9 47 4 7 9 23 10 37 15 136 29 180 58 180 9 0 12 12 9 40 -2 22 1 40
6 40 5 0 10 15 12 33 2 19 8 31 15 30 7 -2 12 0 11 5 -2 8 21 58 57 121 13 24
23 47 20 51 -3 4 2 13 10 20 8 7 15 19 15 27 0 27 34 60 57 57 13 -2 33 6 48
20 23 22 24 24 6 19 -12 -3 -21 -9 -21 -14 0 -5 -4 -9 -10 -9 -17 0 -11 26 11
46 16 14 22 15 28 5 5 -7 12 -12 17 -11 21 4 12 -20 -18 -51 -18 -18 -28 -30
-22 -26 6 3 20 0 30 -8 17 -13 17 -14 2 -15 -9 0 -19 -4 -22 -9 -4 -5 2 -7 13
-4 10 3 22 0 25 -6 4 -5 13 -8 21 -4 8 3 15 0 15 -6 0 -6 8 -11 17 -11 9 0 14
-2 11 -5 -3 -3 -24 -2 -47 4 -39 8 -41 8 -41 -15 0 -28 -24 -32 -39 -6 -6 9
-11 12 -11 7 0 -6 6 -17 12 -24 11 -10 9 -15 -7 -27 -19 -15 -19 -15 7 -10 15
2 27 2 27 -2 -5 -30 3 -82 12 -82 5 0 7 5 4 10 -3 6 -1 10 5 10 6 0 13 -8 16
-17 13 -39 28 -63 41 -63 7 0 13 -7 13 -15 0 -8 12 -18 28 -21 15 -4 47 -18
71 -31 24 -12 57 -23 73 -23 16 0 42 -10 58 -21 15 -12 39 -23 53 -24 26 -3
67 -26 67 -37 0 -5 7 -8 15 -8 8 0 29 -18 46 -40 18 -22 40 -40 50 -40 9 0 19
-4 21 -9 2 -5 9 -11 17 -13 8 -2 25 -12 38 -22 13 -11 31 -21 40 -22 10 -2 19
-7 21 -13 2 -5 10 -7 17 -4 9 3 19 -5 26 -21 7 -14 20 -26 29 -26 26 0 32 -12
14 -31 -10 -11 -12 -19 -5 -24 6 -3 11 -15 11 -26 0 -16 5 -18 26 -13 28 7 64
-22 64 -52 0 -9 9 -32 21 -50 19 -32 20 -34 2 -34 -14 -1 -11 -4 10 -16 37
-20 34 -41 -5 -35 -15 2 -8 -20 7 -25 8 -4 15 -12 15 -20 0 -10 -8 -12 -30 -7
-16 3 -30 2 -30 -1 0 -11 23 -31 43 -39 21 -8 23 -27 1 -27 -8 0 -12 -4 -9
-10 3 -5 15 -10 26 -10 24 0 26 -30 2 -31 -23 -2 -24 -2 -57 7 -28 7 -29 7
-10 -12 14 -14 28 -18 54 -15 19 2 55 4 78 4 40 -1 43 1 38 21 -3 11 -6 24 -6
29 0 4 -9 7 -19 7 -11 0 -23 5 -26 10 -4 6 -10 8 -15 5 -5 -3 -11 -1 -14 4 -9
15 14 25 27 12 6 -6 18 -11 27 -11 10 0 27 -9 40 -20 13 -11 32 -20 42 -20 11
0 28 -4 38 -10 10 -5 32 -11 49 -12 24 -2 31 -7 31 -23 0 -11 4 -15 8 -10 8
12 27 13 38 3 4 -5 19 -8 33 -8 l26 -1 -30 -17 -30 -17 36 -3 c32 -3 36 -6 31
-27 -3 -19 1 -25 22 -31 29 -7 34 -19 11 -28 -19 -7 -19 -36 0 -36 21 0 19
-20 -2 -21 -15 0 -14 -3 5 -16 21 -15 33 -41 12 -28 -5 3 -10 1 -10 -5 0 -6 7
-13 15 -16 15 -6 21 -25 8 -23 -21 3 -26 -2 -13 -12 12 -8 12 -12 2 -16 -10
-4 -10 -8 -2 -18 9 -11 6 -17 -13 -30 -16 -10 -27 -29 -31 -55 -3 -22 -11 -40
-16 -40 -6 0 -10 -8 -11 -17 -1 -12 -4 -9 -8 7 -4 14 -13 25 -21 25 -8 0 -18
6 -21 14 -4 11 -9 10 -24 -5 -17 -17 -17 -19 -2 -22 22 -5 22 -19 0 -18 -10 1
-19 -3 -20 -9 -2 -5 3 -10 9 -10 7 0 14 -7 16 -16 2 -12 -5 -16 -28 -17 -22 0
-30 3 -27 12 5 12 0 14 -40 17 -10 1 -24 6 -30 11 -15 12 -43 3 -43 -13 0 -7
9 -9 21 -6 12 3 18 3 15 0 -3 -4 7 -14 23 -24 22 -13 28 -23 24 -38 -5 -20 12
-31 19 -12 2 5 19 11 38 13 31 3 35 0 36 -20 1 -13 -4 -29 -11 -36 -9 -8 -10
-18 -3 -29 6 -11 5 -17 -2 -17 -6 0 -24 -14 -40 -32 -28 -30 -29 -31 -54 -15
-31 21 -31 21 -51 1 -12 -13 -19 -14 -30 -4 -12 10 -18 10 -30 0 -13 -11 -18
-10 -29 5 -12 17 -14 17 -42 -1 -34 -22 -45 -35 -38 -46 3 -4 0 -8 -6 -8 -6 0
-8 -5 -5 -10 4 -7 632 -10 1851 -10 1798 0 1844 0 1835 19 -6 10 -8 21 -5 24
3 3 -4 10 -15 17 -12 6 -21 16 -20 23 1 7 1 25 0 40 -1 26 -4 27 -38 25 l-38
-3 3 47 c2 29 -1 49 -7 49 -6 1 -15 3 -21 4 -5 1 -19 3 -31 4 -11 0 -18 5 -15
10 3 5 -8 14 -24 20 -19 6 -30 17 -30 28 0 11 -6 25 -12 32 -8 9 -8 11 -2 8
17 -10 26 23 12 41 -11 13 -11 14 1 7 9 -5 12 -4 7 3 -3 6 -19 13 -36 17 -28
6 -29 8 -24 57 4 44 2 50 -16 55 -16 4 -18 8 -9 14 9 5 1 19 -30 50 -51 51
-81 107 -81 149 0 16 -4 30 -9 30 -13 0 -32 -26 -24 -33 11 -11 -6 -8 -30 6
-42 23 -51 61 -17 70 13 3 20 13 19 29 -1 12 1 40 4 60 6 36 5 37 -34 43 -42
7 -51 20 -20 28 27 7 33 55 9 79 -11 11 -20 33 -20 50 -1 22 -7 32 -25 39 -25
9 -30 28 -12 46 8 8 5 13 -10 18 -22 7 -51 56 -51 87 0 10 -4 18 -10 18 -11 0
-14 33 -3 44 4 3 8 14 9 22 1 9 0 13 -3 10 -12 -12 -43 16 -43 38 0 15 -7 26
-20 29 -14 4 -20 14 -20 35 0 31 -13 46 -40 47 -19 0 -29 40 -22 88 4 30 0 42
-17 58 -22 21 -28 68 -10 86 9 9 12 17 18 53 1 3 6 -2 11 -10 8 -12 10 -11 10
8 0 20 5 22 38 21 20 -1 40 -4 44 -6 4 -2 -1 -23 -12 -48 -34 -78 -10 -205 49
-264 37 -37 100 -61 162 -61 13 0 18 -4 13 -12 -5 -7 -3 -8 6 -3 7 4 16 2 21
-6 4 -8 14 -14 21 -14 15 0 18 -23 6 -47 -5 -11 -5 -18 1 -18 5 0 7 -18 4 -40
-5 -35 -3 -40 15 -40 21 0 25 -8 37 -70 24 -123 78 -206 150 -231 22 -8 49
-22 59 -31 11 -10 23 -18 27 -18 14 0 21 -48 24 -160 3 -132 13 -163 74 -231
75 -85 116 -104 391 -178 95 -26 263 -43 407 -42 62 0 124 -4 137 -9 15 -5 35
-31 55 -72 48 -95 99 -180 129 -210 l26 -28 223 0 c184 0 223 2 223 14 0 8 -6
16 -14 19 -9 4 -12 14 -9 26 l5 21 30 -22 c29 -20 30 -20 20 -1 -6 11 -9 23
-6 26 3 3 -13 22 -35 43 -22 22 -41 46 -43 54 -2 8 -6 17 -10 20 -3 3 -8 14
-10 25 -3 18 3 20 42 20 34 0 45 4 48 18 2 9 8 17 13 17 6 0 7 5 4 10 -8 13
44 2 63 -13 8 -6 12 -6 12 3 0 7 6 10 13 7 16 -6 17 34 2 46 -12 10 39 1 77
-14 27 -11 46 -39 27 -39 -6 0 -7 -5 -4 -10 11 -18 27 1 21 24 -4 16 -1 23 9
23 8 0 12 -4 9 -8 -2 -4 0 -11 6 -14 8 -5 7 -11 -1 -21 -8 -10 -8 -14 0 -14 6
0 11 -7 11 -15 0 -11 7 -14 25 -9 19 5 31 1 45 -16 l20 -23 0 21 c0 12 5 22
10 22 6 0 10 -5 10 -10 0 -6 7 -10 16 -8 11 2 18 -5 20 -20 4 -21 3 -22 -12
-8 -17 17 -39 22 -29 7 3 -5 9 -31 14 -56 8 -42 7 -47 -13 -55 -17 -7 -18 -9
-3 -9 9 -1 23 -13 30 -28 21 -49 31 -53 116 -53 60 0 80 3 79 12 -2 7 -7 16
-13 20 -7 5 -7 8 0 9 6 0 20 2 33 3 12 2 22 -1 22 -5 0 -4 9 -11 20 -14 11 -4
18 -11 15 -16 -4 -5 114 -9 299 -9 l306 0 0 416 c0 412 0 417 -21 435 -16 14
-26 16 -40 8 -16 -8 -19 -6 -19 10 0 11 -4 22 -9 26 -6 3 -8 -4 -6 -15 2 -11
0 -18 -5 -15 -4 3 -16 -2 -24 -11 -9 -9 -23 -13 -31 -10 -10 3 -12 0 -8 -12 3
-9 -4 -4 -16 11 -13 15 -20 34 -17 42 8 23 -9 26 -27 4 -19 -21 -22 -33 -7
-24 6 3 10 1 10 -4 0 -14 -17 -14 -25 -1 -3 5 -16 9 -28 8 -51 -4 -157 73
-126 92 14 9 -4 25 -51 47 -32 15 -61 20 -105 18 -33 -1 -66 2 -72 8 -8 5 -13
5 -13 0 0 -5 -16 -7 -35 -5 -21 3 -42 -1 -52 -9 -14 -12 -16 -12 -8 1 6 12 5
13 -6 2 -24 -22 -32 -13 -25 28 6 40 0 47 -36 41 -11 -1 -26 60 -22 92 3 24 0
27 -25 27 -21 0 -30 -6 -34 -22 -6 -22 -7 -21 -37 12 -26 29 -70 49 -70 31 0
-3 -14 -7 -31 -7 -17 -1 -35 -7 -39 -14 -4 -7 -12 -10 -18 -6 -6 3 -13 2 -17
-4 -10 -16 -25 -12 -25 8 0 13 -2 14 -9 3 -6 -9 -11 -10 -15 -3 -4 6 -13 9
-21 6 -9 -4 -17 1 -20 10 -17 53 -15 52 -39 21 -16 -19 -27 -26 -36 -20 -8 5
-27 10 -42 12 -53 6 -98 30 -98 54 0 18 -4 20 -22 14 -99 -30 -144 -18 -113
29 14 21 15 29 5 41 -22 26 -40 18 -40 -18 0 -25 -4 -34 -17 -34 -10 0 -21 5
-25 11 -4 6 -11 11 -15 12 -4 0 -15 4 -24 8 -17 8 -70 5 -79 -4 -14 -15 -69
-33 -97 -32 -86 1 -86 1 -80 22 4 18 0 20 -35 20 -27 0 -45 6 -53 17 -11 15
-15 15 -29 4 -13 -11 -17 -9 -26 14 -12 31 -13 62 -3 68 5 2 2 2 -4 1 -16 -4
-63 42 -63 61 0 8 -5 17 -12 21 -6 4 -8 3 -5 -3 8 -13 -67 -43 -83 -33 -7 4
-13 19 -13 34 -2 25 -10 31 -32 26 -52 -11 -57 -11 -51 5 3 9 6 21 6 25 0 5
25 39 56 75 52 62 65 95 26 67 -9 -7 -24 -15 -32 -18 -41 -16 -66 -30 -73 -42
-11 -17 -27 -5 -27 21 0 28 26 101 46 133 16 23 16 24 -10 24 -31 0 -33 14 -6
58 23 37 18 40 -28 12 -44 -27 -65 -26 -57 1 7 21 6 21 -24 -2 -29 -21 -43
-38 -21 -24 6 3 10 1 10 -4 0 -6 -9 -11 -19 -11 -26 0 -182 -59 -203 -77 -11
-10 -18 -11 -23 -4 -10 17 -35 13 -42 -6 -7 -18 -41 -53 -52 -53 -4 0 -11 -10
-16 -22 -12 -27 -49 -35 -71 -17 -18 15 -53 19 -59 8 -7 -10 -79 8 -83 20 -2
6 -12 11 -23 11 -10 0 -28 9 -39 20 -11 11 -24 20 -28 20 -4 0 -14 9 -22 20
-8 11 -23 20 -33 20 -10 0 -15 5 -12 10 3 6 -3 10 -14 10 -12 0 -21 4 -21 8 0
5 -26 15 -57 22 -92 21 -89 18 -122 121 -6 19 -11 52 -11 73 0 29 -3 37 -14
33 -18 -7 -267 245 -255 258 3 2 37 -3 77 -12 62 -14 80 -14 126 -3 54 13 55
13 95 -19 22 -18 49 -43 59 -56 17 -21 25 -23 100 -21 l81 2 73 54 73 55 80
-3 c55 -2 106 3 162 17 50 12 93 17 109 12 27 -7 27 -7 -12 -23 -22 -9 -86
-37 -144 -62 -58 -24 -123 -52 -145 -61 l-40 -17 50 -21 c57 -24 211 -31 236
-11 8 7 57 26 109 45 52 18 131 51 175 74 99 50 168 80 222 94 39 11 42 15 59
69 10 31 38 86 62 122 24 36 46 69 49 73 10 16 -72 -31 -90 -51 -18 -20 -23
-20 -128 -8 -20 2 -52 8 -70 14 -19 6 -63 9 -99 7 -108 -5 -109 -4 -112 122
l-3 108 -19 -35 c-24 -46 -23 -45 -41 -30 -9 7 -16 11 -18 9 -1 -2 -11 -21
-21 -42 -25 -49 -46 -71 -70 -75 -10 -2 -36 -14 -57 -28 -21 -13 -43 -24 -49
-24 -5 0 -10 -4 -10 -10 0 -9 -61 -6 -123 6 -16 3 -47 24 -68 46 -22 23 -41
39 -44 37 -5 -5 -13 -56 -14 -90 -1 -17 -10 -30 -28 -40 -34 -17 -83 -64 -83
-78 0 -6 -7 -8 -15 -4 -10 3 -15 0 -13 -8 2 -7 -4 -13 -12 -14 -8 0 -19 -10
-25 -23 -14 -33 -43 -36 -111 -13 -51 18 -87 27 -116 30 -4 1 -5 11 -2 23 2
13 6 37 8 53 3 17 8 38 12 49 6 17 5 17 -17 6 -42 -22 -89 -61 -89 -73 0 -9 2
-9 8 0 4 6 20 13 36 15 24 2 29 -1 31 -21 1 -16 -4 -25 -17 -29 -10 -2 -18 -9
-18 -14 0 -14 -50 26 -140 112 -41 39 -87 78 -101 85 -15 8 -29 25 -32 37 -5
17 -485 499 -536 538 -3 3 -56 59 -116 125 -61 66 -118 121 -127 123 -23 4
-23 21 0 29 22 8 52 34 52 45 0 5 -4 6 -10 3 -6 -3 -10 -2 -10 3 0 6 7 13 16
16 22 9 26 8 18 -5 -4 -7 7 -2 23 10 47 35 90 26 131 -29 19 -25 39 -47 46
-49 8 -3 8 -1 0 10 -6 8 -12 37 -13 64 0 28 -5 61 -10 75 -12 31 -66 257 -79
330 -6 30 -16 78 -22 105 -14 59 -14 61 -5 238 9 151 18 177 54 158 12 -7 32
-14 43 -16 12 -3 34 -18 50 -35 15 -17 43 -37 62 -45 20 -8 40 -23 45 -33 13
-24 145 -102 172 -102 29 0 115 -59 128 -88 6 -12 21 -27 33 -32 37 -15 65
-44 89 -91 13 -24 40 -64 61 -88 29 -34 38 -52 38 -81 0 -29 9 -47 40 -82 22
-25 44 -56 50 -69 25 -54 51 -95 69 -109 11 -8 21 -26 23 -40 2 -14 11 -36 21
-50 9 -13 17 -28 17 -33 0 -14 43 -46 62 -47 26 0 33 -21 13 -36 -17 -13 -17
-15 -2 -32 9 -10 17 -24 17 -30 0 -6 13 -31 30 -55 16 -25 30 -48 30 -53 0
-14 93 -159 117 -181 17 -16 23 -33 23 -62 0 -33 5 -44 30 -63 16 -12 30 -31
30 -42 0 -46 13 -50 81 -23 141 56 393 128 469 134 84 6 201 -7 325 -38 138
-34 212 -59 355 -120 63 -26 157 -58 208 -70 63 -14 127 -38 199 -76 59 -30
125 -62 147 -71 61 -24 136 -70 181 -113 22 -20 59 -47 83 -58 111 -56 202
-132 202 -169 0 -7 4 -12 10 -12 5 0 17 -15 26 -33 15 -28 58 -85 104 -138 8
-10 20 -24 25 -31 6 -7 26 -33 45 -58 20 -25 44 -58 54 -74 10 -15 33 -42 52
-58 19 -17 32 -33 29 -38 -2 -4 7 -13 21 -21 14 -7 36 -26 49 -41 47 -55 151
-129 271 -193 68 -36 125 -65 128 -65 4 0 6 1258 6 2795 l0 2795 -2795 0
c-2727 0 -2795 -1 -2786 -19 6 -10 16 -21 23 -24 7 -2 33 -44 58 -93 32 -62
46 -81 48 -67 2 12 -7 44 -19 72 -23 54 -20 81 7 81 9 0 23 8 30 18 8 11 16
14 23 7 20 -20 51 -121 51 -166 0 -25 9 -64 20 -87 25 -52 29 -199 6 -208 -11
-4 -12 -12 -7 -27 20 -51 -25 -205 -52 -178 -5 5 -10 46 -10 90 0 68 3 84 18
95 18 13 18 14 -3 25 -14 8 -22 8 -22 1 0 -5 -4 -10 -10 -10 -5 0 -10 7 -10
15 0 8 -9 24 -20 35 -25 25 -47 78 -45 107 1 13 0 21 -3 18 -7 -7 -32 22 -32
38 0 8 -7 20 -15 27 -8 7 -15 21 -15 30 0 10 -4 20 -8 22 -9 3 -55 76 -59 93
-1 5 -8 31 -14 58 l-12 47 -1635 0 c-1448 0 -1633 -2 -1628 -15 3 -9 0 -15
-10 -15 -8 0 -12 -5 -9 -10 4 -6 11 -8 16 -5 5 4 9 1 9 -6 0 -8 4 -8 15 1 8 7
15 9 15 5 0 -4 6 -2 14 4 10 8 16 8 25 -3 12 -14 55 -10 46 5 -3 4 7 2 22 -6
15 -8 29 -11 31 -6 1 4 14 6 27 3 14 -2 22 -8 19 -13 -3 -5 -10 -7 -15 -4 -5
4 -9 1 -9 -4 0 -6 9 -12 20 -12 32 -2 38 -4 45 -11 4 -4 14 -4 23 0 14 5 15 3
5 -9 -10 -12 -8 -17 8 -28 12 -7 23 -10 26 -7 3 3 12 -2 21 -11 14 -14 16 -14
22 3 6 17 8 17 14 -4 5 -14 12 -19 19 -15 18 12 56 10 61 -2 4 -10 104 -10
115 0 2 2 12 -6 23 -18 15 -16 18 -18 14 -5 -3 10 -1 20 4 23 6 4 10 -2 10
-12 0 -14 2 -15 9 -4 5 7 14 11 19 7 20 -12 61 4 55 22 -4 15 -3 15 6 2 6 -9
6 -19 1 -24 -4 -4 -6 -15 -3 -23 4 -11 8 -10 20 4 8 10 12 13 9 7 -3 -6 2 -23
10 -38 16 -33 17 -39 5 -32 -11 7 -23 -22 -14 -37 4 -6 0 -8 -10 -4 -10 3 -17
4 -17 1 0 -2 10 -9 23 -14 17 -7 18 -9 5 -9 -10 -1 -19 -5 -19 -11 -1 -5 -2
-14 -3 -19 0 -5 -5 -13 -10 -18 -5 -4 -6 -3 -3 3 4 7 -4 13 -21 16 -28 4 -28
3 -18 -23 5 -15 13 -26 18 -23 4 3 4 12 1 22 -4 9 6 4 21 -13 16 -16 23 -23
17 -14 -9 14 -8 18 9 22 11 3 18 2 16 -2 -2 -3 6 -11 19 -17 20 -10 22 -9 18
10 -4 16 -2 18 5 7 5 -7 16 -11 23 -9 18 6 53 -38 43 -54 -5 -8 -2 -9 9 -5 10
3 17 2 17 -3 0 -6 5 -10 11 -10 5 0 8 3 5 8 -2 4 13 16 35 26 21 10 36 23 33
27 -3 5 0 9 6 9 14 0 67 40 54 40 -14 1 69 42 86 43 8 0 18 5 22 11 4 6 7 2 7
-9 0 -11 2 -36 4 -55 2 -19 -1 -44 -6 -54 -28 -57 0 -140 53 -158 72 -24 144
-73 133 -91 -3 -6 -1 -7 6 -3 6 4 32 9 57 12 44 4 175 59 182 76 2 4 7 8 12 8
5 0 21 5 37 12 15 6 31 11 36 10 4 -1 7 3 7 9 0 5 5 7 10 4 6 -4 22 1 35 9 14
9 25 14 25 11 0 -3 14 2 30 10 17 9 34 13 39 10 5 -2 12 2 15 11 9 24 26 6 24
-26 -1 -18 -10 -33 -24 -41 -21 -11 -33 -46 -39 -111 -1 -9 -13 -27 -28 -38
-31 -24 -35 -43 -9 -38 9 2 16 11 14 19 -1 9 5 16 13 16 9 0 14 -6 11 -14 -5
-11 -1 -11 17 -1 34 19 56 17 64 -6 11 -34 12 -46 2 -52 -5 -3 -9 1 -10 8 0 7
-4 4 -8 -7 -5 -12 -4 -23 3 -27 15 -10 4 -18 -27 -20 -25 -2 -40 -18 -16 -18
5 0 7 -5 4 -10 -4 -7 2 -9 17 -7 30 5 95 34 102 46 3 5 18 12 33 16 16 3 56
24 90 46 34 21 65 39 68 39 3 0 28 16 55 35 27 19 51 34 52 33 7 -6 47 29 41
35 -3 4 -1 7 5 7 6 0 17 6 24 13 33 33 85 66 92 59 4 -4 14 1 21 12 12 16 14
15 12 -17 -1 -19 -7 -33 -12 -30 -6 2 -11 -5 -12 -16 -1 -17 -23 -50 -48 -72
-5 -5 -23 -21 -40 -36 -16 -15 -30 -30 -30 -35 0 -4 -4 -8 -9 -7 -5 0 -12 -3
-15 -8 -14 -20 -115 -97 -149 -114 -20 -11 -46 -19 -59 -19 -12 0 -27 -8 -32
-17 -6 -10 -11 -13 -11 -8 -1 14 -20 -17 -20 -33 0 -10 16 -12 68 -8 37 2 78
7 92 11 14 3 50 9 80 12 30 3 67 12 83 20 15 7 27 11 27 7 0 -4 7 -1 15 6 8 7
24 10 35 7 11 -3 23 -1 26 5 3 5 12 7 19 4 16 -6 38 17 27 28 -4 4 5 5 21 1
22 -6 26 -4 21 8 -3 10 2 18 15 22 12 3 21 14 22 23 0 16 1 16 12 0 10 -16 13
-15 27 7 14 21 17 22 35 8 19 -15 19 -15 -5 -8 -22 7 -23 6 -12 -8 14 -17 42
-13 42 7 0 6 6 2 12 -8 8 -15 8 -21 0 -24 -7 -2 -10 -8 -6 -13 3 -5 0 -9 -5
-9 -6 0 -11 -4 -11 -10 0 -18 22 -10 27 10 3 11 8 20 12 21 36 4 59 3 55 -3
-3 -4 2 -8 10 -8 9 0 16 6 16 13 0 6 5 4 11 -5 5 -10 15 -18 20 -18 6 0 7 5 4
10 -3 6 0 10 8 10 7 0 19 -11 25 -25 7 -15 8 -25 2 -25 -6 0 -10 7 -10 16 0 9
-5 12 -12 8 -8 -5 -4 -13 13 -26 13 -11 25 -15 27 -9 2 5 10 7 17 5 9 -4 16 3
21 20 l6 26 24 -25 24 -26 -6 35 c-3 24 -1 36 6 36 7 0 10 -7 7 -15 -4 -8 -2
-17 3 -20 4 -3 10 0 12 7 3 8 7 6 11 -5 3 -9 2 -17 -4 -17 -6 0 -7 -14 -3 -35
7 -40 2 -43 -26 -15 -11 11 -26 20 -32 19 -10 0 -10 -2 0 -6 6 -2 9 -10 5 -16
-4 -6 0 -8 9 -4 11 4 18 -2 22 -17 6 -24 32 -34 74 -28 21 3 31 26 15 35 -5 2
-1 2 7 -1 8 -3 23 -5 32 -6 9 0 15 -4 12 -7 -5 -10 38 -5 54 5 7 4 12 1 12 -8
0 -9 -5 -16 -11 -16 -6 0 -9 -7 -5 -15 3 -8 1 -15 -3 -15 -5 0 -11 5 -13 12
-3 7 -7 5 -11 -6 -4 -10 -3 -15 3 -11 6 3 10 -3 10 -14 0 -19 10 -25 32 -23 3
1 9 -5 12 -13 3 -9 0 -15 -9 -15 -9 0 -12 -6 -9 -15 4 -8 -7 -27 -25 -46 -17
-17 -31 -35 -31 -40 0 -6 -4 -7 -10 -4 -5 3 -10 1 -10 -6 0 -7 -3 -10 -6 -7
-3 3 -19 -7 -36 -24 -28 -27 -108 -71 -133 -72 -5 -1 -15 -10 -20 -21 -19 -37
-149 -63 -233 -47 -31 6 -111 14 -177 17 -171 8 -215 14 -318 40 -119 31 -252
80 -402 147 -184 84 -350 149 -460 180 -55 16 -129 37 -165 48 -143 42 -200
57 -200 54 0 -2 -17 2 -37 10 -21 7 -63 21 -93 30 -154 44 -343 97 -396 110
-51 13 -115 36 -249 92 -24 10 -64 20 -155 39 -31 6 -103 36 -184 76 -55 27
-106 49 -113 49 -7 0 -13 5 -13 11 0 5 -4 8 -9 5 -5 -3 -11 1 -15 9 -3 8 -12
12 -20 9 -31 -12 -192 29 -286 74 -52 24 -113 53 -135 63 -22 10 -47 23 -55
28 -8 6 -40 21 -70 35 -54 25 -130 66 -140 76 -8 8 -60 36 -120 66 -30 15 -61
32 -69 38 -24 19 -43 20 -338 23 l-293 4 0 -590z m2197 467 c-3 -8 -6 -5 -6 6
-1 11 2 17 5 13 3 -3 4 -12 1 -19z m3260 0 c-3 -8 -6 -5 -6 6 -1 11 2 17 5 13
3 -3 4 -12 1 -19z m104 -35 c13 -16 12 -17 -3 -4 -10 7 -18 15 -18 17 0 8 8 3
21 -13z m-3155 -2 c-3 -5 -15 -7 -26 -4 -28 7 -25 13 6 13 14 0 23 -4 20 -9z
m3273 -121 c12 -22 17 -40 12 -40 -6 0 -11 5 -11 11 0 6 -9 22 -20 36 -15 19
-20 21 -20 9 0 -9 -4 -16 -9 -16 -5 0 -9 10 -8 23 0 12 -3 31 -8 42 -14 34 38
-18 64 -65z m-164 -12 c4 -20 3 -42 0 -49 -12 -19 -21 6 -23 64 -3 59 12 49
23 -15z m169 -92 c-3 -9 -11 -16 -16 -16 -5 0 -7 -14 -4 -32 l6 -33 -14 30
c-8 17 -18 54 -23 84 l-10 53 33 -35 c21 -22 32 -41 28 -51z m-133 -53 c13
-16 12 -17 -3 -4 -10 7 -18 15 -18 17 0 8 8 3 21 -13z m55 -70 c15 -20 23 -33
16 -29 -13 8 -56 66 -49 66 3 0 17 -17 33 -37z m-85 -76 c-13 -13 -15 31 -3
60 5 14 8 10 10 -16 2 -18 -1 -38 -7 -44z m299 -35 c118 -46 192 -68 265 -77
109 -15 215 -57 333 -133 32 -21 99 -55 149 -75 81 -34 98 -45 163 -115 40
-42 90 -95 111 -118 39 -41 74 -115 61 -130 -4 -4 -2 -4 5 0 15 9 94 -90 130
-162 32 -65 39 -150 15 -169 -30 -22 -33 -22 733 72 110 14 279 34 375 45 96
11 252 28 345 39 258 30 331 30 365 3 19 -16 22 -24 16 -55 -6 -32 -14 -41
-56 -62 -58 -29 -80 -31 -81 -7 0 13 -3 12 -11 -6 -8 -15 -17 -20 -29 -17 -9
3 -20 2 -23 -3 -3 -5 -20 -9 -38 -8 -26 1 -34 6 -36 24 -5 32 -34 28 -56 -8
-14 -25 -23 -30 -54 -29 -20 0 -48 -2 -62 -4 -14 -3 -45 -8 -70 -11 -25 -4
-53 -9 -63 -12 -10 -3 -19 1 -23 11 -5 13 -8 14 -18 1 -16 -20 -106 -31 -117
-14 -7 10 -11 10 -21 -4 -17 -21 -128 -35 -128 -16 0 7 -5 5 -11 -5 -7 -11
-21 -18 -37 -17 -15 1 -29 1 -32 0 -3 -1 -21 -4 -40 -5 -56 -4 -133 -15 -139
-20 -2 -3 -10 0 -17 6 -8 7 -14 7 -19 -1 -9 -14 -55 -13 -55 2 0 7 -5 5 -12
-4 -8 -10 -36 -19 -73 -22 -73 -8 -79 -9 -227 -32 -15 -2 -30 1 -33 7 -5 7
-12 5 -23 -4 -10 -9 -46 -17 -87 -20 -38 -3 -105 -12 -147 -21 -42 -9 -94 -16
-115 -15 -21 1 -60 -1 -88 -5 -27 -4 -66 -9 -85 -11 -19 -3 -68 -8 -109 -10
-41 -3 -81 -11 -88 -17 -24 -19 -22 -4 7 63 15 36 31 81 35 100 4 19 12 39 17
46 5 6 10 25 10 42 1 21 6 31 17 31 13 0 14 2 2 9 -8 5 -20 7 -27 4 -10 -4
-11 2 -4 28 5 18 7 35 5 38 -3 2 -5 -1 -5 -8 0 -7 -5 -9 -12 -5 -7 4 -8 3 -4
-4 5 -8 2 -10 -8 -6 -20 8 -20 13 3 47 17 26 19 27 32 10 9 -11 10 -14 2 -9
-17 10 -16 -2 1 -20 13 -12 15 -12 18 3 3 15 4 15 21 -1 14 -14 17 -15 17 -3
0 9 6 17 13 20 9 3 8 8 -3 22 -14 16 -13 17 7 11 12 -4 24 -2 28 4 3 6 11 7
17 4 7 -5 9 -1 5 9 -3 10 -3 17 2 17 10 0 34 78 27 89 -3 4 6 19 19 31 14 13
25 27 25 31 0 17 -33 39 -53 35 -33 -6 -77 -28 -77 -38 0 -5 -4 -6 -10 -3 -5
3 -18 -8 -29 -25 -11 -19 -22 -27 -25 -21 -4 6 -2 11 4 11 6 0 8 5 5 10 -5 8
-11 8 -20 0 -9 -7 -16 -6 -25 5 -9 11 -16 12 -25 5 -6 -5 -14 -7 -17 -4 -3 3
-5 -3 -4 -13 0 -11 -5 -17 -14 -15 -8 2 -19 4 -25 5 -5 1 -31 23 -57 50 -31
31 -49 43 -54 36 -5 -9 -10 -8 -18 2 -6 8 -17 14 -23 13 -7 -1 -18 -2 -24 -3
-5 0 -8 -5 -4 -10 3 -5 1 -13 -5 -16 -6 -4 -9 -1 -8 7 2 8 -4 12 -16 10 -10
-2 -22 2 -26 9 -6 8 -10 6 -14 -7 -3 -11 -15 -25 -27 -33 -20 -12 -21 -11 -15
6 5 12 4 15 -3 8 -6 -6 -12 -19 -14 -30 -1 -11 -7 -26 -12 -34 -5 -10 -4 -16
3 -19 7 -2 12 -8 12 -13 0 -6 -4 -8 -10 -4 -5 3 -13 -9 -18 -27 -10 -39 -42
-45 -57 -10 -11 25 -25 29 -25 8 0 -7 -10 -16 -22 -19 -22 -6 -22 -6 -4 8 15
11 16 15 5 16 -8 0 -2 5 14 11 15 5 27 17 27 26 0 14 -2 14 -9 3 -5 -8 -16
-11 -25 -8 -12 5 -14 12 -6 32 6 16 6 25 0 25 -6 0 -10 -9 -10 -19 0 -14 -6
-19 -20 -18 -25 2 -25 14 -2 40 9 11 12 17 5 14 -6 -4 -16 0 -21 9 -8 14 -11
11 -21 -16 -14 -40 -14 -43 -1 -35 5 3 7 0 4 -8 -8 -23 -31 -16 -26 8 3 20 0
22 -24 17 -19 -3 -25 -1 -20 7 4 6 11 9 16 6 12 -8 50 13 50 27 0 6 -9 8 -21
5 -23 -6 -41 6 -52 36 -3 9 -13 17 -21 17 -10 0 -13 6 -10 15 6 13 -6 20 -28
16 -4 0 -5 13 -1 29 4 24 2 30 -11 30 -13 0 -15 4 -7 18 7 13 4 23 -15 41 -13
13 -22 27 -19 31 3 4 -5 10 -16 13 -12 3 -18 10 -14 16 3 6 1 11 -4 11 -6 0
-11 14 -11 31 0 17 -5 39 -10 50 -8 14 -7 19 1 19 16 0 4 103 -16 144 -8 16
-15 34 -15 40 0 12 -17 47 -45 91 -19 30 -19 30 0 14 11 -8 67 -34 125 -57z
m-120 14 c0 -7 3 -29 6 -47 5 -23 3 -31 -3 -24 -15 15 -26 85 -13 85 5 0 10
-6 10 -14z m-92 -135 c69 -78 86 -101 74 -101 -5 0 -37 31 -71 69 -83 93 -101
117 -101 133 1 7 9 2 21 -12 11 -14 45 -54 77 -89z m-158 -28 c0 -19 -14 -16
-35 7 -11 12 -15 26 -11 37 7 16 9 15 26 -7 11 -14 20 -31 20 -37z m27 5 c-3
-8 -6 -5 -6 6 -1 11 2 17 5 13 3 -3 4 -12 1 -19z m263 -39 c0 -14 -12 -10 -26
9 -22 29 -16 51 6 23 11 -13 20 -27 20 -32z m-262 -84 c17 -22 53 -64 80 -94
70 -79 75 -48 6 34 -31 36 -54 69 -50 72 6 6 108 -84 139 -123 11 -14 22 -23
25 -20 3 3 -3 15 -12 25 -12 13 -15 27 -11 41 7 20 7 20 26 -4 23 -30 24 -63
3 -88 -16 -17 -18 -17 -30 0 -13 16 -15 16 -29 -2 -14 -18 -13 -22 11 -47 19
-20 24 -33 19 -46 -6 -15 -8 -15 -12 -3 -9 26 -35 50 -54 50 -9 0 -54 43 -100
96 -74 84 -83 100 -87 141 l-3 45 23 -18 c14 -10 39 -36 56 -59z m-728 45 c0
-5 -8 -10 -17 -10 -15 0 -16 2 -3 10 19 12 20 12 20 0z m150 -11 c0 -5 -4 -8
-9 -5 -5 3 -14 -1 -21 -9 -14 -17 -30 -20 -30 -4 0 5 5 7 10 4 6 -3 10 1 10 9
0 9 9 16 20 16 11 0 20 -5 20 -11z m25 1 c3 -5 1 -10 -4 -10 -6 0 -11 5 -11
10 0 6 2 10 4 10 3 0 8 -4 11 -10z m464 -72 c-5 -9 -9 -31 -9 -48 0 -24 7 -34
32 -48 35 -19 140 -124 131 -132 -3 -3 -19 11 -35 30 -17 19 -26 26 -20 15 6
-11 23 -32 39 -47 l29 -28 18 30 18 31 19 -25 c23 -30 17 -47 -37 -108 -31
-35 -33 -36 -49 -18 -10 11 -15 26 -12 35 4 8 3 15 -2 15 -10 0 -46 -42 -55
-65 -7 -18 -17 -10 -82 60 -40 44 -74 83 -74 88 0 4 -7 7 -15 7 -21 0 -19 16
7 50 l22 30 -28 29 -29 30 26 30 c14 17 36 49 48 70 l22 39 22 -26 c17 -20 21
-31 14 -44z m292 25 c-9 -16 -10 -16 -11 -1 0 9 3 25 7 35 7 16 8 17 11 1 2
-10 -1 -25 -7 -35z m-818 -23 c3 -11 1 -20 -4 -20 -5 0 -9 9 -9 20 0 11 2 20
4 20 2 0 6 -9 9 -20z m371 -152 c9 -12 16 -29 16 -36 0 -8 39 -56 86 -108 48
-52 85 -97 82 -99 -3 -3 -46 37 -96 87 -87 89 -92 92 -106 73 -13 -19 -15 -19
-33 -3 -13 12 -23 14 -33 8 -21 -13 -1 -43 29 -45 33 -3 182 -155 186 -190 3
-29 21 -53 31 -42 4 4 7 20 6 35 0 18 10 41 29 63 l29 34 21 -21 20 -21 -28
-29 c-16 -16 -40 -44 -54 -63 -24 -31 -28 -32 -50 -20 -32 17 -49 20 -69 9
-12 -6 -37 11 -103 74 -77 72 -90 81 -105 70 -23 -18 -62 -17 -83 2 -16 14
-21 14 -53 -1 -55 -26 -64 -13 -16 23 53 39 63 39 89 6 22 -28 39 -24 75 15
15 17 17 23 6 36 -7 8 -19 14 -28 13 -29 -6 -21 17 17 44 21 15 53 45 72 67
19 21 37 40 41 40 4 1 14 -9 22 -21z m681 -148 c-3 -5 -14 -10 -23 -10 -15 0
-15 2 -2 10 20 13 33 13 25 0z m362 -22 c-3 -8 -6 -5 -6 6 -1 11 2 17 5 13 3
-3 4 -12 1 -19z m-42 -68 c3 -5 1 -10 -4 -10 -6 0 -11 5 -11 10 0 6 2 10 4 10
3 0 8 -4 11 -10z m-1989 -35 c10 -8 14 -15 8 -15 -5 0 -19 7 -30 15 -10 8 -14
15 -8 15 5 0 19 -7 30 -15z m1959 -24 c-6 -20 20 -55 35 -46 4 3 6 -4 3 -15
-3 -11 -9 -20 -14 -20 -5 0 -9 -8 -9 -18 0 -11 -10 -27 -21 -38 l-22 -19 17
33 c14 26 15 39 7 60 l-11 27 6 -29 c5 -26 3 -28 -11 -16 -15 13 -14 23 6 78
10 27 23 30 14 3z m-1175 -46 c18 -22 5 -18 -40 11 -22 15 -37 30 -34 35 6 10
51 -19 74 -46z m-249 28 c13 -15 12 -15 -8 -4 -24 12 -29 21 -14 21 5 0 15 -7
22 -17z m-76 -3 c-3 -5 -10 -10 -15 -10 -5 0 -21 -5 -37 -12 -15 -6 -35 -12
-43 -14 -8 -1 -26 -3 -39 -5 -13 -2 -26 2 -28 9 -3 8 8 12 34 13 29 0 104 16
131 28 2 0 0 -3 -3 -9z m1910 -9 c-3 -6 -11 -11 -17 -11 -6 0 -6 6 2 15 14 17
26 13 15 -4z m-2207 -57 c55 -6 65 -10 76 -33 8 -14 34 -40 58 -57 59 -43 188
-174 199 -201 6 -17 17 -23 38 -23 26 0 31 5 45 46 9 26 13 50 10 55 -8 13 10
11 24 -3 15 -15 135 6 188 32 20 11 41 17 46 14 4 -3 23 -1 41 5 17 6 35 10
38 8 4 -1 16 6 27 16 11 10 29 19 41 20 13 1 20 6 17 14 -3 7 1 13 9 13 18 0
18 5 4 32 -9 17 -8 19 8 16 19 -4 25 -35 10 -55 -7 -9 -4 -13 11 -13 12 0 20
6 18 13 -1 6 -1 9 1 5 3 -5 11 -8 19 -8 9 0 12 -5 8 -12 -5 -8 0 -9 14 -6 24
7 28 -2 10 -20 -10 -10 -6 -11 18 -6 24 5 33 2 38 -11 6 -16 4 -16 -11 -4 -12
10 -15 11 -9 1 5 -9 -2 -17 -23 -25 -50 -19 -36 -25 18 -8 27 9 47 19 44 24
-2 4 6 7 18 7 12 0 28 8 35 17 7 10 15 15 19 12 3 -4 -5 -18 -18 -33 -13 -14
-27 -23 -30 -20 -3 3 -3 -3 -1 -13 4 -14 -4 -23 -31 -36 -20 -9 -42 -17 -50
-17 -8 0 -15 -4 -15 -9 0 -15 23 -26 27 -14 2 6 13 9 23 6 11 -3 33 5 50 17
17 12 36 23 43 24 23 5 107 50 107 58 0 4 5 8 11 8 5 0 7 -4 4 -10 -3 -5 -1
-10 4 -10 6 0 11 5 11 10 0 6 8 10 18 9 10 0 12 -3 5 -6 -7 -2 -13 -11 -13
-19 0 -8 -3 -14 -7 -14 -5 0 -13 -11 -20 -25 -6 -14 -7 -23 -3 -20 5 3 11 1
15 -4 3 -5 -3 -15 -12 -21 -15 -9 -14 -10 6 -4 18 5 23 3 19 -8 -4 -8 3 -20
13 -26 17 -11 18 -16 8 -35 -11 -20 -11 -21 5 -8 24 20 33 5 11 -19 -24 -27
-13 -55 16 -40 20 11 20 11 5 -13 -9 -13 -13 -27 -9 -32 5 -4 3 -5 -4 -1 -6 3
-14 2 -18 -4 -3 -5 -13 -10 -21 -10 -16 0 -44 -23 -44 -36 0 -4 8 0 18 8 9 9
27 19 39 22 18 6 22 4 17 -9 -4 -9 -12 -14 -18 -12 -6 2 -19 -5 -29 -16 -19
-18 -18 -19 2 -12 12 3 21 3 21 -2 0 -10 -107 -112 -146 -138 -28 -19 -32 -21
-55 -24 -5 0 -8 -5 -5 -10 3 -5 -9 -16 -27 -25 -30 -14 -33 -14 -45 2 -11 14
-10 19 5 29 15 12 15 13 1 13 -9 0 -20 -5 -24 -11 -4 -8 -9 -7 -15 2 -5 8 -2
22 6 35 14 21 13 22 -33 19 -26 -2 -54 -5 -62 -8 -8 -3 -29 -7 -46 -9 -23 -3
-31 -1 -27 9 3 7 0 13 -6 13 -7 0 0 11 15 25 15 14 23 25 18 25 -5 0 -2 4 6
10 8 5 12 12 8 15 -9 9 -121 11 -135 2 -7 -5 -13 -4 -13 1 0 6 -9 8 -20 5 -11
-3 -20 0 -20 6 0 7 -8 8 -26 1 -28 -11 -59 3 -48 21 8 13 42 11 47 -3 3 -7 6
-3 6 9 1 12 -5 24 -11 26 -8 3 -6 6 5 6 9 1 17 5 17 11 0 5 17 7 38 4 63 -10
71 -9 74 1 2 6 -9 11 -24 13 -33 4 -36 17 -8 32 24 13 18 29 -10 27 -14 -1
-18 -6 -14 -19 4 -12 0 -18 -11 -18 -9 0 -13 4 -10 10 4 7 -54 8 -92 0 -2 0
-6 0 -9 1 -8 1 -24 -22 -24 -35 0 -4 6 -6 14 -3 14 6 32 -21 21 -31 -3 -3 -5
0 -5 6 0 7 -4 12 -9 12 -5 0 -7 -9 -4 -20 3 -11 0 -20 -6 -20 -5 0 -8 6 -5 14
3 8 -3 16 -15 19 -12 3 -21 1 -21 -4 0 -5 4 -9 10 -9 13 0 1 -30 -22 -54 -10
-11 -18 -26 -18 -35 0 -8 -3 -11 -6 -8 -10 9 -46 -12 -39 -23 4 -6 -2 -7 -12
-3 -15 5 -16 4 -5 -8 10 -10 19 -11 42 -2 20 7 30 8 30 1 0 -6 11 -8 25 -6 28
6 32 -4 11 -24 -19 -20 -50 -81 -48 -94 1 -7 -5 -15 -14 -18 -12 -4 -15 -2
-10 9 3 9 0 15 -9 15 -8 0 -15 5 -15 11 0 8 -6 7 -17 -2 -11 -10 -14 -10 -9
-1 9 15 1 15 -25 2 -15 -9 -19 -7 -19 7 0 10 -5 25 -11 33 -8 11 -9 8 -4 -15
l6 -30 -18 25 c-21 30 -40 30 -193 7 -69 -10 -99 -11 -112 -4 -13 9 -26 7 -53
-6 -44 -21 -71 -22 -79 -1 -16 41 79 140 165 171 52 20 334 73 385 73 34 0 30
28 -10 68 -32 32 -34 33 -81 22 -63 -14 -129 0 -220 45 -38 19 -74 35 -81 35
-6 0 -43 16 -81 35 -51 25 -85 52 -124 96 -84 96 -84 100 4 42 45 -31 110 -68
145 -84 60 -28 89 -37 66 -21 -6 4 -30 34 -55 67 -62 85 -120 137 -176 159
-103 42 -114 47 -109 55 3 4 51 -3 108 -16 57 -12 131 -26 166 -29z m1752 52
c0 -2 -7 -7 -16 -10 -8 -3 -12 -2 -9 4 6 10 25 14 25 6z m477 -22 c-3 -3 -12
-4 -19 -1 -8 3 -5 6 6 6 11 1 17 -2 13 -5z m-1567 -29 c19 -23 8 -25 -14 -4
-11 11 -15 19 -9 19 6 0 16 -7 23 -15z m1615 -5 c3 -5 1 -10 -4 -10 -6 0 -11
5 -11 10 0 6 2 10 4 10 3 0 8 -4 11 -10z m-1860 -71 c21 -23 12 -18 -27 15
-32 27 -58 50 -58 53 0 9 55 -36 85 -68z m1347 44 c-6 -2 -10 -8 -8 -12 3 -4
-1 -8 -9 -8 -11 0 -12 4 -4 14 6 7 17 13 23 12 7 0 6 -2 -2 -6z m-1052 -14
c11 -8 9 -9 -10 -3 -24 6 -24 6 -7 -13 21 -24 22 -34 3 -27 -17 7 -28 32 -20
45 7 12 15 11 34 -2z m86 -57 c-11 -10 -15 4 -8 28 l7 25 3 -23 c2 -13 1 -26
-2 -30z m-1431 -13 c6 -7 6 -10 0 -9 -22 5 -29 -1 -15 -10 12 -8 10 -10 -8
-10 -13 0 -20 4 -17 10 3 6 1 10 -4 10 -6 0 -11 -4 -11 -10 0 -5 -5 -10 -11
-10 -5 0 -7 5 -4 10 3 6 -1 10 -10 10 -8 0 -18 -7 -22 -16 -5 -13 -7 -13 -14
-2 -7 10 -9 9 -9 -4 0 -9 9 -20 21 -23 14 -5 18 -10 11 -17 -6 -6 -18 -8 -28
-4 -9 4 -14 9 -11 13 4 3 2 12 -4 19 -14 18 26 58 52 51 12 -3 17 -1 12 5 -8
14 57 2 72 -13z m1111 -10 c19 -22 19 -22 -3 -8 -13 8 -23 17 -23 21 0 12 6 9
26 -13z m-1149 -35 c-3 -3 -12 -4 -19 -1 -8 3 -5 6 6 6 11 1 17 -2 13 -5z
m1048 -24 c3 -6 -1 -7 -9 -4 -18 7 -21 14 -7 14 6 0 13 -4 16 -10z m-1075 -10
c0 -5 -5 -10 -11 -10 -5 0 -7 5 -4 10 3 6 8 10 11 10 2 0 4 -4 4 -10z m1964
-25 c-4 -8 -1 -15 7 -15 7 0 10 -2 7 -5 -3 -3 -13 -3 -22 1 -13 5 -14 9 -5 20
15 18 20 18 13 -1z m27 -55 c6 0 7 -4 4 -10 -10 -15 -32 -12 -39 6 -5 12 -2
15 10 10 8 -3 20 -6 25 -6z m1289 -158 c-6 -20 -15 -46 -20 -57 -4 -11 -14
-35 -20 -53 -13 -33 -76 -109 -84 -101 -3 3 1 17 9 32 10 19 10 25 2 21 -7 -4
-3 3 8 15 13 15 21 39 21 70 3 71 3 73 15 65 8 -4 9 1 4 16 -5 16 -3 21 5 18
7 -2 25 7 39 21 22 23 26 24 29 8 2 -9 -2 -34 -8 -55z m-1138 39 c-8 -4 -12
-12 -10 -16 1 -5 -5 -9 -14 -11 -10 -1 -18 0 -18 2 0 11 26 33 40 33 12 1 12
-1 2 -8z m265 -23 c-3 -8 -6 -5 -6 6 -1 11 2 17 5 13 3 -3 4 -12 1 -19z m-36
-11 c-10 -9 -11 -8 -5 6 3 10 9 15 12 12 3 -3 0 -11 -7 -18z m-207 -20 c-3 -9
-10 -14 -15 -11 -8 5 -13 -9 -10 -28 0 -5 -3 -8 -9 -8 -13 0 -13 3 7 45 16 34
40 36 27 2z m36 3 c0 -5 -5 -10 -11 -10 -5 0 -7 5 -4 10 3 6 8 10 11 10 2 0 4
-4 4 -10z m210 0 c0 -5 -5 -10 -11 -10 -5 0 -7 5 -4 10 3 6 8 10 11 10 2 0 4
-4 4 -10z m-359 -37 c-12 -20 -14 -14 -5 12 4 9 9 14 11 11 3 -2 0 -13 -6 -23z
m39 -30 c0 -7 -7 -13 -15 -13 -18 0 -18 -1 -6 -34 6 -14 6 -26 1 -28 -5 -2
-12 -16 -16 -32 -5 -21 -4 -27 5 -22 6 4 11 14 11 22 0 8 4 14 10 14 5 0 8
-14 6 -31 -4 -36 -90 -124 -109 -112 -7 3 -9 3 -5 -2 10 -11 -10 -45 -27 -45
-8 0 -15 -4 -15 -10 0 -5 -7 -7 -15 -4 -8 4 -13 10 -10 14 3 5 -3 6 -13 3 -28
-7 -23 -30 5 -25 13 2 23 1 23 -2 0 -16 -34 -56 -47 -56 -8 0 -11 -4 -8 -10 3
-5 1 -10 -4 -10 -6 0 -11 10 -11 23 0 16 -3 18 -9 9 -6 -10 -10 -9 -14 7 -3
12 0 24 5 28 7 3 8 1 4 -5 -4 -7 -3 -12 3 -12 6 0 15 9 21 20 6 11 7 20 3 20
-4 0 -2 5 5 12 7 7 12 19 12 27 0 12 -3 12 -12 3 -14 -14 -32 -16 -24 -3 4 5
-3 7 -15 4 -13 -4 -16 -8 -10 -13 7 -4 1 -11 -15 -19 -15 -6 -29 -9 -32 -6 -3
3 0 5 6 5 8 0 9 7 2 24 -7 20 -3 29 26 57 19 18 49 38 67 44 22 7 33 17 35 33
2 12 16 30 30 40 39 25 49 36 44 50 -4 12 9 16 36 13 6 -1 12 4 12 10 0 7 2
10 5 8 2 -3 1 -19 -4 -35 -6 -21 -5 -31 3 -31 6 0 11 13 12 28 1 15 4 33 7 41
7 18 37 19 37 1z m238 -44 c1 -34 -1 -37 -14 -25 -17 18 -18 33 -2 38 9 3 9 6
0 12 -8 5 -16 -3 -23 -21 -8 -21 -12 -24 -19 -13 -6 9 -4 20 3 29 10 12 9 13
-3 7 -8 -4 -7 -1 3 7 31 25 55 11 55 -34z m-128 30 c0 -5 5 -7 10 -4 6 4 10 3
9 -2 -4 -25 2 -34 21 -28 24 8 24 7 4 -56 -9 -27 -21 -49 -27 -49 -7 0 -7 4 1
12 7 7 12 25 12 40 0 15 5 28 10 28 6 0 10 5 10 11 0 8 -5 8 -15 -1 -8 -7 -15
-20 -15 -29 0 -14 -2 -14 -10 -1 -5 8 -7 23 -4 33 3 10 -2 27 -12 38 -10 11
-12 19 -6 19 7 0 12 -5 12 -11z m187 -21 c-3 -7 -5 -2 -5 12 0 14 2 19 5 13 2
-7 2 -19 0 -25z m-291 -2 c3 -8 14 -12 27 -9 l22 6 -22 -22 c-23 -22 -39 -28
-28 -11 3 6 1 10 -5 10 -7 0 -10 6 -7 14 3 8 1 17 -6 20 -9 3 -8 5 1 5 7 1 15
-5 18 -13z m321 -38 c-4 -12 -1 -28 5 -35 6 -7 6 -13 1 -13 -5 0 -15 11 -21
25 -14 31 -15 46 -2 25 8 -13 10 -12 10 3 0 9 3 17 6 17 4 0 4 -10 1 -22z
m-247 -3 c0 -8 -4 -15 -10 -15 -5 0 -7 7 -4 15 4 8 8 15 10 15 2 0 4 -7 4 -15z
m17 -17 c-3 -7 -5 -2 -5 12 0 14 2 19 5 13 2 -7 2 -19 0 -25z m128 -16 c-2 -9
-4 -28 -4 -42 -1 -18 -4 -21 -10 -12 -7 11 -9 11 -14 -2 -3 -8 -1 -17 6 -20 9
-3 8 -8 -3 -16 -12 -9 -11 -10 8 -5 21 6 23 5 13 -13 -15 -28 7 -42 25 -17 24
32 27 7 5 -31 -17 -28 -18 -35 -6 -31 17 7 18 5 9 -17 -3 -9 -13 -16 -22 -16
-8 0 -13 -3 -9 -6 6 -7 -189 -211 -216 -225 -9 -6 -22 -7 -27 -4 -13 8 -1 35
16 35 8 0 14 5 14 10 0 6 -13 4 -29 -5 -38 -19 -48 -4 -19 28 13 13 38 51 56
84 18 33 44 72 57 88 14 15 22 31 20 35 -3 4 2 11 11 14 8 3 12 11 9 16 -4 6
1 23 10 37 10 14 21 38 25 52 4 16 13 26 25 26 10 0 20 6 22 13 3 6 0 12 -6
12 -15 0 -14 33 1 48 10 10 15 9 24 -3 7 -9 11 -24 9 -33z m-804 -205 c26 -17
62 -44 80 -59 30 -23 71 -47 160 -94 14 -8 34 -23 44 -34 18 -19 17 -21 -5
-40 -12 -11 -26 -17 -30 -15 -4 3 -10 -5 -13 -16 -4 -15 1 -27 16 -40 l22 -18
-25 -10 c-14 -5 -19 -10 -12 -10 7 -1 11 -5 7 -10 -8 -14 -42 -9 -42 6 0 6 5
10 10 6 5 -3 4 4 -3 16 -6 12 -15 19 -19 16 -5 -3 -12 2 -15 10 -4 12 -10 13
-25 5 -17 -9 -19 -7 -15 14 3 20 1 23 -16 19 -11 -3 -20 -11 -20 -18 0 -7 -7
-15 -15 -19 -9 -3 -15 0 -15 9 0 8 -6 15 -12 15 -8 0 -5 7 6 15 17 13 18 15 2
21 -10 4 -25 -1 -35 -10 -13 -11 -21 -14 -26 -7 -10 17 -45 33 -45 21 0 -5 6
-10 14 -10 7 0 19 -7 26 -15 7 -8 16 -13 20 -10 5 3 11 1 15 -5 3 -5 0 -10 -8
-10 -9 0 -14 -10 -13 -27 1 -23 -3 -27 -19 -25 -11 2 -26 9 -32 14 -15 12 -17
38 -3 38 6 0 10 8 9 18 0 10 -3 12 -6 4 -2 -6 -9 -9 -14 -6 -6 3 -15 2 -22 -4
-24 -18 -45 -20 -71 -7 -14 8 -26 11 -26 8 0 -3 -9 4 -20 17 -11 13 -20 20
-20 16 0 -12 -41 15 -114 74 -39 31 -95 69 -123 84 -58 29 -63 41 -33 74 15
16 27 20 54 15 19 -3 36 -1 40 6 4 6 20 11 36 11 16 0 32 5 35 10 4 6 34 8 77
5 64 -5 70 -4 63 12 -19 43 -45 127 -45 142 1 9 39 -24 88 -77 48 -51 108
-107 133 -125z m644 186 c-11 -7 -14 -13 -8 -13 6 0 8 -12 6 -27 -3 -21 -2
-24 5 -14 8 11 11 9 15 -10 l4 -24 8 23 c4 12 14 22 21 22 18 0 19 3 -16 -66
-62 -120 -108 -181 -174 -232 -29 -22 -62 -30 -51 -12 4 6 11 8 16 5 5 -3 6 0
3 8 -3 8 -1 18 5 22 14 8 14 35 0 35 -5 0 -8 -4 -5 -9 3 -5 -3 -20 -14 -32
-11 -13 -20 -19 -19 -14 4 20 -17 59 -25 47 -4 -7 -12 -10 -17 -7 -5 4 -9 1
-9 -4 0 -6 -4 -11 -9 -11 -13 0 -8 21 12 50 9 13 17 29 17 35 1 25 133 165
156 165 8 0 14 5 14 11 0 6 7 17 15 25 15 15 20 9 16 -22 -1 -6 6 -18 16 -25
15 -12 16 -12 8 1 -22 34 -7 109 18 93 6 -4 3 -11 -8 -20z m188 7 c-3 -12 -8
-19 -11 -16 -5 6 5 36 12 36 2 0 2 -9 -1 -20z m577 0 c0 -5 -7 -10 -15 -10 -8
0 -15 5 -15 10 0 6 7 10 15 10 8 0 15 -4 15 -10z m-520 -4 c0 -2 -6 -9 -13
-15 -10 -8 -14 -7 -14 4 0 8 6 15 14 15 7 0 13 -2 13 -4z m120 -10 c-7 -7 -13
-7 -20 0 -6 6 -3 10 10 10 13 0 16 -4 10 -10z m-163 -18 c-3 -8 -6 -5 -6 6 -1
11 2 17 5 13 3 -3 4 -12 1 -19z m-4 -22 c7 4 9 3 4 -1 -4 -5 -18 -10 -30 -12
-17 -2 -19 -1 -7 7 8 5 11 10 7 10 -5 0 -5 6 0 13 5 9 8 7 11 -6 2 -10 8 -14
15 -11z m-863 4 c0 -5 9 -10 19 -10 10 0 21 -7 25 -15 3 -8 1 -15 -4 -15 -6 0
-10 5 -10 10 0 6 -6 10 -14 10 -7 0 -19 7 -26 15 -9 10 -9 15 -1 15 6 0 11 -4
11 -10z m125 1 c-3 -5 2 -11 10 -13 10 -2 7 -7 -10 -15 -19 -8 -23 -8 -18 0 4
7 8 15 9 20 3 15 4 17 10 17 3 0 3 -4 -1 -9z m887 -28 c-5 -10 -7 -25 -5 -33
4 -13 3 -13 -5 -1 -6 8 -8 21 -5 30 4 13 2 13 -10 -1 -17 -22 -27 -23 -27 -4
0 15 15 24 43 25 14 1 16 -3 9 -16z m353 -76 c-1 -12 -3 -41 -4 -64 -1 -46
-28 -85 -42 -61 -10 15 -1 114 13 140 11 23 36 12 33 -15z m-426 -44 c-4 -27
1 -35 16 -23 13 11 14 10 9 -4 -7 -18 -16 -20 -29 -7 -6 6 -10 -3 -11 -24 0
-30 1 -32 12 -17 11 14 12 11 4 -18 -6 -19 -10 -36 -10 -36 0 -4 -187 -140
-209 -151 -27 -15 -34 -13 -26 9 4 9 26 24 50 34 32 13 42 21 34 30 -5 6 -6
20 -2 29 5 14 3 16 -8 10 -8 -4 -2 5 14 19 15 15 25 31 22 37 -4 5 -2 9 3 9 6
0 12 10 16 23 6 24 56 86 56 70 0 -5 -6 -15 -12 -22 -11 -11 -10 -13 5 -7 10
3 23 6 28 6 4 0 5 7 2 17 -4 10 -2 14 5 9 6 -3 13 -2 17 4 7 12 16 13 14 3z
m-1479 -43 c0 -6 -6 -21 -14 -33 -8 -12 -20 -49 -27 -82 -7 -33 -21 -77 -31
-97 -20 -41 -23 -68 -8 -68 6 0 10 -6 10 -14 0 -8 9 -33 19 -57 23 -51 20 -59
-20 -59 -16 0 -29 -5 -29 -11 0 -5 -5 -7 -11 -3 -16 10 -68 7 -82 -4 -7 -5
-24 -12 -40 -16 -34 -8 -49 18 -22 38 14 10 18 28 19 76 1 71 -15 89 -33 38
-30 -79 -53 -119 -74 -128 -21 -8 -21 -9 11 -21 39 -16 43 -33 5 -26 -16 3
-32 -1 -40 -9 -16 -16 -47 -19 -38 -4 12 20 -27 9 -46 -12 -19 -23 -19 -23
-34 -3 -11 13 -18 16 -23 9 -4 -6 -17 -14 -29 -18 -13 -4 -23 -14 -23 -22 0
-8 -6 -14 -12 -14 -7 -1 -31 -9 -53 -20 -22 -10 -42 -17 -46 -15 -3 3 -12 -7
-20 -22 -8 -14 -29 -32 -48 -40 -18 -8 -35 -23 -38 -33 -3 -10 -18 -24 -34
-30 -16 -7 -29 -19 -29 -26 0 -10 -8 -13 -24 -10 -14 3 -30 -2 -37 -10 -6 -7
-16 -11 -22 -7 -5 3 -7 1 -3 -5 3 -6 2 -13 -3 -16 -5 -4 -13 -1 -16 5 -4 5
-13 8 -20 5 -8 -3 -18 1 -23 7 -18 21 -1 68 36 101 19 17 79 74 132 127 54 53
115 106 136 119 22 13 51 35 66 49 15 14 39 38 55 54 16 15 34 27 41 27 6 0
12 9 12 19 0 28 18 35 47 20 24 -13 27 -12 57 22 21 24 47 40 80 50 43 12 52
19 68 56 29 67 67 92 173 116 38 9 85 7 85 -3z m1875 -80 c-3 -5 -1 -10 5 -10
12 0 8 -160 -5 -192 -13 -33 -23 -19 -31 40 -3 31 -8 66 -11 77 -2 11 -6 27
-7 35 -2 8 8 25 23 37 29 25 35 28 26 13z m-330 -20 c-3 -5 -11 -10 -16 -10
-6 0 -7 5 -4 10 3 6 11 10 16 10 6 0 7 -4 4 -10z m-56 -61 c-19 -11 -24 -3 -8
14 8 9 16 11 18 5 2 -6 -3 -14 -10 -19z m51 -3 c0 -2 -8 -10 -17 -17 -16 -13
-17 -12 -4 4 13 16 21 21 21 13z m-650 -24 c0 -4 -9 -8 -21 -9 -17 -2 -18 1
-9 12 12 14 30 12 30 -3z m119 -19 c23 -21 43 -48 44 -59 0 -12 6 -20 12 -17
20 7 37 -24 38 -73 1 -32 -2 -48 -12 -52 -8 -3 -11 0 -7 7 4 6 3 11 -2 11 -6
0 -15 -15 -22 -32 -7 -18 -14 -28 -17 -21 -3 8 -13 9 -35 3 -29 -9 -30 -8 -26
20 4 29 -5 40 -17 20 -3 -5 -12 -10 -18 -9 -9 0 -9 2 1 6 6 2 12 9 12 14 0 6
-8 5 -20 -1 -15 -8 -18 -8 -14 3 3 9 -3 17 -15 20 -19 5 -26 -3 -22 -25 0 -5
-5 -7 -11 -5 -8 1 -12 -6 -10 -17 3 -17 1 -18 -12 -7 -10 8 -13 22 -10 40 4
19 0 32 -15 45 l-20 18 21 44 c12 23 26 40 31 37 6 -4 8 1 4 10 -4 11 -1 17 9
17 8 0 24 9 36 20 31 28 50 25 97 -17z m281 27 c0 -5 -5 -10 -11 -10 -5 0 -7
5 -4 10 3 6 8 10 11 10 2 0 4 -4 4 -10z m210 -27 c-1 -16 -25 -40 -36 -36 -7
2 -19 -4 -28 -13 -9 -9 -19 -14 -22 -11 -8 8 35 49 45 42 5 -2 11 2 15 10 5
15 26 21 26 8z m-805 -61 c-3 -3 -11 0 -18 7 -9 10 -8 11 6 5 10 -3 15 -9 12
-12z m45 -55 c0 -23 -2 -22 -19 10 -10 19 -9 22 4 17 8 -4 15 -15 15 -27z
m-15 -27 c3 -5 1 -10 -4 -10 -6 0 -11 5 -11 10 0 6 2 10 4 10 3 0 8 -4 11 -10z
m85 -4 c-7 -7 -14 -6 -21 1 -9 9 -7 12 9 10 14 -1 18 -5 12 -11z m-1032 -162
c22 -3 32 -10 32 -23 0 -28 -22 -84 -29 -74 -3 6 -25 14 -48 20 -42 11 -43 10
-62 -23 -11 -18 -17 -35 -13 -37 4 -3 39 -14 77 -27 71 -22 95 -35 95 -52 0
-5 -6 -6 -12 -2 -9 6 -9 3 1 -9 18 -23 8 -47 -18 -40 -18 5 -21 1 -21 -28 0
-42 -9 -33 -15 16 -6 46 -14 60 -27 47 -12 -12 -48 -4 -48 12 0 7 -3 6 -8 -2
-11 -17 -42 -5 -43 17 0 11 -3 10 -9 -6 -10 -23 -43 -46 -54 -36 -3 3 -6 -1
-6 -10 0 -10 -5 -17 -10 -17 -7 0 -7 7 0 20 6 11 15 18 21 15 5 -4 9 -1 9 4 0
14 -23 14 -37 0 -8 -8 -14 -6 -22 10 -14 25 -45 23 -66 -5 -12 -16 -14 -16
-15 -3 0 23 -32 49 -37 32 -9 -27 -20 -11 -14 20 4 17 13 32 21 32 7 0 15 6
18 13 2 6 -1 12 -6 12 -6 0 -17 3 -26 6 -12 4 -16 0 -16 -16 0 -17 -4 -20 -20
-15 -24 8 -26 -1 -5 -22 8 -8 13 -19 10 -23 -9 -14 -35 0 -35 18 0 23 -17 2
-23 -28 -4 -24 -5 -24 -12 -4 -5 15 -13 20 -26 17 -51 -14 -1 40 103 110 47
32 84 49 125 56 32 6 85 17 118 24 57 12 80 12 153 1z m1662 -16 c-22 -23 -34
-21 -24 6 3 9 15 16 25 16 19 0 19 -1 -1 -22z m1114 -73 c24 -36 19 -112 -8
-131 -11 -8 -28 -14 -38 -14 -17 0 -16 2 2 20 11 11 25 20 30 20 6 0 10 5 10
11 0 5 -4 8 -9 4 -10 -6 -6 33 4 43 2 3 -3 11 -13 19 -16 14 -16 14 3 9 19 -6
19 -5 3 8 -19 14 -24 36 -9 36 5 0 16 -11 25 -25z m2756 4 c0 -5 8 -9 18 -9
12 0 18 -9 19 -33 2 -28 -2 -36 -22 -45 -30 -14 -53 -7 -82 25 -24 27 -21 51
9 62 29 11 58 11 58 0z m-1720 -134 c8 -5 11 -4 7 2 -4 6 13 10 43 10 43 1 48
-1 45 -19 -3 -14 0 -18 10 -14 8 3 15 1 15 -5 0 -6 4 -8 9 -4 5 3 13 0 17 -6
4 -8 3 -9 -4 -5 -7 4 -14 -3 -18 -18 -3 -13 -12 -27 -20 -30 -8 -3 -13 -2 -10
3 3 5 -3 11 -13 14 -13 3 -21 -2 -26 -17 -4 -12 -8 -16 -11 -9 -3 7 -12 9 -20
6 -8 -3 -14 0 -14 7 0 6 -4 8 -10 5 -5 -3 -10 -1 -10 6 0 6 -8 9 -20 6 -11 -3
-18 -1 -15 3 6 10 -7 20 -37 25 -12 3 -26 10 -32 16 -8 9 -6 9 8 2 14 -8 24
-6 37 5 10 9 16 19 13 23 -5 9 39 5 56 -6z m-4590 -20 c10 -12 7 -20 -13 -44
-24 -30 -25 -30 -42 -10 -17 18 -17 19 -1 19 9 0 14 5 11 10 -4 6 -11 8 -16 5
-13 -9 -11 3 4 20 16 19 41 19 57 0z m330 1 c0 -2 -7 -7 -16 -10 -8 -3 -12 -2
-9 4 6 10 25 14 25 6z m300 -16 c0 -5 -5 -10 -11 -10 -5 0 -7 5 -4 10 3 6 8
10 11 10 2 0 4 -4 4 -10z m-420 -4 c0 -3 -4 -8 -10 -11 -5 -3 -10 -1 -10 4 0
6 5 11 10 11 6 0 10 -2 10 -4z m50 -12 c0 -8 -4 -13 -9 -10 -5 4 -16 4 -24 0
-11 -4 -14 -20 -13 -60 1 -29 -1 -48 -6 -41 -8 12 -9 10 -12 -15 -1 -7 -10
-12 -20 -10 -11 2 -15 -1 -11 -8 4 -6 14 -9 22 -6 22 9 36 -3 22 -20 -9 -11
-7 -14 15 -14 14 0 25 -3 25 -7 -3 -20 2 -34 11 -28 6 3 10 1 10 -5 0 -6 -6
-10 -12 -9 -27 3 -38 -2 -63 -28 -14 -15 -25 -39 -25 -53 0 -37 -16 -58 -32
-42 -9 9 -9 12 4 12 18 0 31 77 16 97 -5 7 -5 14 2 18 5 3 10 1 10 -4 0 -18
24 -12 43 9 9 11 17 22 17 23 0 2 -17 3 -38 3 -34 -1 -38 1 -34 22 3 13 -1 22
-7 22 -7 0 -10 4 -7 9 3 5 -1 12 -10 15 -24 9 -31 7 -14 -4 11 -8 5 -9 -23 -6
-21 2 -39 5 -41 7 -2 2 10 18 27 34 17 17 23 20 12 7 -10 -12 -16 -24 -13 -27
3 -3 11 1 17 9 7 8 19 12 26 9 12 -4 12 1 -1 26 -16 31 -34 41 -34 19 0 -9 -4
-8 -10 2 -14 22 -12 33 4 27 8 -3 16 -1 18 5 3 7 10 8 17 4 11 -7 11 -10 0
-17 -11 -7 -10 -9 4 -9 9 0 17 6 17 14 0 8 7 17 16 20 8 3 12 2 9 -4 -9 -15 6
-60 20 -60 7 0 12 10 11 24 0 13 -4 22 -8 19 -5 -2 -8 -1 -8 4 0 7 54 38 73
42 4 0 7 -6 7 -15z m51 -24 c6 0 7 5 4 10 -4 6 10 10 33 10 26 0 42 -5 46 -15
3 -9 0 -15 -9 -15 -8 0 -15 5 -15 10 0 19 -22 10 -27 -11 -4 -16 -8 -17 -14
-7 -7 11 -9 11 -9 -1 0 -7 -6 -11 -14 -8 -10 4 -12 0 -8 -15 4 -18 6 -18 14
-4 5 9 13 14 18 11 5 -3 11 -1 14 4 4 5 20 8 37 6 29 -4 31 -2 25 20 -5 19 -3
23 9 19 8 -4 15 -10 15 -14 0 -4 11 -5 25 -2 25 4 35 -11 15 -23 -5 -3 -10 0
-10 7 0 7 -6 2 -13 -12 -7 -14 -21 -24 -30 -24 -13 1 -15 -4 -11 -21 3 -13 1
-26 -5 -29 -6 -4 -11 -1 -11 6 0 9 -3 9 -10 -2 -8 -12 -10 -12 -10 5 0 16 -2
17 -10 5 -7 -12 -12 -12 -21 -3 -10 10 -9 14 4 19 9 3 17 10 17 14 0 5 -12 3
-26 -5 -15 -7 -32 -11 -38 -9 -8 3 -11 -7 -8 -33 2 -29 1 -34 -7 -23 -6 8 -11
28 -11 44 0 21 -4 27 -15 22 -9 -3 -15 0 -15 10 0 9 5 13 13 9 6 -4 4 0 -5 8
-10 8 -18 20 -18 26 0 8 6 6 17 -4 15 -15 17 -15 25 -1 5 9 6 26 3 39 l-7 22
17 -22 c9 -13 21 -23 26 -23z m129 36 c0 -3 -4 -8 -10 -11 -5 -3 -10 -1 -10 4
0 6 5 11 10 11 6 0 10 -2 10 -4z m-381 -52 c2 -2 -7 -4 -22 -4 -14 0 -29 5
-32 10 -6 10 42 4 54 -6z m555 -15 c-2 -5 0 -18 6 -30 7 -11 9 -23 6 -27 -11
-10 -27 14 -32 47 -4 25 -2 30 10 25 9 -3 13 -10 10 -15z m-620 0 c-4 -8 1 -9
17 -5 24 7 24 7 4 -9 -11 -9 -19 -22 -17 -29 1 -7 -5 -13 -13 -13 -8 0 -15 4
-15 8 0 14 19 59 25 59 4 0 3 -5 -1 -11z m499 -19 c-6 -23 -23 -37 -23 -20 0
6 -4 9 -9 5 -5 -3 -13 0 -17 7 -4 7 -4 10 1 6 4 -4 14 -1 22 7 20 21 32 18 26
-5z m40 13 c-7 -2 -13 -12 -13 -20 0 -9 -3 -14 -6 -10 -10 10 4 37 18 36 10 0
10 -2 1 -6z m-668 -51 c0 -19 -5 -29 -15 -28 -25 2 -29 30 -6 42 12 7 21 12
21 13 1 1 1 -12 0 -27z m61 5 c8 3 14 -1 14 -8 0 -7 -3 -9 -7 -6 -3 4 -12 2
-20 -4 -10 -9 -13 -6 -12 12 0 13 3 19 5 12 3 -7 12 -9 20 -6z m105 -11 c5 3
9 0 9 -6 0 -15 -23 -7 -26 8 -1 7 0 8 3 2 2 -5 9 -8 14 -4z m484 4 c-4 -6 -11
-8 -16 -5 -5 4 -9 1 -9 -6 0 -7 -3 -10 -6 -6 -9 9 5 27 22 27 8 0 12 -5 9 -10z
m-788 -11 c-9 -6 -24 -25 -31 -42 -11 -24 -15 -27 -15 -12 -1 28 26 65 47 65
15 -1 15 -2 -1 -11z m263 -18 c0 -16 -29 -7 -33 10 -4 16 -2 17 14 8 10 -5 19
-13 19 -18z m-195 9 c3 -6 -1 -7 -9 -4 -18 7 -21 14 -7 14 6 0 13 -4 16 -10z
m2100 -23 c-4 9 -1 11 9 7 21 -8 20 -21 -2 -26 -11 -3 -23 2 -30 12 -15 24 -2
34 15 12 8 -9 12 -11 8 -5z m-2143 1 c-16 -16 -15 -45 1 -51 7 -4 6 -6 -4 -6
-25 -1 -32 29 -13 50 10 11 20 19 23 19 3 0 0 -5 -7 -12z m598 4 c0 -5 -7 -17
-15 -28 -14 -18 -14 -17 -4 9 12 27 19 34 19 19z m-525 -12 c3 -5 0 -7 -8 -4
-10 3 -18 -5 -25 -26 -6 -17 -7 -28 -3 -25 5 3 20 1 33 -4 12 -6 17 -10 11
-10 -7 -1 -13 -7 -13 -14 0 -8 -16 -27 -35 -43 -19 -16 -35 -33 -35 -39 0 -5
-15 -19 -33 -30 -45 -27 -56 -30 -30 -7 12 11 19 23 15 27 -4 5 -1 5 7 0 10
-5 12 -4 7 4 -4 6 0 14 8 17 9 3 13 10 10 15 -8 14 -24 10 -24 -6 0 -11 -7
-14 -25 -11 -21 4 -30 -1 -45 -26 -10 -18 -17 -35 -14 -40 3 -4 0 -8 -5 -8
-15 0 -14 23 1 38 6 6 9 14 5 18 -3 3 -18 -6 -32 -20 -32 -32 -38 -33 -29 -3
l6 22 -23 -20 c-54 -46 -65 -52 -39 -18 22 29 39 38 63 34 4 0 7 4 7 10 0 6 8
8 18 5 12 -4 27 3 42 19 22 24 47 25 33 2 -3 -7 3 -4 15 7 13 11 30 16 42 13
11 -3 20 -1 20 5 0 5 5 6 10 3 13 -8 40 13 40 30 0 9 -8 11 -22 7 -18 -4 -20
-2 -13 14 6 16 11 36 14 67 1 11 39 9 46 -3z m307 0 c5 0 2 -7 -6 -16 -9 -8
-16 -19 -16 -24 0 -5 -6 -7 -14 -4 -8 3 -13 13 -11 22 2 9 4 21 4 26 1 4 8 5
17 2 9 -3 20 -6 26 -6z m-176 -46 c-6 -7 -14 -10 -17 -8 -4 2 -12 -3 -19 -12
-10 -11 -10 -18 -2 -26 17 -17 15 -33 -2 -19 -11 9 -15 9 -19 -1 -3 -7 -6 1
-7 17 -1 26 -3 27 -10 10 -5 -11 -9 -14 -9 -7 -1 7 -5 11 -11 7 -5 -3 -6 -13
-3 -22 4 -11 3 -14 -5 -9 -17 11 -15 23 10 45 14 14 25 18 33 11 12 -10 54 29
56 53 0 6 4 3 8 -8 5 -11 3 -24 -3 -31z m624 36 c0 -5 -2 -10 -4 -10 -3 0 -8
5 -11 10 -3 6 -1 10 4 10 6 0 11 -4 11 -10z m-76 -24 c-3 -9 -10 -16 -15 -16
-5 0 -4 9 3 20 14 22 21 20 12 -4z m-604 5 c0 -5 -9 -11 -21 -14 -16 -4 -18
-3 -8 9 13 16 29 19 29 5z m644 -6 c-4 -8 -10 -15 -15 -15 -4 0 -6 7 -3 15 4
8 10 15 15 15 4 0 6 -7 3 -15z m1856 0 c11 -13 9 -15 -11 -12 -12 2 -25 9 -27
15 -5 17 23 15 38 -3z m-2680 -5 c0 -5 -5 -10 -11 -10 -5 0 -7 5 -4 10 3 6 8
10 11 10 2 0 4 -4 4 -10z m420 6 c0 -3 -4 -8 -10 -11 -5 -3 -10 -1 -10 4 0 6
5 11 10 11 6 0 10 -2 10 -4z m1787 -20 c15 -17 15 -18 2 -8 -9 7 -22 11 -29
10 -7 -2 -14 2 -17 8 -7 19 26 11 44 -10z m-2377 -1 c-7 -9 -15 -13 -17 -11
-7 7 7 26 19 26 6 0 6 -6 -2 -15z m100 -5 c0 -5 -5 -10 -11 -10 -5 0 -7 5 -4
10 3 6 8 10 11 10 2 0 4 -4 4 -10z m371 -9 c-15 -10 -8 -43 15 -66 22 -22 0
-18 -27 5 -13 10 -18 19 -12 20 9 0 10 7 3 26 -6 15 -6 23 -1 19 5 -3 13 0 16
6 4 5 10 8 13 4 4 -3 0 -10 -7 -14z m1859 0 c0 -4 -9 -7 -20 -7 -20 0 -25 7
-14 19 7 7 34 -2 34 -12z m88 -9 c-7 -10 -9 -14 -4 -10 4 4 18 3 30 -2 13 -4
29 -4 39 1 13 8 15 6 11 -6 -3 -8 -10 -13 -14 -10 -11 7 -26 -28 -29 -65 -1
-14 -6 -18 -18 -13 -13 5 -15 2 -11 -15 4 -12 2 -22 -4 -22 -5 0 -6 -5 -3 -11
5 -7 13 -5 24 5 13 12 20 13 29 4 7 -7 12 -8 12 -2 0 16 67 15 74 -1 4 -13 2
-13 -14 -5 -26 14 -26 14 -27 -25 -1 -19 3 -35 9 -35 5 0 7 -4 4 -9 -3 -5 2
-15 12 -22 9 -7 14 -9 10 -5 -4 5 0 15 9 21 15 11 19 9 28 -9 9 -17 7 -25 -12
-46 -25 -27 -29 -40 -13 -40 6 0 10 7 10 15 0 8 9 15 20 15 13 0 22 9 26 27 7
24 8 25 20 8 10 -14 11 -22 2 -32 -15 -19 -20 -64 -8 -78 7 -8 4 -12 -8 -13
-26 -1 -62 19 -62 35 0 8 -4 11 -10 8 -5 -3 -10 -1 -10 5 0 6 -4 8 -10 5 -5
-3 -10 -2 -10 3 0 6 7 13 16 16 24 9 5 28 -22 22 -14 -4 -24 -2 -24 4 0 5 7
10 15 10 8 0 15 7 15 15 0 8 -4 15 -10 15 -5 0 -7 7 -4 15 4 8 1 15 -5 15 -6
0 -11 -9 -11 -20 0 -11 -4 -20 -8 -20 -5 0 -17 9 -27 20 -10 11 -13 20 -7 20
7 0 11 6 10 13 -2 6 3 11 10 10 13 -3 16 9 5 20 -3 4 -13 -2 -20 -13 -12 -17
-21 -19 -51 -14 -67 11 -74 14 -61 30 6 7 9 21 5 29 -3 8 -2 15 3 15 11 0 21
49 11 55 -4 3 -10 14 -13 25 -4 16 -1 19 24 16 16 -2 27 -1 25 3 -7 12 14 52
24 46 8 -5 7 -12 -2 -23z m-1668 8 c0 -5 -2 -10 -4 -10 -3 0 -8 5 -11 10 -3 6
-1 10 4 10 6 0 11 -4 11 -10z m163 -11 c4 -3 2 -11 -5 -17 -10 -8 -13 -5 -14
15 -1 13 1 21 5 16 3 -4 10 -10 14 -14z m2001 -3 c14 -23 14 -25 -2 -28 -9 -2
-27 0 -39 5 -18 8 -20 13 -10 28 16 26 32 24 51 -5z m-2343 -9 c-10 -9 -11 -8
-5 6 3 10 9 15 12 12 3 -3 0 -11 -7 -18z m-583 -3 c-9 -10 -21 -13 -29 -8 -9
5 -8 9 7 15 31 12 39 10 22 -7z m553 7 c-11 -7 -10 -11 5 -21 14 -8 14 -10 3
-7 -9 3 -22 0 -29 -6 -7 -7 -11 -7 -8 -2 3 6 8 18 11 28 4 9 12 17 19 17 10 0
10 -2 -1 -9z m-411 -15 c0 -8 -8 -13 -17 -11 -10 2 -27 4 -38 5 -14 2 -11 5
10 10 44 11 45 11 45 -4z m564 -21 c-6 -16 -24 -21 -24 -7 0 11 11 22 21 22 5
0 6 -7 3 -15z m-734 1 c0 -2 -8 -10 -17 -17 -16 -13 -17 -12 -4 4 13 16 21 21
21 13z m977 -18 c2 -18 0 -20 -7 -8 -12 18 -13 30 -2 30 4 0 9 -10 9 -22z
m-1017 8 c0 -2 -8 -10 -17 -17 -16 -13 -17 -12 -4 4 13 16 21 21 21 13z m635
-6 c3 -5 1 -10 -4 -10 -6 0 -11 5 -11 10 0 6 2 10 4 10 3 0 8 -4 11 -10z
m1773 1 c10 -6 8 -10 -10 -14 -22 -6 -22 -7 -4 -20 11 -8 16 -21 13 -33 -4
-17 -5 -16 -6 4 0 12 -7 22 -15 22 -22 0 -30 19 -16 35 14 17 20 18 38 6z
m-1354 -16 c-4 -8 -11 -15 -16 -15 -6 0 -5 6 2 15 7 8 14 15 16 15 2 0 1 -7
-2 -15z m761 -20 c6 0 9 -8 7 -17 -4 -24 17 -70 28 -63 5 3 10 2 10 -4 0 -20
-22 -23 -41 -5 -10 9 -17 19 -15 22 7 6 -20 32 -32 32 -6 0 -8 -9 -5 -20 6
-21 -3 -25 -25 -11 -8 5 -11 17 -7 33 5 19 2 27 -11 32 -16 6 -16 8 2 20 16
12 23 12 49 -2 16 -9 35 -16 40 -17z m751 18 c0 -10 5 -18 13 -18 8 0 16 -6
19 -13 4 -12 0 -12 -19 -1 -13 7 -28 12 -32 11 -4 -1 -3 7 3 18 13 25 18 25
16 3z m-2534 -5 c-7 -7 -12 -20 -12 -30 0 -10 -4 -18 -10 -18 -5 0 -10 3 -10
8 0 11 30 52 38 52 3 0 1 -5 -6 -12z m471 -20 c-3 -15 -9 -25 -14 -23 -4 3 -3
17 3 30 14 31 18 28 11 -7z m-450 7 c-3 -9 -8 -14 -10 -11 -3 3 -2 9 2 15 9
16 15 13 8 -4z m401 -30 l17 -30 -20 24 c-12 13 -21 28 -21 34 0 12 0 11 24
-28z m1432 9 c-3 -9 -6 -20 -6 -25 0 -5 -4 -9 -10 -9 -5 0 -6 8 -3 17 5 13 2
15 -13 10 -19 -7 -19 -7 0 8 26 19 40 19 32 -1z m-196 -4 c0 -5 -2 -10 -4 -10
-3 0 -8 5 -11 10 -3 6 -1 10 4 10 6 0 11 -4 11 -10z m662 -12 c-6 -6 -16 -7
-22 -3 -9 6 -9 9 1 16 17 10 34 0 21 -13z m-2024 -24 c-4 -3 -12 5 -18 18 -12
22 -12 22 6 6 10 -10 15 -20 12 -24z m1574 4 c-9 -9 -12 -7 -12 12 0 19 3 21
12 12 9 -9 9 -15 0 -24z m-1640 0 c-4 -17 -2 -20 13 -14 14 5 16 4 6 -8 -12
-14 -61 -28 -61 -17 0 4 6 13 13 20 10 11 8 11 -13 2 -24 -11 -24 -11 -5 3 11
8 25 20 30 25 17 17 23 12 17 -11z m338 12 c0 -5 -5 -10 -11 -10 -5 0 -7 5 -4
10 3 6 8 10 11 10 2 0 4 -4 4 -10z m-594 -44 c-5 -40 18 -71 27 -36 3 11 13
20 23 20 15 0 15 -3 -6 -25 -21 -22 -25 -23 -49 -10 -24 12 -28 11 -53 -13
-19 -17 -28 -21 -28 -11 0 9 -3 10 -8 3 -8 -13 -92 -35 -92 -25 0 10 37 28 72
35 15 3 34 13 42 21 8 9 18 16 21 15 26 -1 33 2 30 18 -2 15 11 42 21 42 2 0
2 -16 0 -34z m757 19 c4 -8 2 -17 -3 -20 -6 -4 -10 3 -10 14 0 25 6 27 13 6z
m-679 -10 c-4 -8 -8 -15 -10 -15 -2 0 -4 7 -4 15 0 8 4 15 10 15 5 0 7 -7 4
-15z m426 0 c0 -8 -2 -15 -4 -15 -2 0 -6 7 -10 15 -3 8 -1 15 4 15 6 0 10 -7
10 -15z m160 12 c0 -2 -10 -12 -22 -23 l-23 -19 19 23 c18 21 26 27 26 19z
m-695 -16 c7 -12 -12 -24 -25 -16 -11 7 -4 25 10 25 5 0 11 -4 15 -9z m198
-25 c-10 -13 -20 -19 -22 -13 -2 5 4 16 15 24 26 19 27 16 7 -11z m367 14 c0
-5 -2 -10 -4 -10 -3 0 -8 5 -11 10 -3 6 -1 10 4 10 6 0 11 -4 11 -10z m190
-14 c0 -2 -8 -10 -17 -17 -16 -13 -17 -12 -4 4 13 16 21 21 21 13z m1140 -6
c0 -5 -5 -10 -11 -10 -5 0 -7 5 -4 10 3 6 8 10 11 10 2 0 4 -4 4 -10z m-1340
-10 c0 -5 -5 -10 -11 -10 -5 0 -7 5 -4 10 3 6 8 10 11 10 2 0 4 -4 4 -10z
m1805 0 c3 -5 2 -10 -4 -10 -5 0 -13 5 -16 10 -3 6 -2 10 4 10 5 0 13 -4 16
-10z m-1586 -32 c-8 -14 -14 -18 -17 -10 -4 13 17 46 25 38 3 -2 -1 -15 -8
-28z m1428 -40 c-3 -7 -5 -2 -5 12 0 14 2 19 5 13 2 -7 2 -19 0 -25z m801 -6
c-34 -35 -62 -103 -48 -112 6 -4 10 -11 9 -16 -6 -24 13 -40 41 -36 34 5 37
-3 12 -36 l-18 -23 -42 33 c-23 18 -44 43 -48 55 -9 31 27 103 70 141 44 39
62 35 24 -6z m-3044 3 c-9 -14 -19 -23 -22 -20 -5 4 26 45 35 45 2 0 -4 -11
-13 -25z m793 -7 c-3 -8 -6 -5 -6 6 -1 11 2 17 5 13 3 -3 4 -12 1 -19z m-776
-15 c-12 -20 -14 -14 -5 12 4 9 9 14 11 11 3 -2 0 -13 -6 -23z m3052 -17 c-19
-27 -42 -40 -52 -30 -3 3 9 19 27 36 39 34 53 31 25 -6z m-3108 -41 c-7 -11
-21 -22 -31 -24 -16 -3 -17 -1 -5 13 9 10 10 16 2 16 -6 0 -2 9 9 20 11 11 20
26 21 33 1 6 4 1 9 -13 4 -15 3 -33 -5 -45z m87 40 c3 -14 1 -25 -3 -25 -5 0
-9 11 -9 25 0 14 2 25 4 25 2 0 6 -11 8 -25z m-147 -5 c-3 -5 -11 -10 -16 -10
-6 0 -7 5 -4 10 3 6 11 10 16 10 6 0 7 -4 4 -10z m105 -20 c-6 -11 -13 -20
-15 -20 -3 0 -5 9 -5 20 0 11 7 20 15 20 13 0 14 -4 5 -20z m17 -24 c-3 -8 -1
-17 6 -20 7 -2 5 -5 -5 -5 -11 -1 -15 -7 -10 -23 3 -12 1 -19 -4 -15 -5 3 -14
-6 -21 -19 -12 -26 -5 -32 16 -11 10 10 11 8 5 -6 -4 -12 -14 -17 -25 -14 -12
3 -20 -2 -24 -13 -3 -10 -12 -21 -20 -24 -23 -8 -18 32 5 46 11 7 32 36 46 65
14 29 28 53 31 53 3 0 3 -6 0 -14z m2833 -10 c0 -8 -4 -18 -10 -21 -17 -11
-11 -23 9 -18 25 6 55 -35 39 -54 -12 -15 -42 -18 -33 -3 9 15 -17 38 -37 32
-14 -3 -17 0 -12 14 17 55 44 84 44 50z m-5866 -12 c3 -8 2 -12 -4 -9 -6 3
-10 10 -10 16 0 14 7 11 14 -7z m5235 -26 c0 -7 -4 -22 -9 -33 -7 -17 -9 -15
-9 13 -1 17 4 32 9 32 6 0 10 -6 9 -12z m-12 -80 c-3 -8 -6 -5 -6 6 -1 11 2
17 5 13 3 -3 4 -12 1 -19z m713 -36 c10 -38 13 -78 3 -54 -2 6 -9 10 -14 7 -5
-4 -6 1 -3 9 4 11 -3 19 -22 27 -27 10 -28 12 -11 23 9 7 17 19 17 25 0 24 19
0 30 -37z m-2984 -20 c-10 -16 -46 -21 -46 -7 0 8 10 15 23 17 26 4 31 2 23
-10z m64 -3 c0 -5 -4 -9 -10 -9 -5 0 -10 7 -10 16 0 8 5 12 10 9 6 -3 10 -10
10 -16z m2973 -82 c11 -9 18 -20 14 -23 -9 -9 -47 34 -46 54 0 13 2 14 6 2 4
-8 15 -23 26 -33z m-3043 -21 c0 -11 -19 -15 -25 -6 -3 5 1 10 9 10 9 0 16 -2
16 -4z m31 -41 c-5 -17 -10 -22 -10 -13 -1 9 -9 19 -18 21 -15 4 -15 6 4 12
13 4 20 12 16 19 -4 8 -3 8 5 1 8 -7 9 -20 3 -40z m-34 -27 c-3 -8 -6 -5 -6 6
-1 11 2 17 5 13 3 -3 4 -12 1 -19z m-2 -38 c-3 -5 -11 -10 -16 -10 -6 0 -7 5
-4 10 3 6 11 10 16 10 6 0 7 -4 4 -10z m3175 -19 c0 -10 -8 -17 -19 -17 -11 0
-18 3 -15 7 2 4 -4 10 -13 13 -14 6 -15 9 -4 15 20 12 51 1 51 -18z m50 -47
c0 -9 7 -22 15 -30 19 -20 19 -34 -1 -34 -8 0 -13 4 -10 8 3 5 -7 21 -21 36
-20 22 -23 30 -12 36 16 11 29 4 29 -16z m-70 -4 c0 -5 -4 -10 -10 -10 -5 0
-10 5 -10 10 0 6 5 10 10 10 6 0 10 -4 10 -10z m17 -42 c-3 -7 -5 -2 -5 12 0
14 2 19 5 13 2 -7 2 -19 0 -25z m-2783 -4 c3 -8 2 -12 -4 -9 -6 3 -10 10 -10
16 0 14 7 11 14 -7z m-406 -16 c-2 -6 -16 -12 -30 -14 -19 -2 -25 1 -22 11 10
24 60 27 52 3z m3307 12 c3 -5 1 -10 -4 -10 -6 0 -11 5 -11 10 0 6 2 10 4 10
3 0 8 -4 11 -10z m-3269 -62 c-2 -18 -4 -37 -5 -41 0 -5 -5 -6 -10 -2 -12 7
-33 -29 -23 -39 3 -4 -1 -4 -9 -1 -12 5 -18 -2 -22 -24 -4 -17 -12 -31 -18
-31 -6 0 -8 7 -5 16 3 9 6 22 6 30 0 8 8 22 18 32 9 9 22 28 29 42 9 19 12 20
12 8 1 -10 6 -18 12 -18 6 0 9 7 5 15 -5 14 2 45 10 45 2 0 2 -15 0 -32z m-46
12 c0 -5 -4 -10 -10 -10 -5 0 -10 5 -10 10 0 6 5 10 10 10 6 0 10 -4 10 -10z
m417 -96 c-3 -3 -12 -4 -19 -1 -8 3 -5 6 6 6 11 1 17 -2 13 -5z m3043 -34 c10
0 11 -3 3 -11 -14 -14 -73 9 -73 28 0 9 7 8 28 -3 15 -7 34 -14 42 -14z
m-2197 5 c-3 -9 -8 -14 -10 -11 -3 3 -2 9 2 15 9 16 15 13 8 -4z m-1313 -69
c0 -17 5 -37 12 -44 16 -16 17 -91 1 -85 -7 3 -26 -5 -43 -17 -17 -12 -34 -19
-37 -16 -10 10 39 56 60 56 16 0 18 5 12 33 -4 17 -14 45 -22 60 -15 30 -11
63 7 52 5 -3 10 -21 10 -39z m3520 24 c0 -5 -4 -10 -10 -10 -5 0 -10 5 -10 10
0 6 5 10 10 10 6 0 10 -4 10 -10z m-3450 -24 c0 -21 -21 -31 -31 -15 -14 22
-11 29 11 29 11 0 20 -6 20 -14z m247 -18 c-3 -8 -6 -5 -6 6 -1 11 2 17 5 13
3 -3 4 -12 1 -19z m-287 -8 c0 -5 -4 -10 -10 -10 -5 0 -10 5 -10 10 0 6 5 10
10 10 6 0 10 -4 10 -10z m4082 -30 c4 -27 3 -29 -10 -16 -8 8 -12 22 -9 30 9
23 14 20 19 -14z m97 -44 c-9 -8 -10 -7 -5 7 3 10 7 26 7 35 1 9 4 6 6 -7 3
-13 -1 -28 -8 -35z m-3989 34 c0 -5 -5 -10 -11 -10 -5 0 -7 5 -4 10 3 6 8 10
11 10 2 0 4 -4 4 -10z m465 -20 c-4 -12 -9 -19 -12 -17 -3 3 -2 15 2 27 4 12
9 19 12 17 3 -3 2 -15 -2 -27z m-615 16 c0 -3 -4 -8 -10 -11 -5 -3 -10 -1 -10
4 0 6 5 11 10 11 6 0 10 -2 10 -4z m3420 -46 c0 -5 -4 -10 -9 -10 -6 0 -13 5
-16 10 -3 6 1 10 9 10 9 0 16 -4 16 -10z m-2333 -22 c-3 -8 -6 -5 -6 6 -1 11
2 17 5 13 3 -3 4 -12 1 -19z m2829 -8 c3 0 14 4 24 10 15 8 20 6 25 -10 3 -11
14 -20 24 -20 26 0 213 -210 207 -232 -2 -10 1 -21 6 -24 7 -4 4 -10 -6 -16
-9 -5 -16 -18 -16 -29 0 -11 -4 -17 -10 -14 -5 3 -9 -2 -8 -12 0 -10 0 -29 -1
-43 -1 -20 -3 -22 -11 -10 -5 8 -12 11 -16 7 -4 -4 -2 -13 4 -19 17 -17 15
-65 -2 -71 -8 -3 -17 -1 -19 6 -2 7 -3 4 -2 -5 3 -20 -3 -22 -24 -9 -9 6 -10
11 -2 15 6 4 11 12 11 17 0 6 -4 7 -10 4 -5 -3 -10 1 -10 9 0 19 20 32 21 14
0 -10 2 -10 6 0 2 6 9 10 14 6 5 -3 9 -1 9 5 0 5 -4 13 -10 16 -5 3 -10 1 -10
-6 0 -9 -4 -9 -15 1 -8 6 -19 9 -24 5 -7 -3 -8 0 -5 9 3 9 2 16 -4 16 -6 0 -9
11 -7 25 2 23 -6 30 -28 26 -5 -1 -6 3 -2 9 3 5 0 12 -7 15 -8 3 -15 18 -16
33 -1 15 -7 29 -12 30 -6 2 -10 11 -10 21 0 9 -9 27 -19 38 -11 12 -17 23 -15
26 3 3 0 16 -7 29 -7 12 -12 29 -10 36 1 8 -5 23 -15 33 -9 11 -14 22 -11 26
4 3 -1 15 -10 25 -15 17 -15 20 -3 28 11 7 16 5 18 -5 2 -8 6 -15 8 -15z
m-2863 6 c3 -8 -1 -22 -8 -33 -12 -16 -14 -15 -13 15 1 33 12 43 21 18z m-893
-5 c0 -5 -9 -11 -21 -14 -16 -4 -18 -3 -8 9 13 16 29 19 29 5z m60 -11 c0 -11
-4 -20 -10 -20 -5 0 -10 9 -10 20 0 11 5 20 10 20 6 0 10 -9 10 -20z m-266 -8
c2 -4 -2 -23 -11 -42 -12 -30 -16 -32 -24 -18 -15 27 18 86 35 60z m707 -29
c-8 -15 -10 -15 -11 -2 0 17 10 32 18 25 2 -3 -1 -13 -7 -23z m-56 -1 c6 -4
11 -20 12 -37 1 -16 -1 -22 -3 -13 -3 9 -11 15 -18 12 -15 -6 -30 22 -20 37 6
11 15 11 29 1z m-394 -49 c-12 -20 -14 -14 -5 12 4 9 9 14 11 11 3 -2 0 -13
-6 -23z m-332 -13 c-12 -34 -39 -41 -39 -10 0 17 14 29 47 39 1 1 -3 -12 -8
-29z m391 -20 c-7 -4 -12 -20 -12 -35 0 -18 -3 -23 -9 -14 -4 7 -1 28 7 47 8
19 15 37 15 41 1 3 3 -2 6 -13 3 -10 -1 -22 -7 -26z m-343 -14 c1 -32 -2 -43
-11 -40 -7 3 -18 -5 -24 -18 -9 -20 -11 -18 -11 25 -1 26 3 47 9 47 5 0 7 7 4
15 -4 10 0 15 12 15 15 0 19 -8 21 -44z m553 24 c8 -5 11 -10 5 -10 -5 0 -17
5 -25 10 -8 5 -10 10 -5 10 6 0 17 -5 25 -10z m-60 -24 c0 -2 -7 -9 -15 -16
-13 -11 -14 -10 -9 4 5 14 24 23 24 12z m87 -58 c-3 -8 -6 -5 -6 6 -1 11 2 17
5 13 3 -3 4 -12 1 -19z m-173 -44 c3 -8 2 -12 -4 -9 -6 3 -10 10 -10 16 0 14
7 11 14 -7z m-279 -114 c-3 -5 -11 -10 -16 -10 -6 0 -7 5 -4 10 3 6 11 10 16
10 6 0 7 -4 4 -10z m15 -67 c0 -10 -4 -14 -8 -8 -4 6 -11 13 -16 18 -5 4 -2 7
7 7 10 0 17 -8 17 -17z m-80 -3 c0 -5 -2 -10 -4 -10 -3 0 -8 5 -11 10 -3 6 -1
10 4 10 6 0 11 -4 11 -10z m410 6 c0 -3 -4 -8 -10 -11 -5 -3 -10 -1 -10 4 0 6
5 11 10 11 6 0 10 -2 10 -4z m345 -26 c3 -5 1 -10 -4 -10 -6 0 -11 5 -11 10 0
6 2 10 4 10 3 0 8 -4 11 -10z m5 -52 c0 -12 -3 -18 -7 -15 -3 4 -11 3 -18 -3
-7 -6 -17 -2 -29 12 -12 13 -14 19 -5 16 8 -3 23 -2 34 3 11 4 21 8 23 8 1 1
2 -9 2 -21z m-253 -42 c3 -26 10 -31 28 -16 9 8 15 8 15 2 0 -16 -40 -41 -56
-35 -10 4 -11 10 -4 23 13 24 13 33 0 25 -6 -4 -7 1 -3 11 5 13 2 16 -9 11
-12 -4 -14 -1 -11 13 5 17 6 17 22 2 9 -10 17 -25 18 -36z m528 33 c-3 -4 -12
-6 -20 -3 -8 4 -13 10 -10 15 3 4 12 6 20 3 8 -4 13 -10 10 -15z m3120 -7 c-9
-2 -13 -8 -10 -13 4 -5 1 -9 -4 -9 -6 0 -11 5 -11 11 0 5 -6 7 -12 4 -7 -4 -2
3 11 15 19 16 26 18 32 8 6 -8 3 -14 -6 -16z m-3395 -25 c0 -7 5 -5 10 3 8 13
10 13 10 -2 0 -9 -5 -20 -11 -24 -6 -3 -9 -15 -6 -25 3 -10 1 -22 -4 -25 -5
-3 -9 -11 -8 -17 0 -9 2 -9 6 1 2 6 11 12 19 12 19 0 18 -36 -1 -44 -8 -3 -15
-1 -15 4 0 6 -7 10 -15 10 -8 0 -15 6 -16 13 -1 22 -9 61 -14 65 -2 3 -11 -1
-20 -8 -12 -10 -15 -10 -15 4 0 10 5 14 10 11 13 -8 13 8 1 21 -6 5 5 10 30
11 23 0 39 -3 39 -10z m266 -3 c-18 -17 -23 -18 -23 -1 0 7 9 14 19 14 16 2
16 0 4 -13z m-956 -1 c0 -5 -5 -15 -10 -23 -8 -12 -10 -11 -10 8 0 12 5 22 10
22 6 0 10 -3 10 -7z m756 -2 c-3 -5 1 -14 9 -21 10 -9 12 -17 5 -30 -9 -17 -4
-30 12 -30 5 0 6 5 3 10 -3 6 2 10 12 10 25 0 50 -40 32 -51 -8 -4 -11 -10 -9
-13 3 -2 16 4 29 15 28 23 39 79 16 79 -8 0 -15 -7 -15 -15 0 -8 -5 -15 -11
-15 -18 0 -4 24 22 37 20 11 26 10 35 -2 7 -9 19 -13 28 -9 11 4 16 1 16 -11
0 -14 3 -15 14 -5 8 6 12 19 9 28 -4 15 -3 15 6 2 9 -12 14 -13 31 -2 19 12
20 11 8 -8 -7 -11 -18 -18 -25 -16 -9 4 -12 -8 -9 -41 2 -34 7 -47 19 -49 9
-1 15 3 14 9 -1 6 7 12 18 13 14 1 21 -5 21 -18 0 -11 -5 -16 -13 -14 -10 4
-10 1 0 -15 10 -17 13 -17 23 -4 15 21 21 19 28 -10 8 -30 22 -33 29 -5 5 20
30 26 60 14 11 -4 13 -13 7 -40 -4 -19 -4 -34 0 -34 5 0 6 -10 3 -22 -3 -13
-1 -19 4 -13 15 19 31 14 35 -9 4 -17 1 -23 -9 -19 -7 3 -13 0 -13 -6 0 -19
32 -12 37 9 3 12 14 20 27 20 12 0 27 5 34 10 6 6 10 7 7 4 -2 -4 0 -15 6 -26
5 -10 6 -24 2 -31 -13 -22 -12 -37 5 -37 13 0 13 -3 4 -12 -10 -10 -15 -10
-22 2 -9 13 -11 13 -20 0 -5 -8 -10 -10 -10 -5 0 6 -5 3 -10 -5 -8 -13 -11
-11 -16 8 -4 12 -13 22 -21 22 -10 0 -11 -4 -3 -19 13 -25 13 -31 0 -31 -6 0
-9 3 -8 8 4 13 -13 52 -22 52 -5 0 -6 -8 -3 -17 6 -15 4 -16 -8 -6 -9 7 -20 8
-29 3 -9 -5 -18 -4 -24 6 -12 15 -60 8 -50 -7 3 -5 0 -9 -6 -9 -7 0 -10 -7 -6
-15 3 -8 2 -14 -2 -14 -20 3 -30 -3 -35 -21 -3 -13 -10 -18 -21 -14 -21 8 -20
24 2 25 14 0 14 2 -3 8 -11 5 -23 7 -26 5 -3 -2 -12 8 -19 22 -9 15 -19 23
-28 19 -8 -3 -26 2 -40 11 -18 12 -26 13 -32 4 -5 -8 -9 -6 -14 7 -8 20 -5 29
7 26 11 -4 8 15 -4 22 -6 4 -16 -1 -24 -11 -12 -17 -13 -15 -11 13 2 18 7 38
13 45 13 18 11 63 -4 61 -7 -2 -10 6 -8 17 2 12 0 18 -6 15 -5 -4 -9 -1 -9 5
0 6 -4 8 -10 5 -5 -3 -10 -2 -10 3 0 6 7 12 15 16 22 8 18 26 -6 26 -11 0 -18
-4 -15 -9 3 -4 -5 -6 -18 -4 -26 5 -44 43 -20 43 11 0 12 4 2 19 -9 15 -9 23
1 35 14 17 26 22 17 7z m-737 -50 c-9 -26 -39 -63 -39 -48 0 13 25 62 35 69
15 11 15 11 4 -21z m801 19 c0 -5 -7 -10 -15 -10 -8 0 -15 5 -15 10 0 6 7 10
15 10 8 0 15 -4 15 -10z m3305 0 c3 -5 1 -10 -6 -10 -7 0 -5 -8 7 -19 14 -14
23 -16 34 -8 12 9 13 9 3 -3 -16 -17 -63 -23 -60 -7 1 7 -5 11 -13 9 -11 -3
-11 1 3 16 9 10 14 22 10 25 -3 4 -1 7 5 7 6 0 14 -4 17 -10z m-4225 -60 c0
-5 -4 -10 -10 -10 -5 0 -10 5 -10 10 0 6 5 10 10 10 6 0 10 -4 10 -10z m4174
1 c3 -5 -1 -11 -9 -14 -9 -4 -12 -1 -8 9 6 16 10 17 17 5z m-2874 -20 c0 -6
-4 -12 -8 -15 -5 -3 -9 1 -9 9 0 8 4 15 9 15 4 0 8 -4 8 -9z m-1170 -26 c0 -8
-4 -15 -10 -15 -5 0 -10 7 -10 15 0 8 5 15 10 15 6 0 10 -7 10 -15z m4376 -52
c11 -23 16 -39 10 -36 -6 4 -5 -1 3 -10 11 -14 11 -20 0 -34 -12 -14 -12 -16
0 -8 10 5 12 4 7 -3 -11 -18 -22 -15 -50 13 -22 22 -23 26 -10 40 14 13 14 15
-1 15 -20 0 -36 40 -21 56 20 22 41 11 62 -33z m-4281 -25 c-8 -39 -45 -84
-45 -55 0 9 5 17 10 17 6 0 10 7 10 15 0 8 -4 15 -10 15 -5 0 -10 7 -10 15 0
8 5 15 11 15 5 0 8 -4 4 -9 -3 -5 0 -13 6 -16 6 -4 13 2 16 14 9 34 15 24 8
-11z m1128 17 c-3 -9 -8 -14 -10 -11 -3 3 -2 9 2 15 9 16 15 13 8 -4z m17 -60
c0 -8 -4 -15 -9 -15 -5 0 -11 7 -15 15 -3 9 0 15 9 15 8 0 15 -7 15 -15z
m1990 -45 c0 -5 -4 -10 -10 -10 -5 0 -10 5 -10 10 0 6 5 10 10 10 6 0 10 -4
10 -10z m670 -10 c0 -5 -2 -10 -4 -10 -3 0 -8 5 -11 10 -3 6 -1 10 4 10 6 0
11 -4 11 -10z m487 -29 c-2 -27 -18 -35 -34 -16 -4 4 -2 5 5 1 12 -7 16 3 12
38 -1 10 3 15 9 12 5 -4 9 -19 8 -35z m408 -19 c28 -9 48 -19 45 -22 -2 -3 4
-19 15 -37 16 -28 53 -55 80 -58 14 -1 45 35 51 62 5 19 12 22 44 20 21 -1 38
-6 37 -11 -1 -5 14 -11 32 -13 34 -4 64 -30 55 -45 -3 -5 -1 -8 4 -8 6 0 12 7
16 15 3 8 2 15 -3 15 -4 0 -6 11 -3 25 2 14 10 25 16 25 21 0 254 -157 265
-178 19 -35 13 -69 -15 -91 -27 -22 -60 -29 -49 -11 8 13 -6 13 -25 0 -13 -9
-13 -12 1 -23 9 -6 14 -18 12 -24 -3 -7 0 -13 6 -13 6 0 8 -7 5 -15 -4 -9 0
-15 7 -15 11 0 11 -3 -1 -10 -9 -6 -10 -10 -3 -10 6 0 14 -13 18 -30 4 -16 10
-30 14 -30 11 0 30 -69 21 -75 -21 -13 -114 48 -256 167 -125 104 -306 236
-366 267 -60 30 -96 68 -104 109 -8 38 3 40 81 14z m-4745 -6 c0 -21 -20 -30
-33 -17 -9 9 -8 14 3 21 21 14 30 12 30 -4z m1017 -28 c-3 -8 -6 -5 -6 6 -1
11 2 17 5 13 3 -3 4 -12 1 -19z m2523 -14 c0 -3 -6 -2 -12 2 -7 4 -3 -3 9 -15
12 -11 20 -27 17 -35 -3 -7 1 -16 9 -19 8 -3 18 -25 22 -49 10 -58 11 -66 13
-115 2 -53 19 -56 29 -5 10 49 10 56 2 62 -4 3 -10 29 -14 59 -6 47 -5 53 9
48 9 -4 16 -2 16 3 0 14 86 -19 105 -40 10 -11 18 -32 19 -47 1 -15 5 -33 9
-40 4 -6 2 -15 -4 -18 -5 -4 -8 -13 -5 -21 7 -19 -23 -18 -45 2 -17 15 -19 14
-25 -12 -5 -18 -3 -29 4 -32 7 -2 10 -8 6 -13 -3 -5 -1 -9 4 -9 6 0 9 -6 8
-12 0 -7 3 -14 8 -15 5 0 13 -8 18 -17 5 -9 13 -14 19 -11 8 6 15 -28 9 -50
-2 -5 -4 -34 -5 -63 -2 -30 -7 -58 -13 -64 -12 -12 -35 -1 -26 13 3 6 -4 7
-20 3 -18 -4 -35 1 -58 17 -40 27 -106 98 -114 122 -3 9 -10 17 -15 17 -5 0
-9 7 -9 15 0 8 -9 31 -19 52 -11 21 -22 60 -25 87 -3 29 -12 53 -20 58 -21 12
-5 88 18 88 8 0 14 11 14 25 0 37 20 57 43 44 10 -5 19 -12 19 -15z m448 -102
c28 -66 28 -228 0 -243 -12 -7 -18 -6 -18 2 0 6 -7 9 -15 5 -8 -3 -16 -1 -16
4 -1 6 -2 16 -3 23 -1 6 6 20 15 29 18 18 18 48 -1 138 -21 101 -21 111 -1
100 10 -5 28 -31 39 -58z m-4178 -42 c0 -12 -3 -12 -16 2 -9 9 -13 21 -9 28 9
14 25 -5 25 -30z m1800 -20 c0 -5 -5 -10 -11 -10 -5 0 -7 5 -4 10 3 6 8 10 11
10 2 0 4 -4 4 -10z m2131 -94 c5 3 9 -4 9 -15 0 -12 -4 -21 -9 -21 -10 0 -21
25 -20 43 0 8 2 8 6 -1 2 -6 9 -10 14 -6z m23 -62 c3 -8 2 -12 -4 -9 -6 3 -10
10 -10 16 0 14 7 11 14 -7z m226 -48 c0 -2 -7 -6 -15 -10 -8 -3 -15 -1 -15 4
0 6 7 10 15 10 8 0 15 -2 15 -4z m1794 -57 c-5 -9 8 -13 36 -10 9 1 11 -1 5
-6 -13 -10 -16 -43 -3 -43 5 0 7 -4 3 -9 -3 -5 4 -13 16 -16 20 -7 20 -7 -6
-21 -15 -8 -36 -14 -46 -14 -25 0 -24 -20 1 -27 11 -3 20 -11 20 -18 0 -7 6
-15 13 -18 14 -5 39 6 38 17 -3 23 0 30 8 17 7 -11 11 -10 20 5 6 11 11 15 11
10 0 -5 7 -2 17 5 15 13 16 10 10 -26 -4 -22 -10 -50 -13 -61 -4 -14 0 -23 10
-27 10 -4 16 -1 16 7 0 8 11 21 25 30 22 14 25 14 33 0 8 -14 12 -14 43 3 39
22 74 19 65 -4 -5 -12 -1 -14 19 -10 16 2 32 -2 41 -10 8 -8 21 -12 29 -9 18
7 84 -16 85 -29 0 -5 6 -10 12 -10 7 0 14 -8 16 -18 2 -10 0 -16 -5 -15 -10 4
-13 -5 -13 -32 0 -19 3 -18 41 9 38 28 42 29 73 16 19 -8 37 -11 41 -7 4 4 5
-3 2 -16 -3 -12 -1 -20 4 -16 5 3 9 1 9 -5 0 -5 -6 -12 -12 -14 -7 -3 1 -4 17
-2 40 3 75 -14 75 -36 0 -27 20 -34 21 -7 0 13 3 17 6 11 2 -7 4 -15 4 -18 -2
-11 24 -33 29 -25 3 5 17 11 32 14 21 3 28 -1 38 -24 6 -15 23 -33 36 -39 20
-9 24 -16 19 -34 -4 -16 -4 -18 3 -8 8 11 11 10 16 -7 13 -40 74 -33 63 7 -3
12 -1 21 4 21 5 0 9 -7 9 -15 0 -8 4 -15 9 -15 5 0 7 9 4 19 -8 31 30 19 42
-13 11 -33 -7 -49 -42 -35 -14 5 -23 5 -23 -1 0 -6 5 -10 12 -10 6 0 8 -3 5
-6 -4 -4 -13 -1 -22 6 -12 10 -15 10 -16 -1 0 -10 -2 -11 -6 -1 -8 21 -21 13
-16 -10 4 -18 2 -20 -6 -8 -8 12 -11 12 -17 -4 -5 -14 -9 -15 -15 -4 -6 8 -9
9 -9 1 0 -13 -111 -11 -144 3 -13 5 -17 4 -13 -3 5 -7 0 -9 -13 -6 -13 3 -20
0 -20 -8 0 -10 -3 -11 -8 -3 -4 7 -16 12 -27 12 -55 -1 -65 2 -65 23 0 16 -5
20 -20 16 -11 -3 -22 -1 -25 3 -3 5 -13 8 -23 7 -44 -3 -162 81 -162 115 0 6
3 8 7 5 7 -8 33 11 33 24 0 5 -10 4 -23 -2 -30 -13 -97 16 -157 71 -38 33 -84
63 -116 73 -4 1 -8 -5 -9 -13 -2 -8 -8 -35 -15 -60 -24 -88 -33 -193 -19 -222
6 -11 4 -18 -6 -22 -8 -3 -15 -15 -15 -26 0 -11 -4 -20 -10 -20 -5 0 -10 5
-10 11 0 5 -4 8 -9 4 -5 -3 -18 5 -28 17 -10 13 -29 24 -43 26 -14 1 -26 7
-28 12 -2 6 -9 10 -17 10 -14 0 -115 106 -115 121 0 5 -3 9 -7 9 -5 0 -8 -19
-9 -43 -1 -70 -10 -91 -43 -104 -26 -9 -34 -8 -53 7 -13 9 -36 24 -53 33 -51
26 -113 90 -140 144 -14 28 -34 55 -45 58 -11 4 -20 11 -20 17 0 5 -27 37 -60
69 -46 45 -56 59 -41 59 27 0 91 -38 118 -69 21 -24 22 -25 23 -5 0 40 24 57
101 70 71 12 76 12 128 -12 29 -13 57 -24 61 -24 4 0 10 32 14 71 6 69 27 119
50 119 7 0 27 -11 46 -25 40 -29 44 -30 36 -9 -6 15 -4 15 10 3 16 -13 16 -12
6 7 -9 17 -10 47 -3 85 0 3 12 4 26 1 14 -2 22 -8 19 -13z m-1897 -34 c0 -8
-4 -15 -9 -15 -6 0 -8 6 -5 13 2 6 -3 21 -12 32 -16 20 -16 20 5 2 11 -9 21
-24 21 -32z m1331 21 c61 -39 92 -73 92 -101 0 -15 5 -35 10 -46 9 -16 7 -21
-12 -27 -36 -13 -133 0 -134 18 -1 8 -2 30 -3 48 -1 19 -10 41 -23 54 -31 31
-33 57 -5 68 32 13 34 12 75 -14z m666 -27 c-8 -13 -24 -1 -24 18 0 13 3 13
15 3 8 -7 12 -16 9 -21z m-6997 -31 c-3 -8 -6 -5 -6 6 -1 11 2 17 5 13 3 -3 4
-12 1 -19z m5063 1 c0 -5 -5 -9 -11 -9 -5 0 -7 -4 -4 -10 3 -6 -1 -7 -9 -4
-25 9 -21 43 4 37 11 -3 20 -9 20 -14z m-1080 -39 c0 -5 -2 -10 -4 -10 -3 0
-8 5 -11 10 -3 6 -1 10 4 10 6 0 11 -4 11 -10z m-1640 -52 c0 -13 -23 -5 -28
10 -2 7 2 10 12 6 9 -3 16 -11 16 -16z m1107 -30 c-3 -8 -6 -5 -6 6 -1 11 2
17 5 13 3 -3 4 -12 1 -19z m-38 -11 c0 -9 -2 -8 -6 1 -2 6 -10 9 -15 6 -7 -4
-8 -2 -4 5 9 13 26 5 25 -12z m2579 -57 c25 -22 56 -43 69 -46 12 -4 20 -10
17 -15 -3 -5 2 -12 10 -15 9 -3 13 -11 9 -17 -12 -20 -10 -46 3 -51 7 -3 16 4
19 15 10 30 30 17 33 -20 2 -20 -1 -31 -6 -27 -21 13 -42 -6 -37 -33 l4 -26
-19 25 c-10 13 -16 28 -14 32 3 4 3 8 0 8 -3 0 -14 -17 -25 -38 -14 -28 -26
-38 -47 -40 -31 -2 -74 22 -74 41 0 7 -8 22 -17 33 -40 44 -59 81 -62 118 -2
33 2 42 31 67 18 15 39 28 46 29 8 0 34 -18 60 -40z m-3358 -579 c0 -6 -4 -13
-10 -16 -5 -3 -10 1 -10 9 0 9 5 16 10 16 6 0 10 -4 10 -9z m5490 -30 c0 -14
2 -14 9 -2 8 12 11 9 17 -13 5 -20 9 -24 15 -14 9 13 10 6 13 -49 1 -22 -52
-25 -65 -3 -9 13 -10 12 -5 -2 3 -11 0 -18 -7 -18 -17 0 -117 70 -117 83 0 5
-8 16 -17 23 -16 12 -15 14 12 15 17 1 45 1 63 1 17 -1 32 3 32 8 0 6 10 5 25
-2 14 -6 25 -18 25 -27z m-5460 -72 c0 -5 -4 -9 -10 -9 -5 0 -10 7 -10 16 0 8
5 12 10 9 6 -3 10 -10 10 -16z"/>
<path d="M6241 5944 c0 -11 3 -14 6 -6 3 7 2 16 -1 19 -3 4 -6 -2 -5 -13z"/>
<path d="M6837 5886 c-3 -8 0 -17 8 -20 9 -3 13 2 12 15 -2 22 -13 25 -20 5z"/>
<path d="M6150 5851 c0 -7 -5 -9 -12 -5 -7 5 -8 3 -3 -5 5 -9 10 -10 18 -2 6
6 8 14 4 18 -4 3 -7 1 -7 -6z"/>
<path d="M6166 5814 c-5 -14 -4 -15 9 -4 17 14 19 20 6 20 -5 0 -12 -7 -15
-16z"/>
<path d="M6886 5822 c-2 -4 -1 -14 4 -22 7 -11 9 -9 7 8 -1 24 -3 26 -11 14z"/>
<path d="M6131 5784 c0 -11 3 -14 6 -6 3 7 2 16 -1 19 -3 4 -6 -2 -5 -13z"/>
<path d="M6948 5520 c-20 -4 -47 -13 -60 -22 -24 -15 -118 -48 -139 -48 -28 0
-141 -111 -127 -125 4 -5 45 6 88 23 8 3 17 6 20 7 7 2 36 14 96 36 28 11 72
41 99 67 27 25 55 47 63 49 8 1 18 5 23 10 11 11 -14 12 -63 3z"/>
<path d="M5154 5907 c-4 -12 16 -42 71 -102 70 -77 105 -100 119 -77 3 5 -37
51 -89 102 -75 74 -96 90 -101 77z"/>
<path d="M5290 5550 c0 -5 5 -10 10 -10 6 0 10 5 10 10 0 6 -4 10 -10 10 -5 0
-10 -4 -10 -10z"/>
<path d="M5069 5450 c-13 -43 9 -72 37 -49 8 6 25 9 38 7 14 -3 31 -1 38 3 10
6 8 9 -7 10 -61 4 -88 11 -97 24 -4 6 -8 8 -9 5z"/>
<path d="M5263 5399 c-15 -15 -76 -20 -113 -9 -18 5 -30 5 -30 -1 0 -5 11 -9
24 -9 30 0 43 -17 26 -33 -10 -9 -11 -9 -5 3 8 13 7 13 -10 0 -18 -14 -17 -15
5 -18 15 -3 30 3 40 15 15 17 34 24 75 25 11 0 14 2 7 5 -10 4 -10 8 -1 19 13
16 -2 19 -18 3z"/>
<path d="M5312 5397 c-9 -10 -6 -13 13 -12 13 0 27 4 31 8 5 4 0 5 -10 1 -14
-5 -17 -4 -12 4 10 16 -9 15 -22 -1z"/>
<path d="M5417 5369 c4 -13 8 -18 11 -10 2 7 -1 18 -6 23 -8 8 -9 4 -5 -13z"/>
<path d="M4831 5361 c-10 -6 -10 -10 -1 -16 6 -4 9 -13 6 -21 -4 -9 8 -7 39 8
25 12 43 24 40 26 -8 8 -72 10 -84 3z"/>
<path d="M5390 5345 c7 -8 16 -15 21 -15 5 0 6 7 3 15 -4 8 -13 15 -21 15 -13
0 -13 -3 -3 -15z"/>
<path d="M5645 5349 c-4 -6 -5 -12 -2 -15 2 -3 7 2 10 11 7 17 1 20 -8 4z"/>
<path d="M4885 5289 c-4 -6 -4 -13 -1 -16 3 -4 6 -1 6 6 0 7 5 9 12 5 7 -4 8
-3 4 4 -9 15 -13 15 -21 1z"/>
<path d="M5645 5269 c-11 -16 -1 -19 13 -3 7 8 8 14 3 14 -5 0 -13 -5 -16 -11z"/>
<path d="M5077 5203 c-4 -3 -7 -11 -7 -17 0 -6 5 -5 12 2 6 6 9 14 7 17 -3 3
-9 2 -12 -2z"/>
<path d="M5235 5140 c3 -5 10 -10 16 -10 5 0 9 5 9 10 0 6 -7 10 -16 10 -8 0
-12 -4 -9 -10z"/>
<path d="M5220 5050 c-9 -6 -10 -10 -3 -10 6 0 15 5 18 10 8 12 4 12 -15 0z"/>
<path d="M5710 5006 c0 -2 8 -10 18 -17 15 -13 16 -12 3 4 -13 16 -21 21 -21
13z"/>
<path d="M5615 4970 c3 -5 8 -10 11 -10 2 0 4 5 4 10 0 6 -5 10 -11 10 -5 0
-7 -4 -4 -10z"/>
<path d="M5960 4929 c0 -5 5 -7 10 -4 6 3 10 8 10 11 0 2 -4 4 -10 4 -5 0 -10
-5 -10 -11z"/>
<path d="M5830 4695 c-13 -14 -19 -25 -13 -25 12 0 48 38 41 45 -2 3 -15 -6
-28 -20z"/>
<path d="M5260 4685 c-7 -9 -10 -18 -6 -22 3 -3 6 -1 6 6 0 7 4 10 8 7 5 -3 9
1 9 9 0 19 -2 19 -17 0z"/>
<path d="M5774 4907 c-16 -19 -27 -38 -52 -89 -2 -5 -1 -8 1 -8 6 0 63 83 70
103 8 23 5 22 -19 -6z"/>
<path d="M5810 4915 c-7 -9 -10 -18 -7 -21 3 -3 10 4 17 15 13 25 8 27 -10 6z"/>
<path d="M5670 4795 c-7 -9 -8 -15 -2 -15 5 0 12 7 16 15 3 8 4 15 2 15 -2 0
-9 -7 -16 -15z"/>
<path d="M5665 4740 c-3 -5 -1 -10 4 -10 6 0 11 5 11 10 0 6 -2 10 -4 10 -3 0
-8 -4 -11 -10z"/>
<path d="M5642 4470 c7 -11 16 -20 21 -20 4 0 3 9 -3 20 -6 11 -15 20 -20 20
-6 0 -5 -9 2 -20z"/>
<path d="M4170 4169 c0 -4 27 -7 60 -7 33 0 60 3 60 7 0 4 -27 7 -60 6 -33 0
-60 -3 -60 -6z"/>
<path d="M8205 4069 c-4 -6 -5 -12 -2 -15 2 -3 7 2 10 11 7 17 1 20 -8 4z"/>
<path d="M5635 3749 c-9 -14 -2 -20 14 -10 8 6 9 11 3 15 -6 3 -14 1 -17 -5z"/>
<path d="M5586 3684 c-4 -9 -4 -19 -1 -22 3 -3 5 0 5 7 0 7 5 9 10 6 6 -3 10
1 10 9 0 21 -16 20 -24 0z"/>
<path d="M5576 3627 c3 -10 9 -15 12 -12 3 3 0 11 -7 18 -10 9 -11 8 -5 -6z"/>
<path d="M5765 3520 c-3 -5 -1 -10 4 -10 6 0 11 5 11 10 0 6 -2 10 -4 10 -3 0
-8 -4 -11 -10z"/>
<path d="M5810 3420 c0 -5 5 -10 11 -10 5 0 7 5 4 10 -3 6 -8 10 -11 10 -2 0
-4 -4 -4 -10z"/>
<path d="M7066 2132 c-3 -5 1 -9 9 -9 8 0 12 4 9 9 -3 4 -7 8 -9 8 -2 0 -6 -4
-9 -8z"/>
<path d="M3710 1930 c0 -13 5 -18 14 -14 8 3 12 12 9 20 -8 21 -23 17 -23 -6z"/>
<path d="M4068 1663 c7 -3 16 -2 19 1 4 3 -2 6 -13 5 -11 0 -14 -3 -6 -6z"/>
<path d="M4155 1660 c-3 -5 -1 -10 4 -10 6 0 11 5 11 10 0 6 -2 10 -4 10 -3 0
-8 -4 -11 -10z"/>
<path d="M3967 1643 c-4 -6 0 -13 8 -17 8 -3 17 0 21 6 4 6 3 8 -4 4 -5 -3
-12 -1 -14 6 -3 8 -6 9 -11 1z"/>
<path d="M4301 1634 c0 -11 3 -14 6 -6 3 7 2 16 -1 19 -3 4 -6 -2 -5 -13z"/>
<path d="M4344 1638 c6 -20 -10 -25 -17 -5 -4 9 -6 9 -6 0 -1 -16 19 -27 29
-17 5 5 5 16 -1 24 -9 13 -10 12 -5 -2z"/>
<path d="M4036 1626 l-28 -13 31 -6 c33 -7 61 0 61 14 0 6 -10 5 -22 -2 -18
-10 -20 -9 -15 5 4 9 5 16 4 15 -1 0 -15 -6 -31 -13z"/>
<path d="M4125 1631 c-3 -5 -1 -12 5 -16 5 -3 10 1 10 9 0 18 -6 21 -15 7z"/>
<path d="M4214 1626 c-5 -14 -9 -15 -15 -4 -7 10 -9 9 -9 -4 0 -19 17 -23 37
-10 8 5 9 13 3 22 -7 12 -10 11 -16 -4z"/>
<path d="M4077 1571 c-3 -13 -1 -18 9 -14 7 2 10 11 7 19 -7 19 -10 18 -16 -5z"/>
<path d="M7426 1701 c-3 -5 1 -14 9 -21 13 -10 15 -9 15 9 0 21 -14 28 -24 12z"/>
<path d="M8200 1481 c0 -5 5 -13 10 -16 6 -3 10 -2 10 4 0 5 -4 13 -10 16 -5
3 -10 2 -10 -4z"/>
<path d="M8236 1451 c-3 -5 1 -11 9 -14 9 -4 12 -1 8 9 -6 16 -10 17 -17 5z"/>
<path d="M8270 1430 c0 -5 5 -10 10 -10 6 0 10 5 10 10 0 6 -4 10 -10 10 -5 0
-10 -4 -10 -10z"/>
<path d="M6800 1353 c8 -3 18 -11 22 -17 4 -6 10 -7 15 -3 9 10 -16 27 -37 26
-13 -1 -13 -1 0 -6z"/>
<path d="M9596 689 c3 -5 12 -9 21 -9 19 0 9 13 -12 16 -8 1 -13 -2 -9 -7z"/>
<path d="M9981 544 c0 -11 3 -14 6 -6 3 7 2 16 -1 19 -3 4 -6 -2 -5 -13z"/>
<path d="M5355 6883 c9 -37 11 -38 31 -19 9 9 15 18 13 19 -2 1 -15 8 -28 15
-23 13 -23 13 -16 -15z"/>
<path d="M2576 6818 c3 -5 10 -6 15 -3 13 9 11 12 -6 12 -8 0 -12 -4 -9 -9z"/>
<path d="M1570 6803 c0 -8 -4 -11 -10 -8 -5 3 -10 1 -10 -6 0 -9 -3 -9 -14 0
-11 9 -15 8 -20 -5 -8 -20 1 -34 20 -34 8 0 14 -5 14 -10 0 -6 17 -10 38 -10
20 0 49 -1 64 -4 17 -3 29 1 32 10 4 9 2 12 -5 8 -6 -3 -3 8 6 26 9 17 14 34
11 38 -3 3 -6 -1 -6 -9 -1 -11 -3 -11 -13 2 -16 20 -107 22 -107 2z"/>
<path d="M2705 6575 c-3 -8 -7 -21 -9 -28 -2 -8 2 -14 10 -14 9 0 13 10 12 29
-3 31 -6 35 -13 13z"/>
<path d="M3580 6430 c0 -8 -10 -10 -27 -6 -16 3 -21 2 -13 -1 10 -4 4 -10 -20
-18 -19 -6 -34 -16 -32 -21 3 -12 75 -12 83 -1 4 5 15 5 25 -1 11 -5 28 -6 39
-1 17 6 15 8 -12 8 -25 1 -30 4 -26 20 3 10 0 22 -6 25 -6 4 -11 2 -11 -4z"/>
<path d="M4463 6341 c0 -11 5 -18 9 -15 4 3 5 11 1 19 -7 21 -12 19 -10 -4z"/>
<path d="M4439 6193 c-1 -5 -1 -12 1 -18 1 -5 -4 -4 -11 3 -16 15 -43 16 -33
0 4 -7 3 -8 -5 -4 -11 7 -75 -29 -109 -62 -11 -10 -11 -13 0 -16 13 -5 86 -19
102 -20 5 -1 24 13 42 31 29 27 33 35 25 56 -6 14 -7 28 -4 31 4 3 3 6 0 6 -4
0 -8 -3 -8 -7z"/>
<path d="M6540 3416 c-10 -27 -69 -53 -81 -35 -5 8 -8 8 -14 -1 -9 -14 270
-294 285 -285 15 9 12 25 -5 25 -18 0 -20 27 -3 32 18 6 -27 100 -66 137 -47
45 -53 54 -51 79 2 24 -29 72 -46 72 -5 0 -14 -11 -19 -24z"/>
<path d="M73 3080 c5 -31 17 -36 17 -7 0 15 -4 27 -10 27 -5 0 -9 -9 -7 -20z"/>
<path d="M85 2690 c-3 -5 -2 -10 4 -10 5 0 13 5 16 10 3 6 2 10 -4 10 -5 0
-13 -4 -16 -10z"/>
<path d="M8730 2440 c-11 -7 -4 -10 28 -10 23 0 42 5 42 10 0 13 -50 13 -70 0z"/>
<path d="M10188 1993 c6 -2 18 -2 25 0 6 3 1 5 -13 5 -14 0 -19 -2 -12 -5z"/>
<path d="M3310 1920 c0 -6 7 -10 15 -10 8 0 15 2 15 4 0 2 -7 6 -15 10 -8 3
-15 1 -15 -4z"/>
<path d="M3375 1870 c3 -5 8 -10 11 -10 2 0 4 5 4 10 0 6 -5 10 -11 10 -5 0
-7 -4 -4 -10z"/>
<path d="M3306 1775 c4 -9 -3 -27 -17 -42 l-24 -27 32 23 c43 29 47 38 24 51
-17 9 -20 8 -15 -5z"/>
<path d="M3235 1644 c-11 -8 -25 -12 -33 -9 -10 4 -9 0 2 -16 13 -19 13 -24 0
-44 -13 -20 -13 -23 1 -28 16 -7 38 20 50 63 7 22 6 23 -9 11 -9 -8 -16 -9
-16 -3 0 6 8 15 17 21 10 5 16 12 13 14 -3 3 -14 -1 -25 -9z"/>
<path d="M3185 1530 c6 -10 -17 -90 -27 -90 -3 0 -5 -12 -3 -27 1 -16 -2 -31
-7 -34 -7 -4 -7 -9 0 -13 8 -5 34 54 47 107 2 10 7 27 10 37 3 11 0 20 -10 24
-9 3 -13 2 -10 -4z"/>
<path d="M3157 1513 c-4 -3 -7 -11 -7 -17 0 -6 5 -5 12 2 6 6 9 14 7 17 -3 3
-9 2 -12 -2z"/>
<path d="M3110 1360 c-1 -3 -4 -25 -6 -50 -3 -25 -12 -49 -20 -53 -16 -9 -19
-37 -3 -37 5 0 7 -5 3 -11 -4 -7 -1 -10 7 -7 8 3 14 17 15 32 1 14 10 33 20
41 13 10 14 14 5 15 -7 0 -11 6 -7 15 3 8 1 25 -4 37 -5 13 -9 21 -10 18z"/>
<path d="M3147 1343 c-10 -9 -9 -23 2 -23 5 0 11 7 15 15 5 15 -5 20 -17 8z"/>
<path d="M10615 870 c-4 -6 3 -10 14 -10 25 0 27 6 6 13 -8 4 -17 2 -20 -3z"/>
<path d="M4440 799 c0 -12 25 -22 41 -17 6 2 0 9 -15 16 -16 7 -26 8 -26 1z"/>
<path d="M4256 762 c-14 -13 -4 -23 15 -17 15 5 19 4 15 -4 -5 -7 2 -11 18
-11 14 0 26 -4 26 -9 0 -15 -18 -23 -25 -11 -4 7 -12 7 -25 0 -15 -8 -21 -6
-28 6 -7 12 -15 15 -28 9 -18 -7 -18 -8 -1 -12 9 -3 17 -8 17 -12 0 -13 49
-31 55 -20 4 5 10 7 15 4 5 -3 18 -1 29 5 15 8 20 7 23 -6 3 -14 7 -13 28 6
14 12 20 19 13 15 -16 -7 -63 4 -63 16 0 5 7 9 15 9 8 0 15 6 15 14 0 9 -7 12
-19 9 -10 -2 -34 0 -54 5 -20 6 -38 7 -41 4z"/>
<path d="M4416 702 c-3 -9 -9 -23 -12 -31 -5 -10 -3 -11 7 -5 8 5 18 9 24 9 5
0 11 7 13 16 4 22 -24 32 -32 11z"/>
<path d="M4478 678 c16 -16 -4 -38 -35 -38 -14 0 -21 -4 -18 -10 3 -5 -1 -10
-10 -10 -10 0 -15 6 -12 13 3 8 -12 13 -52 15 -123 7 -144 7 -148 -4 -3 -10
19 -18 77 -28 13 -3 30 -18 30 -27 0 -6 -4 -7 -10 -4 -5 3 -10 0 -10 -8 0 -23
12 -28 26 -9 7 9 16 13 20 9 5 -4 3 -12 -5 -16 -9 -6 -6 -10 10 -14 27 -7 24
-9 33 26 5 20 3 27 -9 27 -8 0 -15 5 -15 11 0 6 8 9 18 6 9 -2 22 -6 27 -7 19
-6 85 12 85 23 0 6 7 18 15 27 14 16 14 18 -6 23 -16 4 -19 3 -11 -5z m-138
-58 c0 -5 -4 -10 -10 -10 -5 0 -10 5 -10 10 0 6 5 10 10 10 6 0 10 -4 10 -10z"/>
<path d="M4556 662 c-14 -13 -4 -22 26 -22 25 0 29 3 20 12 -13 13 -38 19 -46
10z"/>
<path d="M4632 644 c12 -11 68 -15 68 -5 0 6 -16 11 -37 11 -20 0 -34 -3 -31
-6z"/>
<path d="M2460 618 c0 -8 7 -15 15 -15 18 0 15 19 -3 25 -7 2 -12 -3 -12 -10z"/>
<path d="M4138 593 c12 -21 52 -25 52 -5 0 9 -3 13 -6 9 -3 -3 -17 -2 -30 4
-22 8 -24 7 -16 -8z"/>
<path d="M4250 583 c-24 -10 -49 -47 -46 -68 2 -11 9 -19 15 -17 6 1 11 -2 11
-8 0 -6 -4 -10 -8 -10 -14 0 -32 24 -32 43 0 16 -3 17 -15 7 -8 -7 -21 -10
-29 -7 -8 3 -24 -5 -37 -19 -24 -25 -12 -32 21 -12 10 7 23 8 27 4 4 -5 2 -11
-4 -13 -18 -6 -16 -23 2 -23 8 0 15 -5 15 -11 0 -5 6 -7 13 -4 6 4 3 -1 -7 -9
-11 -9 -24 -12 -30 -8 -16 12 -79 8 -83 -5 -2 -6 6 -15 18 -18 22 -7 22 -8 4
-21 -10 -8 -27 -12 -37 -8 -22 6 -24 -9 -4 -26 21 -17 59 -8 66 15 3 13 13 20
25 20 83 -5 78 -3 72 -35 -4 -16 -3 -30 2 -30 9 0 21 34 21 61 0 19 -37 32
-43 15 -2 -6 -7 -8 -11 -5 -4 3 1 16 11 28 18 21 40 25 98 18 17 -2 36 0 42 6
9 6 15 3 21 -13 7 -20 10 -21 15 -6 5 12 -2 21 -28 33 -19 9 -35 20 -35 24 0
15 21 21 35 9 10 -8 15 -8 20 0 4 6 5 12 4 13 -2 1 -14 7 -26 14 -11 7 -33 10
-48 7 -29 -5 -30 1 -10 49 7 17 1 20 -25 10z m33 -120 c-7 -18 -33 -17 -33 1
0 8 8 14 19 13 11 0 17 -6 14 -14z"/>
<path d="M2490 560 c0 -10 11 -30 25 -44 19 -19 26 -22 35 -11 8 9 7 17 -3 26
-7 8 -16 22 -20 32 -9 23 -37 22 -37 -3z"/>
<path d="M4413 555 c0 -8 4 -15 9 -15 4 0 8 7 8 15 0 8 -4 15 -8 15 -5 0 -9
-7 -9 -15z"/>
<path d="M4665 550 c-3 -5 -1 -10 4 -10 6 0 11 5 11 10 0 6 -2 10 -4 10 -3 0
-8 -4 -11 -10z"/>
<path d="M2616 485 c-3 -8 -1 -15 4 -15 6 0 10 7 10 15 0 8 -2 15 -4 15 -2 0
-6 -7 -10 -15z"/>
<path d="M4680 410 c0 -6 7 -10 15 -10 8 0 15 2 15 4 0 2 -7 6 -15 10 -8 3
-15 1 -15 -4z"/>
<path d="M2596 402 c-3 -6 -1 -14 5 -17 14 -9 20 -2 10 14 -6 8 -11 9 -15 3z"/>
<path d="M4325 390 c-19 -8 -19 -9 3 -9 12 -1 22 4 22 9 0 6 -1 10 -2 9 -2 0
-12 -4 -23 -9z"/>
<path d="M4120 322 c0 -5 7 -9 15 -9 8 0 15 4 15 9 0 4 -7 8 -15 8 -8 0 -15
-4 -15 -8z"/>
<path d="M4003 313 c-7 -2 -13 -9 -13 -14 0 -15 61 -48 78 -41 11 4 14 1 9
-10 -8 -22 24 -34 36 -13 6 11 12 13 21 6 6 -5 18 -6 25 -2 9 6 4 12 -18 19
-17 6 -30 17 -29 23 2 9 -12 13 -42 15 -27 1 -44 6 -42 13 2 12 -5 13 -25 4z"/>
<path d="M4368 303 c6 -2 18 -2 25 0 6 3 1 5 -13 5 -14 0 -19 -2 -12 -5z"/>
<path d="M4276 244 c-6 -16 -46 -16 -57 0 -8 11 -29 -1 -29 -17 0 -7 4 -6 10
3 8 12 10 12 15 -2 4 -10 4 -22 0 -28 -11 -18 57 -7 77 13 16 15 17 20 4 32
-12 13 -15 12 -20 -1z"/>
<path d="M4386 243 c-9 -10 -7 -73 3 -73 5 0 17 17 28 38 18 38 18 38 -3 40
-12 1 -24 -1 -28 -5z"/>
<path d="M4507 193 c-4 -3 -7 -11 -7 -17 0 -6 5 -5 12 2 6 6 9 14 7 17 -3 3
-9 2 -12 -2z"/>
<path d="M4570 170 c0 -5 5 -10 10 -10 6 0 10 5 10 10 0 6 -4 10 -10 10 -5 0
-10 -4 -10 -10z"/>
</g>
</svg>
