<?xml version="1.0" standalone="no"?>
<!DOCTYPE svg PUBLIC "-//W3C//DTD SVG 20010904//EN"
 "http://www.w3.org/TR/2001/REC-SVG-20010904/DTD/svg10.dtd">
<svg version="1.0" xmlns="http://www.w3.org/2000/svg"
 width="1080.000000pt" height="718.000000pt" viewBox="0 0 1080.000000 718.000000"
 preserveAspectRatio="xMidYMid meet">

<g transform="translate(0.000000,718.000000) scale(0.100000,-0.100000)"
fill="#000000" stroke="none">
<path d="M125 7153 c8 -19 8 -34 0 -102 -3 -30 -1 -49 9 -60 17 -20 30 -71 17
-71 -16 0 -19 -24 -9 -75 15 -84 15 -89 6 -117 -7 -18 -6 -39 2 -63 13 -38 1
-113 -26 -166 -12 -25 -85 -69 -112 -69 -18 0 -12 -1542 6 -1548 6 -2 9 -9 5
-15 -4 -6 0 -8 9 -4 9 3 21 0 28 -6 10 -9 11 -9 6 0 -3 6 -2 14 4 18 5 3 10
13 10 21 0 8 11 37 25 66 14 28 25 62 25 75 0 13 7 40 16 61 10 21 16 59 15
89 -1 35 4 56 15 67 20 20 34 12 34 -20 0 -37 29 -27 59 18 13 21 28 35 32 32
18 -11 8 -56 -17 -81 -18 -18 -28 -41 -32 -69 -4 -40 -2 -43 22 -50 33 -8 34
-37 3 -67 -19 -18 -74 -98 -120 -174 -4 -6 8 -27 27 -48 28 -29 37 -49 46
-103 11 -72 10 -142 -3 -142 -5 0 -5 -5 -2 -10 4 -6 1 -18 -6 -27 -7 -8 -18
-25 -24 -37 -9 -18 -18 -20 -56 -18 -37 3 -49 -1 -72 -22 -16 -14 -33 -26 -38
-26 -6 0 -7 -4 -4 -10 3 -6 -1 -7 -9 -4 -14 6 -16 -74 -16 -782 l0 -789 28
-16 c16 -9 41 -41 59 -77 l31 -60 -34 -41 c-20 -23 -46 -41 -62 -44 -15 -2 19
-5 75 -6 83 -1 101 2 97 13 -9 22 24 28 36 5 10 -18 20 -19 108 -17 l96 3 -3
48 c-2 37 1 47 13 47 17 0 29 -35 24 -71 l-3 -24 165 -3 c186 -4 409 -11 426
-14 6 -1 39 5 74 12 86 18 94 7 85 -108 -11 -152 -32 -165 -74 -48 -20 56 -27
66 -52 71 -29 7 -111 1 -229 -15 -62 -8 -333 -22 -505 -25 -44 0 -119 -2 -166
-3 l-86 -2 -12 -60 c-7 -34 -10 -69 -6 -79 3 -10 1 -31 -5 -47 l-11 -28 -15
29 c-8 15 -21 33 -28 39 -8 6 -16 20 -19 31 -3 11 -5 -70 -6 -181 l-1 -201 29
5 c16 2 32 -1 35 -7 4 -6 39 -11 84 -11 45 -1 87 -6 101 -14 l25 -14 -33 -7
c-18 -4 -79 -4 -137 0 l-104 7 0 -956 0 -956 33 0 c18 0 38 5 44 11 8 8 17 8
31 0 13 -7 104 -11 254 -11 189 1 237 3 252 15 26 20 76 20 76 0 0 -22 176
-22 208 1 13 9 29 13 36 11 8 -3 17 -2 22 3 5 4 43 11 84 15 72 6 75 6 85 -17
6 -12 18 -24 28 -26 14 -3 17 4 17 33 0 23 5 38 16 42 22 8 35 -16 28 -50 -5
-23 -2 -27 16 -27 15 0 20 5 17 14 -8 19 38 67 66 70 13 1 27 4 32 7 6 3 25 6
42 8 28 2 35 -2 44 -25 5 -16 8 -39 4 -51 -4 -18 -1 -23 12 -23 10 0 24 4 32
9 9 6 23 5 37 -1 28 -13 86 -1 63 13 -7 5 -9 9 -4 9 6 0 17 -6 23 -12 7 -7 33
-13 57 -14 34 -1 41 2 30 10 -13 9 -11 11 9 12 18 1 23 -2 19 -13 -5 -12 7
-14 66 -12 39 1 71 6 71 11 0 5 6 6 13 3 6 -4 3 1 -8 10 -12 9 -21 11 -23 5
-2 -5 -8 -10 -13 -10 -6 0 -7 4 -4 10 3 5 -1 11 -9 11 -9 1 -20 3 -26 4 -5 1
-13 3 -17 4 -5 1 -1 6 7 11 13 8 11 11 -7 16 -12 3 -19 12 -17 19 3 7 1 16 -5
20 -6 3 -11 -2 -11 -12 0 -15 -2 -16 -10 -3 -5 9 -5 17 0 20 11 7 2 50 -10 50
-4 0 -10 8 -14 18 -3 9 -11 25 -18 34 -18 25 1 40 50 42 42 1 82 -24 82 -51 0
-7 6 -13 14 -13 7 0 20 -8 27 -17 12 -15 12 -16 -1 -8 -12 7 -13 6 -3 -7 7 -8
10 -18 6 -21 -3 -4 -1 -7 6 -7 8 0 11 -8 8 -20 -3 -11 -2 -18 3 -15 4 3 10 -2
13 -10 4 -10 1 -12 -11 -8 -13 4 -12 2 3 -10 36 -29 70 -13 44 21 -11 13 -8
12 9 -2 20 -18 22 -18 22 -2 0 36 25 8 35 -40 l10 -49 105 1 c58 0 121 6 141
13 39 13 52 15 149 32 35 7 70 18 77 25 10 10 84 37 133 49 25 6 107 18 113
17 4 -1 7 5 7 13 0 8 6 12 14 9 8 -3 17 0 21 5 3 6 11 9 16 5 6 -3 19 3 30 15
21 22 25 36 8 25 -6 -3 -15 0 -20 7 -7 11 -9 11 -9 1 0 -7 -5 -10 -10 -7 -6 4
-8 12 -4 18 3 7 -1 4 -9 -6 -15 -18 -16 -18 -26 0 -7 12 -10 13 -11 4 0 -20
-30 7 -30 28 0 13 -2 13 -9 2 -5 -8 -16 -11 -26 -7 -23 8 -13 18 22 22 14 2
29 7 32 12 3 5 20 12 36 17 27 7 28 8 10 15 -16 7 -17 9 -3 9 9 1 19 7 21 14
4 9 6 9 6 -1 1 -10 5 -9 17 3 9 9 29 19 45 22 18 3 26 10 22 17 -4 6 2 4 12
-4 14 -11 19 -12 22 -2 3 6 9 10 14 6 5 -3 9 0 9 5 0 17 21 13 36 -7 13 -16
14 -16 8 1 -6 17 7 22 49 19 9 -1 17 3 17 8 0 6 3 9 8 9 4 -1 10 0 15 1 19 6
33 5 39 -5 4 -5 8 0 8 12 0 21 1 21 35 7 33 -13 35 -13 35 4 0 20 26 36 73 46
25 6 27 4 27 -26 0 -22 3 -29 9 -20 7 11 9 11 14 -1 4 -10 -22 -43 -76 -95
-134 -132 -149 -143 -311 -241 -86 -51 -156 -95 -156 -97 0 -2 1379 -4 3065
-4 l3065 0 0 87 c0 48 8 140 17 203 l17 115 120 126 c127 133 166 188 220 314
19 42 36 78 39 81 11 11 55 -9 60 -27 3 -10 2 -19 -1 -19 -4 0 -8 -10 -9 -22
-5 -67 -23 -182 -31 -192 -5 -6 -10 -37 -11 -68 -2 -45 1 -58 12 -58 18 0 40
56 54 135 12 72 28 118 50 142 14 16 23 21 20 11 -4 -12 -1 -16 13 -15 10 1
17 4 14 8 -2 4 5 9 16 12 11 3 20 2 20 -3 0 -13 34 -6 48 10 8 8 11 9 7 3 -8
-17 4 -16 35 2 29 16 64 20 55 5 -3 -5 0 -7 9 -4 8 3 21 2 28 -2 7 -4 28 -7
48 -6 19 2 46 3 59 2 34 0 97 -33 93 -48 -1 -6 6 -12 15 -12 12 0 14 -3 6 -8
-7 -4 -9 -13 -4 -21 5 -7 13 -11 19 -7 6 3 13 2 17 -4 4 -6 11 -8 16 -5 5 4 9
2 9 -4 0 -6 8 -8 18 -5 9 3 1 -4 -18 -15 -19 -11 -31 -20 -27 -21 5 0 1 -7 -7
-16 -14 -14 -14 -17 4 -36 11 -12 20 -25 20 -29 0 -4 9 -9 19 -12 12 -3 19
-12 17 -23 -2 -11 2 -23 8 -29 6 -5 9 -9 7 -8 -2 2 -10 -2 -18 -9 -8 -6 -13
-7 -11 -2 6 17 -17 10 -42 -13 -14 -13 -20 -23 -14 -23 5 0 16 6 23 13 8 7 11
7 8 1 -4 -7 4 -14 20 -17 26 -5 27 -4 8 10 -18 13 -14 14 40 8 35 -3 64 -11
71 -20 6 -8 13 -14 15 -12 2 1 -5 -6 -16 -15 -28 -24 -61 -28 -80 -9 -14 14
-16 14 -13 1 2 -8 8 -18 13 -22 6 -4 2 -8 -7 -8 -10 0 -18 -4 -18 -10 0 -5 -5
-10 -11 -10 -5 0 -8 4 -5 9 3 5 -6 17 -21 26 -26 17 -27 17 -46 -6 -11 -13
-26 -23 -33 -21 -8 2 -14 -2 -14 -8 0 -5 -7 -10 -15 -10 -8 0 -15 -5 -15 -11
0 -5 -5 -7 -10 -4 -6 4 -8 10 -6 14 3 4 -1 8 -9 8 -18 0 -20 -14 -2 -20 16 -6
8 -13 -23 -21 -17 -5 -21 -4 -11 2 10 8 11 11 1 17 -8 5 -18 1 -25 -8 -9 -12
-14 -14 -23 -5 -9 9 -12 5 -12 -17 0 -23 -3 -27 -10 -15 -8 13 -10 12 -10 -3
0 -14 -5 -17 -20 -12 -11 3 -20 3 -20 -2 0 -5 -10 -9 -22 -10 -11 -1 -25 -8
-29 -15 -7 -10 -9 -10 -9 0 0 6 -5 12 -11 12 -7 0 -9 -10 -7 -25 3 -13 1 -22
-3 -19 -5 3 -9 0 -9 -5 0 -6 5 -11 10 -11 6 0 10 -7 10 -15 0 -20 -10 -19 -27
3 -13 15 -13 15 -4 -4 6 -12 7 -25 3 -29 -4 -4 3 -5 16 -2 14 3 20 1 16 -5 -5
-7 2 -9 20 -4 19 5 26 3 21 -4 -4 -7 2 -9 19 -4 17 4 26 2 26 -6 0 -6 3 -9 8
-7 4 3 7 -9 7 -26 0 -17 -6 -32 -13 -34 -6 -3 -12 0 -12 7 0 6 5 8 12 4 7 -5
8 -3 3 5 -5 9 -12 8 -29 -7 -13 -11 -32 -17 -51 -16 -19 2 -35 -3 -42 -13 -7
-9 -13 -12 -13 -6 0 6 -11 10 -25 9 -13 -2 -22 1 -19 5 3 5 1 9 -5 9 -5 0 -12
-4 -15 -8 -3 -5 -18 -9 -34 -10 -21 0 -33 6 -41 21 -6 12 -9 14 -7 5 6 -19 -9
-25 -19 -8 -4 6 -11 8 -16 4 -5 -3 -7 -10 -4 -15 4 -5 -4 -9 -17 -8 -13 0 -17
3 -11 6 13 5 19 33 7 33 -3 0 -12 -6 -20 -14 -15 -16 -49 -15 -49 2 0 6 -3 14
-8 18 -4 4 -7 2 -7 -4 0 -16 -27 -15 -33 1 -3 7 -6 5 -6 -5 -1 -13 -10 -18
-33 -19 -18 -1 -25 -3 -15 -6 16 -4 25 -34 10 -32 -25 4 -33 -4 -32 -33 0 -18
3 -27 6 -20 2 6 9 12 14 12 6 0 7 -5 4 -10 -4 -7 6 -10 29 -8 20 1 36 6 36 10
0 4 5 8 11 8 5 0 7 -6 3 -12 -6 -10 -4 -10 8 0 11 9 18 10 23 2 10 -16 25 -12
25 8 0 14 2 15 10 2 13 -21 58 -23 63 -2 4 15 5 15 6 0 0 -10 6 -18 12 -18 5
0 7 5 3 12 -4 7 -3 8 5 4 18 -12 91 -18 91 -9 0 14 40 13 41 0 0 -7 4 -3 9 8
5 11 9 14 9 8 1 -9 8 -10 26 -3 14 5 25 6 25 2 0 -12 31 -13 627 -18 l583 -5
0 1460 0 1461 -75 0 c-67 0 -75 2 -75 19 0 11 14 30 31 42 25 17 39 20 75 15
l44 -6 0 131 c0 98 -4 137 -15 160 l-16 30 -30 -28 c-17 -15 -35 -38 -40 -50
-4 -13 -13 -23 -19 -23 -14 0 -13 43 2 58 17 17 20 69 4 85 -11 11 -11 20 -2
48 6 20 11 93 10 174 0 77 3 150 7 163 9 24 46 30 80 12 19 -10 19 -4 19 344
0 329 -1 355 -17 359 -17 4 -17 5 0 6 16 1 17 55 17 991 l0 990 -25 0 c-25 0
-26 1 -23 63 3 58 4 62 26 59 16 -2 22 2 22 16 0 18 -4 19 -37 11 -21 -5 -41
-9 -45 -9 -5 0 -8 35 -8 78 0 77 0 78 30 89 25 9 30 9 30 -4 0 -8 6 -13 13
-11 9 4 13 59 15 221 l2 217 -2091 0 c-2026 0 -2092 -1 -2076 -18 10 -10 17
-28 17 -39 0 -22 -47 -68 -77 -77 -181 -52 -170 -43 -163 -116 1 -14 3 -34 4
-45 2 -32 -4 -31 522 -50 83 -3 157 -3 165 0 11 4 14 24 12 80 0 41 3 75 7 75
11 0 57 -80 66 -116 4 -16 24 -46 46 -66 21 -21 38 -44 38 -51 0 -12 -35 -57
-44 -57 -45 0 -274 -43 -284 -54 -19 -19 0 -78 39 -124 32 -36 33 -40 19 -76
-6 -17 -21 -28 -47 -35 -48 -12 -250 -28 -458 -36 -88 -3 -170 -9 -182 -11
-11 -3 -56 1 -100 10 -131 27 -160 5 -132 -96 7 -24 14 -50 16 -58 2 -8 6 -87
10 -174 6 -147 5 -160 -12 -172 -13 -10 -57 -14 -149 -15 -72 -1 -162 -4 -201
-8 l-70 -7 75 -10 c68 -10 169 -10 455 0 119 5 180 -9 207 -45 18 -24 20 -43
19 -204 0 -98 -5 -183 -9 -189 -22 -27 -37 -156 -37 -306 1 -170 13 -414 24
-471 6 -30 10 -131 9 -226 -3 -167 -3 -170 -20 -137 -19 39 -87 134 -96 135
-30 3 -45 12 -76 44 -20 20 -36 38 -36 40 0 10 -55 61 -88 82 -32 19 -34 22
-14 23 13 0 37 -7 55 -16 l32 -15 -25 20 c-14 11 -32 21 -40 22 -18 2 -24 4
-73 14 -20 4 -54 3 -75 -2 -26 -7 -44 -5 -62 4 -14 7 -33 13 -42 13 -9 0 -20
5 -24 11 -4 8 1 9 15 4 13 -4 28 -1 36 5 12 10 15 9 15 -5 0 -14 3 -15 15 -5
8 6 19 9 24 6 5 -4 17 4 25 16 9 12 16 17 16 11 0 -16 26 -6 28 10 1 7 4 177
7 380 l6 367 -33 1 c-18 1 -36 1 -40 0 -5 0 -41 4 -80 10 -104 15 -288 20
-288 8 0 -6 5 -19 10 -29 6 -11 11 -134 12 -298 1 -249 0 -283 -15 -306 -10
-14 -15 -26 -12 -26 2 0 0 -11 -5 -25 -8 -21 -7 -25 8 -25 16 -1 16 -1 0 -11
-10 -5 -18 -17 -18 -24 0 -18 20 -20 21 -2 0 6 4 3 9 -8 8 -19 9 -19 9 2 1 12
5 24 9 27 4 2 8 -7 7 -22 -1 -31 32 -63 45 -42 5 9 8 9 12 -2 4 -10 -20 -13
-122 -15 -83 -1 -146 -7 -183 -18 -31 -9 -65 -14 -76 -10 -12 4 -29 -3 -47
-19 -26 -22 -29 -30 -30 -95 0 -40 3 -66 8 -59 14 23 9 -21 -6 -50 -27 -53
-45 -212 -34 -298 5 -43 14 -88 19 -99 5 -11 20 -50 34 -87 31 -85 99 -187
170 -258 54 -53 69 -77 42 -67 -9 3 -13 -6 -14 -29 -1 -19 -6 -40 -12 -48 -6
-7 -8 -16 -4 -19 15 -16 54 -5 83 24 29 30 32 30 63 18 41 -16 87 -50 87 -63
0 -5 -7 -17 -15 -26 -21 -24 -64 -136 -79 -210 -21 -96 -20 -95 -61 -101 -22
-4 -58 -9 -80 -13 l-40 -7 -37 63 c-74 125 -124 162 -111 82 3 -20 -1 -59 -10
-92 -9 -31 -21 -109 -27 -172 -6 -63 -15 -140 -19 -170 -5 -30 -6 -98 -4 -150
4 -87 2 -98 -17 -115 -20 -18 -20 -18 -21 21 -1 21 0 44 1 49 1 6 3 90 5 187
2 127 -1 183 -10 201 -10 20 -10 32 2 67 13 39 13 47 -1 78 -21 44 -8 97 34
137 35 34 37 46 10 63 -29 18 -18 28 46 47 30 9 57 22 60 30 3 8 12 11 21 8
11 -5 14 -3 9 6 -5 7 -15 9 -25 5 -9 -4 -50 -13 -91 -21 -41 -8 -84 -16 -95
-18 -11 -2 -29 -4 -40 -4 -17 -1 -17 -3 -5 -11 13 -8 12 -10 -2 -10 -10 0 -18
4 -18 10 0 5 -12 7 -27 4 -35 -6 -90 26 -103 62 -15 39 -12 89 7 122 15 26 16
34 4 56 -12 22 -12 28 2 49 9 15 12 29 7 38 -6 8 -4 19 5 29 31 34 28 64 -9
102 -44 46 -46 78 -7 110 16 12 54 43 85 68 31 25 58 54 60 65 3 11 9 45 14
75 18 99 33 143 69 212 37 71 49 146 29 181 -8 12 -7 23 2 37 18 30 15 50 -18
105 -20 34 -30 64 -30 93 0 48 -26 82 -63 82 -28 0 -51 -23 -71 -72 -9 -20
-20 -39 -26 -43 -5 -3 -14 -14 -20 -24 -12 -24 33 -90 76 -112 16 -8 46 -25
67 -39 33 -22 37 -29 32 -55 -6 -34 -47 -75 -75 -75 -36 0 -97 31 -110 56 -7
13 -17 24 -22 24 -4 0 -28 20 -52 46 -26 27 -47 41 -51 34 -3 -6 -10 -8 -14
-6 -4 3 -17 -15 -30 -40 -13 -24 -29 -44 -36 -44 -7 0 -16 -8 -19 -17 -14 -35
-41 -581 -38 -748 10 -487 11 -639 2 -656 -8 -14 -7 -19 2 -20 7 0 22 -3 33
-5 11 -3 38 -5 60 -5 22 0 51 -7 64 -16 20 -13 23 -20 18 -57 -6 -39 -3 -45
23 -65 17 -12 30 -28 30 -35 0 -7 10 -21 21 -32 12 -10 30 -38 41 -61 10 -23
33 -52 51 -65 47 -33 69 -60 61 -77 -16 -39 -16 -51 -1 -51 24 0 43 -40 26
-51 -10 -6 -16 -2 -19 14 -3 12 -14 22 -23 22 -9 0 -18 5 -19 10 -1 6 -20 16
-42 24 -54 18 -58 21 -107 104 -24 40 -52 78 -63 86 -10 8 -26 22 -35 33 -16
19 -47 26 -36 8 8 -13 -31 -100 -46 -100 -6 0 -9 -6 -6 -14 3 -8 -1 -17 -9
-20 -22 -8 -26 -7 -19 4 3 5 2 10 -3 10 -10 0 -11 4 -16 77 -4 45 -2 53 16 59
l20 6 -21 21 c-11 12 -24 32 -28 45 -8 21 -11 19 -48 -30 -44 -58 -68 -105
-60 -118 6 -9 -33 -25 -51 -22 -13 2 -37 -46 -29 -58 3 -5 1 -11 -5 -15 -5 -3
-10 -1 -10 6 0 22 -16 -4 -30 -48 -7 -24 -16 -43 -21 -43 -9 0 -19 -24 -33
-85 -9 -37 -16 -50 -29 -49 -9 1 -17 -3 -17 -9 0 -5 -9 -2 -19 7 -12 11 -18
27 -16 44 12 97 14 132 6 132 -19 0 -32 204 -15 232 3 4 7 22 9 40 2 18 7 54
10 79 l6 45 -34 -4 c-28 -3 -38 2 -64 31 -18 21 -35 32 -42 27 -28 -17 -129
29 -115 52 4 7 -10 9 -42 5 -27 -2 -56 -1 -65 4 -26 13 -68 18 -75 8 -8 -14
-24 -1 -23 19 0 9 3 12 5 6 3 -7 29 -10 72 -7 85 5 107 10 125 28 10 10 41 16
95 17 103 4 126 22 136 106 3 31 7 336 7 677 0 341 4 715 7 832 7 195 9 214
29 241 12 16 24 42 27 58 3 16 9 42 12 58 6 27 5 28 -18 23 -41 -11 -52 12
-43 86 4 34 6 80 5 102 -2 22 -4 118 -4 213 l-1 174 30 27 c27 23 29 31 22 56
-6 23 -21 36 -60 55 -60 29 -83 64 -63 95 21 31 71 56 117 58 40 2 43 0 54
-32 6 -19 16 -36 22 -38 19 -7 25 17 12 48 -15 38 0 57 56 66 31 5 40 2 54
-16 14 -19 21 -21 44 -12 37 14 54 6 116 -57 l53 -55 34 36 c18 21 37 37 42
37 5 0 15 12 23 26 8 15 36 37 65 51 63 30 89 57 98 102 3 19 14 43 23 53 23
25 59 23 66 -3 5 -18 10 -20 34 -14 28 8 169 8 228 0 17 -2 49 -4 73 -4 31 -1
49 -7 66 -24 21 -21 24 -36 32 -167 5 -80 8 -173 7 -207 l-2 -63 49 0 c27 0
56 3 65 6 14 6 13 8 -5 21 -12 8 -25 25 -30 37 -10 27 11 239 27 257 6 8 14
33 18 57 4 24 13 46 21 49 18 7 18 40 0 50 -8 5 -15 37 -19 86 -6 73 -5 81 18
111 14 18 25 36 25 39 0 4 -105 7 -234 7 -249 0 -246 1 -246 -48 0 -36 -18
-46 -97 -54 -396 -40 -596 -43 -878 -14 -253 26 -265 28 -288 47 -20 16 -21
20 -10 50 7 18 11 34 10 35 -2 2 -39 -3 -82 -11 -146 -25 -307 -35 -570 -35
-356 0 -548 19 -870 86 -103 21 -136 32 -157 52 -34 31 -35 55 -6 84 12 12 34
60 50 107 16 47 35 100 43 116 42 90 40 97 -30 109 -97 17 -253 59 -283 77
-32 18 -65 19 -944 19 -830 0 -913 -1 -930 -16 -16 -16 -18 -16 -24 0 -3 9
-13 16 -21 16 -11 0 -13 -5 -8 -17z m8801 -235 c-1 -16 2 -28 7 -28 5 0 7 -12
6 -27 -2 -16 2 -37 8 -47 9 -17 18 -18 84 -13 41 4 97 9 124 13 28 4 75 6 105
4 57 -3 209 -4 270 -2 255 9 340 -10 340 -74 0 -39 -36 -52 -190 -68 -313 -34
-378 -45 -424 -76 l-27 -17 24 -19 c56 -45 58 -96 4 -113 -31 -9 -135 -24
-249 -36 -32 -4 -58 -10 -58 -15 0 -4 -16 -8 -35 -7 -34 1 -35 2 -35 43 0 27
5 44 14 47 8 3 17 1 19 -6 3 -7 10 1 16 17 12 30 5 92 -10 102 -17 10 37 43
62 38 21 -4 21 -3 -4 9 -36 17 -48 36 -37 58 11 19 4 29 -21 29 -18 0 -29 19
-29 51 0 12 -14 28 -35 40 -40 24 -40 20 -19 108 11 52 20 71 37 78 20 9 24 7
38 -26 9 -20 15 -48 15 -63z m-296 50 c0 -53 -11 -68 -46 -68 -42 0 -44 17 -8
59 30 37 54 40 54 9z m2150 -108 c0 -5 -4 -10 -10 -10 -5 0 -10 5 -10 10 0 6
5 10 10 10 6 0 10 -4 10 -10z m-2598 -135 c-6 -86 1 -103 51 -115 61 -16 71
-20 64 -26 -3 -4 -26 1 -51 9 -24 8 -47 13 -50 10 -3 -3 8 -25 24 -49 33 -46
35 -54 20 -54 -6 0 -31 -20 -56 -45 -54 -54 -99 -61 -139 -21 -30 30 -25 47
25 96 29 27 41 50 54 105 18 70 47 145 56 145 3 0 3 -25 2 -55z m2230 -2 c3
-10 2 -40 -1 -68 -6 -47 -8 -50 -37 -53 -67 -7 -117 39 -89 83 11 18 80 51
111 54 7 1 14 -7 16 -16z m-435 -139 c-6 -32 17 -44 86 -44 60 0 111 28 100
55 -3 10 1 15 15 15 15 0 22 -8 24 -27 3 -28 3 -28 93 -31 50 -1 96 -5 103 -7
8 -3 12 -25 12 -60 l0 -57 -302 4 c-318 4 -340 8 -354 50 -8 26 14 45 65 54
66 11 86 20 89 42 2 12 15 31 30 42 23 19 27 19 35 5 5 -9 7 -28 4 -41z
m-1070 -76 c-3 -8 -6 -5 -6 6 -1 11 2 17 5 13 3 -3 4 -12 1 -19z m-281 -33
c16 -12 17 -14 2 -15 -9 0 -22 -2 -30 -3 -7 -2 -9 -2 -5 1 4 2 3 10 -4 18 -16
19 11 19 37 -1z m-383 -32 c13 -12 -26 -43 -55 -43 -32 0 -35 6 -11 32 16 18
53 24 66 11z m572 -33 c-10 -11 -21 -17 -24 -14 -3 3 3 12 13 20 28 20 32 17
11 -6z m1646 -373 c3 -56 5 -208 3 -337 -17 -1465 -21 -1761 -28 -1985 -3 -82
-6 -210 -7 -283 -1 -73 -6 -135 -10 -138 -19 -11 -26 41 -28 191 0 88 -4 356
-7 595 -4 239 -6 442 -5 450 7 82 20 661 21 950 1 374 11 648 25 670 17 27 30
-15 36 -113z m-1271 -175 c0 -25 113 -81 125 -62 3 6 -2 10 -12 11 -11 0 -13
3 -5 6 7 3 19 0 26 -6 8 -7 36 -14 63 -17 26 -3 69 -15 95 -26 38 -17 45 -24
37 -35 -8 -9 -8 -13 -1 -13 6 0 14 5 17 10 4 6 25 22 48 37 38 24 49 26 189
28 143 2 150 2 162 -19 19 -30 26 -136 15 -236 -10 -94 -12 -440 -3 -620 3
-63 9 -196 14 -295 6 -99 8 -191 5 -205 -7 -37 -25 -619 -20 -665 2 -22 7
-117 11 -212 8 -195 4 -212 -62 -233 -44 -15 -205 -5 -216 13 -4 7 -8 34 -8
60 0 38 13 76 60 179 55 119 62 141 76 247 8 64 24 160 36 213 25 113 21 138
-39 248 -85 155 -143 270 -143 283 0 7 -15 35 -32 62 -18 27 -49 73 -68 104
-22 35 -51 64 -80 81 -26 15 -73 62 -116 115 -40 49 -82 92 -93 97 -26 9 -27
24 -2 38 14 7 21 6 25 -3 3 -6 3 2 -1 18 -7 38 -48 114 -83 157 -24 28 -34 33
-71 33 -40 0 -45 3 -61 35 -9 19 -17 56 -18 83 0 40 3 47 20 47 24 0 69 74 76
127 4 29 3 34 -5 23 -6 -8 -11 -26 -11 -41 0 -27 -16 -49 -37 -49 -19 0 -16
27 5 39 13 8 14 13 4 19 -9 6 -10 21 -1 68 14 69 17 73 30 54 8 -11 9 -7 4 15
-4 17 -9 91 -11 165 l-3 134 29 -52 c17 -28 30 -55 30 -60z m-1297 56 c16 15
30 20 43 15 27 -10 55 -35 64 -58 9 -19 9 -19 16 3 9 30 20 28 54 -8 15 -16
25 -30 22 -30 -3 0 15 -20 40 -45 45 -43 71 -55 82 -36 3 5 16 11 28 14 13 2
32 8 42 12 13 6 17 5 13 -2 -4 -6 -1 -18 8 -26 13 -13 12 -16 -3 -22 -15 -6
-15 -7 3 -17 11 -6 24 -18 30 -27 9 -15 11 -20 14 -39 3 -20 80 -92 115 -106
67 -28 129 -15 119 24 -3 11 0 27 8 36 11 13 15 11 31 -22 10 -21 18 -50 18
-66 0 -15 4 -28 9 -28 15 0 26 23 23 45 -2 12 0 16 5 9 11 -15 53 1 53 20 0 8
-5 18 -10 21 -6 4 -10 16 -8 28 2 16 -6 26 -34 39 -39 18 -50 38 -23 38 9 0
15 9 15 25 0 23 -2 24 -20 15 -12 -6 -23 -24 -27 -41 -9 -44 -23 -45 -23 -2 0
110 114 121 179 17 36 -56 48 -119 31 -168 -11 -35 -74 -95 -112 -109 -10 -4
-18 -14 -18 -22 0 -18 1 -18 80 37 70 49 82 49 76 1 -6 -45 20 -103 46 -103
15 0 20 -10 17 -36 0 -3 10 -14 22 -25 17 -14 23 -32 25 -72 1 -29 -1 -57 -4
-63 -4 -5 -41 -38 -82 -73 -87 -74 -123 -111 -192 -199 -67 -83 -82 -91 -105
-52 -9 16 -21 30 -26 30 -4 0 -16 -17 -25 -37 -10 -21 -27 -53 -39 -71 -11
-19 -24 -52 -28 -75 -5 -24 -10 -34 -12 -24 -3 10 -14 17 -28 17 -13 0 -27 5
-30 10 -3 6 -19 10 -36 10 l-29 0 0 -68 c0 -38 3 -71 6 -74 3 -3 22 9 42 28
53 48 53 31 0 -24 -103 -107 -193 -256 -187 -311 4 -44 0 -45 -99 -25 -17 3
-25 -2 -34 -23 -6 -16 -10 -36 -10 -45 0 -10 -3 -18 -8 -18 -5 0 -17 -23 -28
-51 l-19 -52 -6 76 c-4 41 -13 115 -22 163 -8 48 -20 140 -26 205 -9 99 -8
126 5 180 9 35 16 93 14 129 -1 36 -1 112 0 170 2 142 0 155 -27 184 -25 27
-25 26 -2 136 13 60 13 142 0 177 -5 15 -21 38 -34 50 -13 13 -26 38 -29 55
-10 62 -25 356 -19 378 l6 23 18 -24 18 -24 24 23z m607 -203 c0 -20 -25 -30
-47 -19 -10 4 -21 6 -25 6 -5 -1 -8 2 -8 7 0 8 18 14 68 20 6 0 12 -6 12 -14z
m140 -79 c0 -3 -4 -8 -10 -11 -5 -3 -10 -1 -10 4 0 6 5 11 10 11 6 0 10 -2 10
-4z m-65 -25 c-3 -6 -11 -11 -17 -11 -6 0 -6 6 2 15 14 17 26 13 15 -4z
m-5100 -11 c6 -20 18 -24 66 -20 64 4 78 -63 23 -105 -28 -21 -34 -32 -30 -50
4 -15 -1 -28 -15 -40 -17 -17 -24 -17 -55 -6 -19 7 -48 10 -64 6 -32 -7 -50
14 -50 56 0 12 -7 31 -17 41 -13 15 -14 23 -5 43 6 14 18 25 27 25 8 0 22 12
32 28 22 34 33 42 60 42 13 0 24 -8 28 -20z m-1080 -132 c6 -14 24 -26 48 -31
32 -8 37 -13 37 -37 0 -16 -5 -32 -11 -35 -7 -5 -8 -25 -4 -55 6 -45 5 -50
-20 -66 -25 -17 -28 -17 -57 0 -19 12 -40 16 -58 13 -32 -7 -44 4 -54 48 -4
17 -15 38 -24 48 -24 26 -6 59 57 106 57 42 71 44 86 9z m6713 -10 c-3 -7 -11
-13 -18 -13 -7 0 -15 6 -17 13 -3 7 4 12 17 12 13 0 20 -5 18 -12z m1625 -2
c7 -17 -18 -40 -33 -31 -5 3 -10 15 -10 26 0 23 35 27 43 5z m-1493 -298 c0
-17 -15 -7 -27 18 -12 26 -12 26 7 9 11 -10 20 -22 20 -27z m-7251 -4 c12 -20
31 -38 42 -41 18 -5 20 -12 16 -43 -6 -50 -94 -143 -120 -129 -9 6 -17 16 -17
24 0 7 -16 23 -35 35 -29 18 -35 28 -35 55 0 27 6 37 27 47 15 7 32 23 38 34
31 63 55 68 84 18z m4765 -290 c23 -9 20 -51 -4 -64 -27 -14 -40 -5 -40 29 0
39 11 48 44 35z m-2815 -59 c48 -25 50 -26 33 -45 -9 -11 -26 -20 -39 -20 -12
0 -25 -4 -28 -10 -10 -16 -103 -12 -112 4 -4 8 -17 14 -27 13 -43 -4 -22 22
41 51 37 17 71 31 75 31 3 1 29 -10 57 -24z m6314 -14 c5 -22 0 -31 -20 -31
-7 0 -13 11 -13 25 0 30 25 34 33 6z m-7234 -168 c5 -21 9 -68 8 -104 l-1 -67
-54 -6 c-29 -3 -58 -4 -63 -1 -16 11 -10 64 11 85 12 12 20 33 20 53 0 40 24
77 50 77 14 0 22 -11 29 -37z m190 24 c10 -13 17 -100 13 -173 -2 -28 -6 -33
-38 -39 -20 -3 -38 -4 -41 -2 -2 3 -4 45 -4 93 0 61 5 94 16 110 17 27 37 31
54 11z m2557 -20 c4 -4 -12 -7 -35 -7 -23 0 -40 4 -37 9 6 10 61 9 72 -2z
m4934 -153 c0 -9 12 -15 33 -15 30 -2 31 -2 4 -6 -19 -3 -27 -10 -26 -21 4
-23 -10 -62 -22 -62 -8 0 -11 31 -11 95 0 30 2 36 12 30 6 -3 10 -13 10 -21z
m-2982 -108 c90 -130 109 -170 161 -326 23 -69 46 -132 50 -141 5 -8 7 -27 4
-42 -4 -20 -11 -27 -28 -27 -26 0 -30 -12 -41 -104 -5 -44 -4 -57 4 -52 9 5
12 -6 12 -37 0 -53 -4 -58 -39 -44 -22 8 -40 7 -77 -6 -27 -9 -52 -13 -55 -9
-21 23 -69 201 -79 292 -6 58 -20 167 -31 243 -19 139 -24 268 -13 326 5 26
11 31 34 31 23 0 37 -15 98 -104z m624 57 c-40 -38 -42 -39 -42 -18 0 22 32
52 56 51 18 -1 16 -5 -14 -33z m-4162 -18 c22 -23 22 -25 6 -49 -9 -14 -16
-37 -16 -51 0 -14 -3 -25 -8 -25 -4 0 -7 -16 -6 -36 2 -39 -16 -54 -41 -34
-13 10 -13 16 0 47 8 20 15 39 15 43 0 9 -56 31 -63 24 -2 -2 -12 5 -21 15
-22 25 -14 51 21 73 41 25 85 23 113 -7z m4374 11 c-3 -7 -16 -19 -30 -27 -14
-7 -35 -31 -46 -52 -21 -42 -35 -46 -19 -5 8 21 83 98 96 98 2 0 2 -6 -1 -14z
m-4689 -17 c25 -12 30 -20 30 -49 0 -26 -5 -36 -18 -38 -13 -3 -17 2 -15 15 3
16 -4 18 -51 17 -48 0 -57 -3 -81 -32 -34 -41 -54 -34 -68 21 -10 37 -9 44 11
65 20 22 28 24 92 20 39 -3 84 -11 100 -19z m4415 -59 c11 -6 17 -17 14 -25
-5 -11 -10 -12 -25 -2 -10 6 -19 17 -19 24 0 16 6 16 30 3z m150 -50 c0 -5 -2
-10 -4 -10 -3 0 -8 5 -11 10 -3 6 -1 10 4 10 6 0 11 -4 11 -10z m-156 -9 c11
-4 15 -10 10 -13 -5 -4 -20 0 -34 8 -26 14 -9 18 24 5z m-4391 -47 c10 -11
-11 -41 -33 -47 -16 -4 -20 0 -20 17 0 13 3 26 7 29 8 9 38 9 46 1z m2546 -52
c24 -44 51 -346 30 -325 -6 6 -12 57 -15 114 -2 57 -9 118 -13 134 -13 42 -21
95 -16 95 2 0 9 -8 14 -18z m549 -340 c20 -21 23 -32 18 -66 -3 -23 -6 -90 -6
-151 0 -60 0 -123 0 -140 0 -16 -8 -41 -17 -54 -15 -23 -15 -26 2 -36 54 -31
66 -68 40 -127 -5 -14 -2 -18 11 -19 11 0 4 -5 -13 -10 -25 -7 -39 -6 -58 7
-24 16 -88 16 -114 0 -6 -4 -24 2 -39 12 -27 20 -28 20 -51 1 -13 -10 -29 -19
-37 -19 -19 0 -34 -33 -34 -75 0 -33 -2 -36 -22 -30 -59 17 -92 41 -100 70
-10 39 -1 72 23 78 16 4 19 14 19 60 0 63 10 97 38 124 18 17 18 23 5 127 -8
60 -12 115 -9 122 8 20 40 17 60 -4 15 -17 15 -22 1 -55 -8 -20 -15 -38 -15
-41 0 -2 27 -21 60 -42 62 -40 74 -58 75 -109 0 -20 5 -30 15 -30 10 0 14 7
11 20 -2 11 -5 47 -6 80 -2 33 -7 89 -11 125 -16 133 -5 193 39 209 36 14 90
1 115 -27z m-523 -68 l-15 -29 0 28 c0 16 4 26 10 22 6 -3 10 -1 10 6 0 7 2
10 5 7 3 -3 -1 -18 -10 -34z m1412 -256 c-3 -8 -6 -5 -6 6 -1 11 2 17 5 13 3
-3 4 -12 1 -19z m-277 -61 c0 -2 -10 -12 -22 -23 l-23 -19 19 23 c18 21 26 27
26 19z m-1209 -32 c0 -11 2 -46 3 -77 2 -32 -1 -58 -6 -58 -18 0 -74 44 -85
67 -6 12 -7 21 -3 18 5 -3 11 12 15 33 6 36 8 38 41 38 27 -1 34 -5 35 -21z
m-2640 -220 c24 -9 49 -13 56 -11 7 3 15 1 18 -4 6 -11 -124 -34 -190 -33 -27
0 -75 3 -104 6 -30 3 -60 2 -65 -3 -19 -15 -95 -21 -133 -10 -21 6 -65 14 -98
17 -33 3 -67 9 -77 14 -11 6 -18 5 -20 -3 -5 -13 -78 -2 -78 12 0 11 31 13
125 9 33 -1 80 -2 105 -1 25 1 95 2 155 2 61 1 130 5 155 9 71 13 104 12 151
-4z m2769 -54 c-10 -20 -30 -37 -30 -27 0 6 33 46 38 46 1 0 -2 -9 -8 -19z
m-3577 -21 c3 -11 1 -18 -4 -14 -5 3 -9 12 -9 20 0 20 7 17 13 -6z m3547 -50
c72 -7 106 -8 108 0 5 14 44 12 65 -5 11 -8 17 -23 16 -37 -2 -13 0 -29 4 -35
12 -20 -24 -3 -51 23 -16 16 -19 24 -10 27 8 4 7 6 -4 6 -10 1 -18 -6 -18 -14
0 -8 -7 -15 -17 -15 -13 0 -11 -4 8 -21 35 -31 198 -109 204 -99 8 13 95 -42
88 -55 -4 -5 -3 -7 2 -3 4 4 21 0 37 -8 28 -14 30 -19 24 -52 -4 -21 -11 -73
-17 -117 -5 -44 -14 -84 -20 -90 -21 -21 -124 -7 -304 42 -61 16 -71 14 -150
-35 -76 -46 -144 -77 -152 -69 -14 15 75 128 133 168 23 15 44 37 47 49 6 24
9 24 -39 4 -26 -11 -39 -13 -42 -5 -2 6 -8 11 -14 11 -6 0 -6 -6 2 -15 10 -11
6 -17 -23 -32 -19 -10 -56 -33 -82 -51 -25 -19 -49 -31 -52 -28 -16 15 -3 69
26 114 31 49 63 71 144 101 15 6 27 17 27 26 0 19 -7 19 -58 1 -22 -8 -42 -12
-45 -10 -15 16 -127 -78 -127 -106 0 -23 -29 -8 -35 18 -7 33 0 52 40 114 30
47 44 58 100 79 l30 12 -30 8 c-36 11 -105 -20 -143 -63 -13 -16 -31 -28 -39
-28 -12 0 -14 7 -9 28 4 15 10 41 13 57 7 39 17 50 78 92 56 38 55 38 285 13z
m-1020 -95 c10 -12 10 -21 1 -41 -6 -14 -11 -36 -11 -49 0 -14 -4 -25 -9 -25
-10 0 -9 -19 1 -35 7 -12 4 -164 -4 -208 -7 -37 -12 -41 -38 -27 -16 8 -19 15
-11 24 6 7 8 16 5 19 -11 11 -23 91 -17 115 7 31 23 27 23 -6 0 -16 6 -36 13
-46 11 -16 12 -7 6 52 -4 39 -12 80 -18 91 -17 32 -13 60 14 89 17 18 21 28
12 34 -6 4 -15 2 -19 -5 -6 -9 -8 -9 -8 0 0 11 26 32 41 33 4 0 12 -7 19 -15z
m1365 -67 c6 -7 2 -6 -11 0 -15 8 -24 8 -32 0 -9 -9 -12 -8 -12 4 0 9 -8 19
-19 23 -10 3 -27 15 -37 26 -15 17 -7 15 41 -11 33 -17 65 -37 70 -42z m-3920
14 c29 -20 47 -66 42 -105 -3 -23 -1 -50 5 -60 7 -15 6 -23 -6 -35 -14 -14
-19 -14 -59 6 -24 12 -47 22 -51 22 -3 0 -6 -43 -6 -95 0 -52 -5 -138 -10
-192 -14 -137 -49 -534 -66 -748 -16 -206 -20 -229 -39 -212 -9 9 -12 35 -9
92 14 302 14 300 40 565 14 156 34 433 34 496 0 88 -12 107 -65 102 -27 -2
-40 -8 -41 -18 -1 -33 -16 -60 -34 -60 -22 0 -42 -50 -102 -250 -22 -74 -59
-198 -83 -275 -24 -77 -58 -189 -76 -250 -17 -60 -36 -118 -41 -127 -11 -22
-34 -23 -42 -3 -9 23 29 171 90 355 31 91 78 239 105 330 71 238 94 294 136
330 33 29 40 31 98 28 60 -3 64 -1 86 27 31 41 72 85 78 85 3 0 11 -4 16 -8z
m4051 -73 c3 -5 -6 -9 -20 -9 -24 0 -41 12 -30 23 7 7 43 -3 50 -14z m3645
-40 c13 -25 -5 -69 -29 -69 -11 0 -13 8 -7 37 11 59 18 65 36 32z m-5290 -62
c-10 -9 -11 -8 -5 6 3 10 9 15 12 12 3 -3 0 -11 -7 -18z m-18 -57 c-4 -30 -1
-45 12 -60 10 -11 14 -20 10 -20 -5 0 0 -6 11 -14 10 -8 16 -18 12 -22 -12
-12 13 -34 38 -34 29 0 30 -9 6 -41 -10 -13 -38 -57 -62 -96 -42 -73 -55 -89
-43 -55 4 11 3 14 -4 7 -21 -20 -229 -272 -273 -330 -25 -33 -47 -62 -50 -65
-4 -3 -20 -26 -38 -53 -17 -26 -36 -53 -42 -60 -6 -6 -45 -57 -86 -112 -41
-54 -93 -120 -116 -145 -22 -25 -49 -67 -59 -95 -21 -55 -24 -69 -8 -42 11 19
29 14 29 -8 0 -7 -18 -33 -40 -57 -22 -23 -40 -46 -40 -50 0 -5 -6 -8 -14 -8
-8 0 -16 -8 -18 -17 -3 -11 -10 -1 -19 27 l-16 45 -41 -65 c-23 -36 -48 -74
-55 -85 -23 -33 -135 -81 -202 -88 -60 -6 -116 -29 -213 -86 -29 -17 -57 -31
-62 -31 -36 0 -78 -96 -117 -271 l-15 -66 -92 -38 c-50 -20 -115 -48 -145 -61
-29 -13 -58 -24 -63 -24 -10 0 -7 33 7 76 4 15 -1 30 -20 52 -25 30 -26 32 -6
32 24 0 36 16 19 24 -7 3 -1 3 14 0 20 -5 30 -2 34 10 3 9 10 16 15 16 6 0 19
9 31 20 12 11 30 20 40 20 15 0 17 3 8 19 -7 13 -7 22 0 26 5 3 10 1 10 -6 0
-7 3 -9 7 -6 3 4 12 2 18 -3 9 -8 14 -6 19 5 3 8 12 15 20 15 7 0 17 7 20 16
5 13 9 14 21 4 14 -11 19 -7 16 13 0 4 5 7 13 7 7 0 16 8 20 18 20 56 24 72
15 72 -5 0 -9 5 -9 11 0 8 5 7 16 -2 14 -11 18 -11 28 1 6 8 17 15 24 15 6 0
12 5 11 10 0 6 -7 9 -16 7 -8 -2 -12 1 -9 6 6 11 55 22 54 13 -2 -21 4 -21 22
2 11 14 20 28 20 31 0 6 -36 0 -50 -9 -15 -9 -12 5 15 75 29 74 30 94 10 134
-8 15 -15 37 -15 48 0 17 4 19 28 13 52 -13 93 -13 143 0 46 12 52 12 67 -5
46 -50 46 -46 -13 -102 -30 -28 -55 -55 -55 -60 0 -8 34 16 155 109 6 5 26 22
46 38 20 17 46 37 59 45 13 8 33 24 44 35 12 11 23 20 26 20 11 0 45 31 47 42
2 7 12 22 23 33 11 11 20 25 20 30 0 6 6 10 14 10 9 0 12 7 9 20 -4 15 -2 19
10 14 13 -4 15 2 12 32 -2 30 0 35 9 23 12 -16 30 -18 43 -5 5 5 3 6 -4 2 -9
-5 -13 0 -13 13 0 14 5 19 15 15 8 -4 15 -1 15 4 0 6 7 17 15 25 21 22 -5 29
-30 10 -20 -16 -20 -16 0 -9 16 6 18 5 7 -6 -10 -10 -17 -8 -35 13 -34 40
-108 95 -145 107 -43 15 -80 44 -74 60 5 16 27 15 44 -2 19 -19 223 -126 240
-126 10 0 9 3 -2 10 -10 7 -11 10 -2 11 6 1 17 3 22 4 6 1 16 3 23 4 8 1 8 4
-3 11 -12 8 -12 11 0 27 15 18 15 31 11 318 0 22 4 44 9 49 5 5 34 8 65 7 44
-2 55 1 55 13 0 9 5 16 11 16 5 0 7 -4 4 -10 -3 -5 -1 -10 4 -10 6 0 11 8 11
18 0 14 2 15 10 2 5 -8 10 -12 10 -7 0 4 11 0 24 -8 18 -12 23 -24 23 -53 -1
-56 25 -44 113 50 92 99 110 125 110 161 0 15 4 27 10 27 5 0 19 19 32 43 21
41 22 41 29 17 4 -14 8 -20 8 -15 3 20 29 46 52 50 13 3 34 16 45 31 l21 26
-33 34 c-19 18 -34 36 -34 40 0 9 42 124 45 124 2 0 1 -18 -2 -40z m-458 -41
c17 -16 38 -29 47 -29 22 0 36 -20 54 -80 20 -68 11 -208 -14 -228 -11 -8 -18
-9 -20 -2 -2 5 -8 8 -12 5 -5 -3 -12 11 -15 32 -3 21 -11 46 -16 57 -6 10 -8
35 -4 56 8 48 -7 80 -35 73 -17 -4 -20 -14 -20 -55 0 -37 -5 -55 -23 -73 -29
-31 -78 -42 -96 -21 -20 24 -26 91 -9 107 13 12 13 17 -5 41 -20 27 -25 72
-14 113 3 11 6 25 6 30 1 6 29 9 74 7 64 -3 75 -7 102 -33z m5538 -99 c-1 -67
-6 -95 -20 -116 -11 -17 -22 -63 -28 -118 -6 -52 -15 -91 -22 -93 -13 -5 -53
70 -53 98 0 10 5 21 10 24 6 3 10 14 10 23 0 10 11 33 24 52 20 30 24 48 24
118 0 65 4 88 18 103 29 32 39 7 37 -91z m-7743 -11 c-6 -34 -28 -75 -31 -58
-8 47 -7 57 11 77 12 12 22 22 24 22 2 0 0 -18 -4 -41z m7362 -186 c30 -22 45
-39 41 -48 -7 -19 -23 -19 -47 0 -24 18 -71 21 -60 4 5 -9 -1 -10 -22 -4 -16
4 -40 9 -54 10 -36 3 -36 3 -37 25 -2 22 8 30 57 46 45 15 64 9 122 -33z
m-4742 -73 c-6 -11 -13 -20 -16 -20 -2 0 0 9 6 20 6 11 13 20 16 20 2 0 0 -9
-6 -20z m-4073 -52 c-3 -8 -6 -5 -6 6 -1 11 2 17 5 13 3 -3 4 -12 1 -19z
m4045 0 c-7 -7 -12 -8 -12 -2 0 14 12 26 19 19 2 -3 -1 -11 -7 -17z m-21 -35
c-5 -10 -17 -27 -26 -38 -16 -19 -16 -19 -4 5 13 27 29 50 36 50 2 0 -1 -8 -6
-17z m4959 -11 c17 -8 23 -42 8 -42 -19 0 -48 21 -48 35 0 16 15 18 40 7z
m-8846 -22 c-23 -10 -67 -21 -98 -25 -48 -6 -55 -5 -50 8 7 20 64 35 134 35
l55 1 -41 -19z m114 -57 c4 -26 -5 -28 -113 -38 -75 -6 -139 -30 -193 -72
l-35 -26 -17 21 c-13 16 -20 18 -29 9 -9 -9 -14 -8 -21 3 -16 25 -11 38 25 65
34 27 61 26 51 -1 -7 -19 1 -18 41 7 59 36 142 58 218 56 64 -2 70 -4 73 -24z
m3717 -3 c-9 -16 -18 -30 -21 -30 -2 0 2 14 11 30 9 17 18 30 21 30 2 0 -2
-13 -11 -30z m5023 -52 c-2 -13 -10 -23 -18 -23 -8 0 -16 10 -18 23 -3 17 2
22 18 22 16 0 21 -5 18 -22z m-5055 -1 c-26 -43 -86 -127 -90 -127 -5 0 1 11
49 83 21 31 41 57 44 57 3 0 1 -6 -3 -13z m-2916 -3 c13 -4 20 -10 17 -15 -8
-13 -28 -11 -50 6 -21 16 -8 20 33 9z m7326 -75 c21 -15 27 -29 27 -57 0 -53
-12 -65 -63 -66 -45 -1 -45 -1 -51 39 -4 22 -9 54 -12 70 -5 29 -4 30 34 33
27 1 47 -4 65 -19z m-9055 -23 c24 -24 -7 -35 -73 -25 -33 5 -87 11 -120 15
-57 6 -59 6 -35 20 31 18 208 11 228 -10z m9785 8 c11 -11 -5 -34 -24 -34 -18
0 -26 20 -12 33 8 9 28 9 36 1z m-9124 -67 c9 -11 -14 -19 -127 -41 -156 -31
-196 -47 -269 -111 -28 -25 -53 -45 -56 -45 -10 0 2 50 17 72 20 28 94 78 116
78 10 0 39 10 66 22 66 29 98 36 175 37 45 1 70 -3 78 -12z m9020 -31 c7 -8 9
-29 6 -52 -4 -22 -8 -52 -10 -69 -1 -16 -3 -33 -4 -37 0 -4 -16 -11 -34 -16
-75 -21 -144 18 -135 77 3 21 0 31 -9 31 -7 0 -13 4 -13 9 0 21 34 41 69 41
20 0 46 7 57 15 24 18 58 19 73 1z m-8604 -40 c142 -6 247 -23 242 -40 -2 -6
-21 -13 -43 -14 -55 -5 -264 19 -264 30 0 10 -69 7 -76 -4 -9 -13 -30 -9 -53
11 -20 18 -21 20 -4 23 10 3 32 3 48 2 17 -2 84 -6 150 -8z m-571 -21 c-4 -9
0 -15 7 -16 18 0 -66 -34 -108 -44 -29 -6 -33 -4 -33 13 0 20 51 46 110 55 14
2 26 5 27 6 1 0 0 -6 -3 -14z m9372 -20 c8 -11 14 -27 14 -37 0 -15 -9 -18
-60 -20 -33 -1 -68 -2 -77 -2 -22 -1 -27 22 -13 59 10 26 13 27 67 23 39 -3
60 -10 69 -23z m-510 -25 c7 -19 13 -61 13 -92 1 -63 -3 -59 138 -133 54 -29
66 -43 54 -63 -5 -8 -22 -3 -54 18 -26 17 -54 30 -62 30 -8 0 -29 9 -49 20
-19 12 -37 17 -40 12 -3 -6 1 -12 9 -16 11 -4 15 -21 15 -60 0 -58 12 -73 80
-103 31 -13 164 -111 168 -124 2 -5 -3 -11 -11 -15 -13 -4 -54 18 -139 77 -15
10 -46 25 -70 33 l-43 15 30 -25 c17 -13 49 -33 72 -45 23 -11 53 -29 67 -40
22 -17 24 -23 14 -43 -5 -13 -24 -34 -40 -46 -25 -19 -37 -21 -91 -15 -61 6
-62 6 -79 -24 -21 -39 -53 -43 -46 -6 3 14 0 29 -6 34 -6 5 -63 12 -126 14
-63 3 -134 8 -157 12 l-43 7 0 134 0 133 28 13 c22 11 28 21 30 56 2 28 8 42
18 42 8 0 14 10 14 22 0 17 3 19 12 10 7 -7 20 -12 30 -12 17 0 16 2 -3 39
-26 51 -40 138 -24 151 7 6 50 10 96 9 46 0 95 4 109 10 45 19 72 9 86 -29z
m-9029 -47 c5 -13 -68 -84 -79 -77 -15 10 -8 32 22 64 29 31 50 35 57 13z
m1773 -48 c10 -12 10 -18 1 -29 -9 -11 -10 -20 -1 -36 18 -34 4 -60 -33 -60
-41 0 -52 8 -61 45 -14 57 -12 69 14 82 33 17 65 16 80 -2z m6924 5 c18 -7 26
-17 26 -34 0 -32 -29 -48 -69 -40 -27 6 -31 11 -31 40 0 26 5 33 23 37 12 2
23 5 24 6 1 0 13 -3 27 -9z m-7193 -105 c7 -97 12 -115 42 -158 19 -27 103
-77 131 -77 8 0 16 -5 18 -10 2 -6 12 -3 23 7 86 77 96 83 140 83 24 0 74 -7
112 -16 37 -9 84 -16 103 -15 47 1 69 -13 54 -36 -9 -14 -25 -18 -75 -18 -36
0 -75 -7 -89 -15 -37 -21 -250 -24 -317 -5 -102 30 -183 159 -183 291 0 57 2
65 18 62 14 -3 18 -18 23 -93z m-411 47 c0 -10 7 -27 15 -39 13 -19 13 -21 -4
-26 -41 -10 -69 41 -39 71 17 17 28 15 28 -6z m1827 -23 c56 -21 123 -109 83
-109 -19 0 -10 -27 25 -74 44 -56 34 -59 -73 -19 -62 22 -78 33 -103 70 -25
35 -28 47 -19 58 7 8 10 24 7 35 -3 13 2 25 16 35 26 18 28 18 64 4z m694
-122 c-10 -9 -11 -8 -5 6 3 10 9 15 12 12 3 -3 0 -11 -7 -18z m-1144 -12 c1
-15 0 -15 -3 -3 -3 9 -13 19 -22 22 -12 3 -12 4 3 3 12 -1 21 -10 22 -22z
m-1854 8 c-7 -2 -19 -2 -25 0 -7 3 -2 5 12 5 14 0 19 -2 13 -5z m8702 -13 c3
-6 -1 -7 -9 -4 -18 7 -21 14 -7 14 6 0 13 -4 16 -10z m-8732 -17 c-7 -2 -21
-2 -30 0 -10 3 -4 5 12 5 17 0 24 -2 18 -5z m8722 -3 c3 -5 2 -10 -4 -10 -5 0
-13 5 -16 10 -3 6 -2 10 4 10 5 0 13 -4 16 -10z m-9225 -10 c-8 -5 -22 -10
-30 -10 -13 0 -13 1 0 10 8 5 22 10 30 10 13 0 13 -1 0 -10z m9453 -37 c4 -2
7 -11 7 -19 0 -12 -8 -13 -37 -8 -46 8 -47 9 -39 29 4 11 13 14 33 9 16 -4 31
-9 36 -11z m-6918 -9 c71 -18 115 -55 115 -96 0 -35 -24 -48 -78 -43 -40 4
-101 29 -112 46 -3 4 -26 13 -52 20 -40 11 -51 10 -94 -7 -38 -15 -58 -18 -89
-12 -22 4 -56 11 -75 14 -50 8 -80 25 -80 45 0 24 19 29 134 36 56 3 102 7
104 8 11 10 177 2 227 -11z m800 6 c-3 -5 -12 -10 -18 -10 -7 0 -6 4 3 10 19
12 23 12 15 0z m6110 -175 c14 -1 21 -10 23 -29 3 -27 3 -27 -45 -20 -58 8
-63 10 -63 33 0 26 11 33 40 25 14 -4 34 -8 45 -9z m-9467 -48 c18 -9 75 -14
167 -15 447 -6 1129 -90 1362 -167 94 -32 177 -84 199 -126 8 -17 18 -55 21
-85 5 -48 3 -59 -22 -94 -53 -77 -69 -82 -313 -91 -393 -16 -715 -30 -834 -36
-82 -4 -118 -2 -118 5 0 22 79 33 300 42 124 5 311 14 415 20 105 6 235 10
291 10 135 0 183 17 235 82 21 27 39 56 39 64 0 18 -41 83 -67 106 -87 78
-646 174 -1213 207 -96 6 -247 16 -335 22 -88 6 -171 9 -184 8 -27 -5 -47 20
-38 45 8 20 57 21 95 3z m-148 -12 c6 -8 10 -22 8 -32 -2 -13 -21 -20 -85 -29
-89 -12 -134 -34 -167 -77 -17 -23 -21 -40 -18 -94 5 -123 108 -279 217 -328
45 -21 147 -33 283 -35 14 0 21 -4 17 -11 -5 -7 -57 -9 -155 -7 -81 2 -146 7
-143 12 3 4 -4 5 -15 2 -14 -5 -22 -2 -26 11 -3 10 -30 42 -60 72 -137 134
-184 338 -101 430 65 71 213 124 245 86z m9340 -45 c43 0 66 -21 72 -68 5 -37
-8 -52 -25 -28 -7 9 -31 16 -60 18 -40 2 -51 8 -64 29 -15 24 -15 28 3 46 11
12 23 16 29 12 5 -5 25 -9 45 -9z m-7384 -25 c29 -29 32 -21 -39 -107 -21 -27
-47 -48 -57 -48 -27 0 -59 46 -55 78 1 15 3 32 4 38 0 6 10 23 22 38 28 36 89
37 125 1z m646 -134 c16 -6 27 -22 36 -56 14 -53 10 -67 -18 -57 -17 7 -70 91
-70 113 0 11 22 12 52 0z m-2435 -55 c-4 -9 -11 -16 -17 -16 -17 0 -24 31 -9
41 18 11 34 -5 26 -25z m115 0 c24 -36 -7 -41 -33 -5 l-22 31 24 -7 c13 -4 27
-13 31 -19z m-104 -78 c22 -22 14 -38 -18 -35 -36 4 -44 11 -37 32 7 18 38 20
55 3z m9174 -13 c0 -6 4 -20 9 -31 10 -28 2 -36 -22 -21 -16 10 -21 9 -29 -3
-11 -17 -13 0 -4 25 5 13 8 14 15 3 6 -9 11 -10 19 -2 9 9 9 14 1 18 -6 4 -11
12 -11 17 0 13 21 7 22 -6z m-6697 -45 c0 -16 -6 -26 -17 -28 -14 -3 -18 3
-18 28 0 25 4 31 18 28 11 -2 17 -12 17 -28z m6800 0 c3 -5 1 -10 -4 -10 -6 0
-11 5 -11 10 0 6 2 10 4 10 3 0 8 -4 11 -10z m32 -12 c-3 -8 -6 -5 -6 6 -1 11
2 17 5 13 3 -3 4 -12 1 -19z m-9297 3 c0 -6 -4 -13 -10 -16 -5 -3 -10 1 -10 9
0 9 5 16 10 16 6 0 10 -4 10 -9z m6500 -13 c0 -21 -20 -64 -20 -44 0 5 -7 3
-16 -5 -9 -7 -18 -9 -22 -3 -4 5 -21 9 -39 9 -25 -1 -30 2 -21 13 8 9 13 10
18 2 5 -8 9 -6 13 5 6 14 58 43 80 45 4 0 7 -10 7 -22z m2846 -25 c-7 -7 -26
7 -26 19 0 6 6 6 15 -2 9 -7 13 -15 11 -17z m-253 -17 c4 -9 -2 -17 -13 -21
-24 -8 -40 1 -40 21 0 19 46 19 53 0z m-2746 -38 c-6 -3 -15 -4 -21 -1 -5 3
-6 1 -2 -5 4 -7 3 -12 -3 -12 -6 0 -8 -7 -4 -16 5 -13 7 -13 14 -2 7 10 9 8
10 -7 0 -11 3 -14 6 -7 5 14 23 17 23 4 0 -5 -11 -14 -24 -20 -22 -10 -25 -8
-35 20 -16 45 -14 58 12 67 24 9 45 -8 24 -21z m2925 8 c13 -20 -12 -32 -27
-13 -7 10 -22 18 -32 17 -30 -4 -39 0 -23 9 17 11 72 2 82 -13z m76 0 c3 -14
-2 -17 -24 -14 -32 4 -43 24 -17 31 27 7 38 2 41 -17z m-2903 -14 c-3 -3 -11
0 -18 7 -9 10 -8 11 6 5 10 -3 15 -9 12 -12z m-5371 -175 c13 -21 -5 -37 -41
-37 -33 0 -39 21 -13 42 26 21 39 20 54 -5z m-654 4 c0 -18 -12 -41 -22 -41
-6 0 -8 7 -4 15 5 14 -5 20 -27 16 -5 -1 -6 3 -2 9 8 12 55 13 55 1z m8610
-51 c11 -8 9 -9 -12 -8 -16 1 -28 6 -28 10 0 11 22 10 40 -2z m135 -42 c-3 6
-2 12 3 12 18 0 21 -28 4 -33 -21 -5 -46 19 -37 34 4 6 12 3 22 -8 8 -10 12
-12 8 -5z m-7485 -33 c0 -31 -27 -40 -41 -14 -15 28 -5 49 20 42 14 -3 21 -14
21 -28z m-570 1 c0 -8 10 -17 23 -19 16 -3 14 -5 -9 -6 -21 -1 -34 5 -38 15
-3 8 -10 13 -15 9 -5 -3 -12 -1 -16 5 -4 6 6 10 24 10 20 0 31 -5 31 -14z
m-51 -160 c-1 -39 -4 -65 -6 -58 -3 6 -8 10 -11 8 -4 -2 -8 12 -9 32 -1 21 -4
53 -7 72 -2 19 1 41 7 48 17 21 28 -19 26 -102z m-1359 79 c-7 -9 -15 -13 -18
-10 -3 2 1 11 8 20 7 9 15 13 18 10 3 -2 -1 -11 -8 -20z"/>
<path d="M9048 6613 c-44 -11 -1 -43 59 -43 55 0 71 13 42 34 -22 15 -64 19
-101 9z"/>
<path d="M9147 5850 c-5 -21 0 -30 20 -30 17 0 17 36 -1 43 -8 3 -16 -2 -19
-13z"/>
<path d="M9563 5425 c-7 -20 2 -29 21 -22 9 4 13 13 10 22 -8 19 -23 19 -31 0z"/>
<path d="M9267 5403 c-9 -9 -9 -23 1 -21 4 1 19 -4 33 -11 19 -10 26 -20 25
-41 -1 -15 -4 -26 -8 -23 -11 6 -10 -2 8 -47 9 -22 14 -49 11 -61 -3 -12 0
-22 9 -26 8 -3 12 -9 9 -13 -2 -4 6 -7 19 -7 34 0 73 -32 93 -75 17 -35 21
-38 64 -38 l45 0 -3 48 c-3 26 -5 53 -5 60 -1 6 -4 12 -8 12 -18 0 -39 62 -41
121 -2 83 -12 102 -49 97 -18 -3 -26 0 -24 7 3 7 -1 12 -8 13 -7 1 -35 4 -62
8 -36 5 -51 3 -58 -7 -7 -11 -11 -11 -15 -1 -5 13 -25 16 -36 5z m143 -23 c0
-5 -4 -10 -10 -10 -5 0 -10 5 -10 10 0 6 5 10 10 10 6 0 10 -4 10 -10z"/>
<path d="M9267 5322 c3 -14 11 -18 24 -15 19 5 27 23 10 23 -5 0 -16 3 -24 6
-12 4 -14 0 -10 -14z"/>
<path d="M9238 5303 c7 -3 16 -2 19 1 4 3 -2 6 -13 5 -11 0 -14 -3 -6 -6z"/>
<path d="M9680 5145 c7 -8 8 -15 3 -15 -5 0 -9 -16 -9 -35 0 -32 14 -51 17
-22 1 6 3 23 4 37 3 30 -4 50 -17 50 -6 0 -5 -6 2 -15z"/>
<path d="M7960 5523 c-46 -23 -48 -56 -5 -61 34 -4 57 -20 49 -33 -3 -5 5 -9
18 -9 13 0 39 -3 60 -6 33 -6 38 -4 53 26 21 41 9 55 -41 45 -24 -4 -33 -9
-25 -14 9 -6 6 -10 -11 -14 -15 -5 -27 -1 -35 10 -18 23 -17 26 15 45 25 16
25 17 5 18 -12 0 -27 2 -35 5 -7 3 -29 -3 -48 -12z"/>
<path d="M8070 5200 c0 -5 -7 -10 -16 -10 -25 0 -82 -30 -88 -46 -4 -11 3 -13
29 -11 19 1 35 5 35 10 0 4 16 15 35 24 35 17 48 43 20 43 -8 0 -15 -4 -15
-10z"/>
<path d="M8143 5081 c-51 -15 -70 -31 -37 -31 29 0 114 32 108 41 -6 11 -5 11
-71 -10z"/>
<path d="M8620 5049 c0 -5 -4 -8 -10 -4 -5 3 -18 -3 -29 -14 -12 -12 -27 -18
-36 -15 -8 4 -15 1 -15 -7 0 -7 -3 -10 -6 -6 -4 3 -13 0 -21 -8 -17 -18 -33
-19 -33 -4 0 5 -5 7 -11 3 -8 -4 -7 -9 2 -14 21 -14 -8 -41 -36 -34 -15 4 -27
0 -36 -13 -8 -10 -25 -24 -39 -31 -14 -7 -35 -19 -48 -26 l-23 -13 23 -8 c19
-6 20 -8 6 -12 -14 -3 -15 -8 -6 -28 16 -36 38 -39 65 -10 13 14 31 25 39 25
8 0 13 4 9 10 -3 5 -12 7 -19 4 -8 -3 -17 -1 -21 5 -3 6 2 11 12 11 10 0 36 9
57 20 35 17 41 18 68 4 26 -14 31 -13 56 4 44 32 61 56 77 108 19 63 19 64 -5
64 -11 0 -20 -5 -20 -11z"/>
<path d="M8079 5035 c-1 -5 -1 -14 0 -19 1 -5 -5 -6 -12 -3 -11 4 -15 -4 -15
-34 0 -21 3 -41 9 -44 5 -4 9 -19 9 -34 0 -33 56 -96 86 -96 10 0 26 -6 34
-14 13 -13 16 -10 24 18 7 25 5 41 -12 75 -12 24 -22 51 -22 60 0 10 -13 22
-31 28 -20 7 -27 13 -19 18 9 6 6 12 -11 20 -13 7 -27 18 -31 24 -5 7 -8 7 -9
1z"/>
<path d="M5318 2499 c-20 -11 -63 -78 -55 -86 9 -8 22 3 52 47 30 43 31 55 3
39z"/>
<path d="M4894 2054 c-18 -14 -18 -14 6 -3 31 14 36 19 24 19 -6 0 -19 -7 -30
-16z"/>
<path d="M4910 1985 c-11 -13 -15 -13 -22 -3 -5 8 -6 4 -3 -12 5 -19 0 -31
-15 -45 -12 -11 -25 -18 -28 -15 -4 3 -8 -10 -9 -29 -3 -33 -1 -31 47 38 28
41 49 75 47 78 -2 2 -10 -4 -17 -12z"/>
<path d="M4840 1975 c0 -2 10 -10 23 -16 20 -11 21 -11 8 4 -13 16 -31 23 -31
12z"/>
<path d="M4815 1940 c-3 -6 1 -7 9 -4 18 7 21 14 7 14 -6 0 -13 -4 -16 -10z"/>
<path d="M4741 1878 c-1 -12 6 -18 19 -18 11 0 20 5 20 11 0 6 -6 9 -14 6 -8
-3 -17 -1 -20 6 -2 7 -5 4 -5 -5z"/>
<path d="M4710 1832 c0 -18 4 -32 10 -32 5 0 7 6 4 13 -3 8 5 19 18 26 13 6
16 10 7 7 -9 -2 -22 1 -28 7 -8 8 -11 3 -11 -21z"/>
<path d="M4686 1813 c-6 -14 -5 -15 5 -6 7 7 10 15 7 18 -3 3 -9 -2 -12 -12z"/>
<path d="M4555 1530 c-16 -7 -17 -9 -3 -9 9 -1 20 4 23 9 7 11 7 11 -20 0z"/>
<path d="M9634 1572 c4 -7 1 -12 -9 -12 -14 0 -14 -3 0 -29 12 -24 23 -31 62
-37 64 -9 115 5 119 33 4 25 -4 28 -91 37 -27 2 -59 8 -69 12 -14 5 -17 4 -12
-4z"/>
<path d="M2300 7149 c11 -20 12 -20 25 -2 10 14 16 15 26 6 12 -12 39 -7 39 8
0 5 -23 9 -50 9 -48 0 -50 -1 -40 -21z"/>
<path d="M4195 7138 c-13 -42 -48 -62 -166 -92 -142 -37 -284 -55 -494 -62
-104 -3 -215 -7 -245 -9 -30 -2 -83 -4 -117 -4 -56 -1 -61 -3 -56 -21 3 -11 9
-18 13 -15 15 9 50 -27 56 -60 7 -39 29 -47 119 -44 28 1 104 -3 170 -10 66
-6 170 -16 230 -22 61 -6 131 -13 158 -16 43 -4 47 -3 47 16 0 12 5 21 11 21
6 0 8 7 5 17 -6 16 -6 16 12 0 25 -23 65 -27 78 -9 12 16 15 17 84 30 83 16
117 36 122 73 4 28 40 137 73 222 6 15 1 17 -42 17 -46 0 -49 -2 -58 -32z"/>
<path d="M4730 7151 c0 -10 11 -29 23 -43 27 -29 67 -46 67 -28 0 6 6 10 13 7
6 -2 17 3 23 11 6 8 25 13 50 13 21 -1 47 -2 57 -2 9 0 17 -4 17 -9 0 -5 15
-4 32 1 40 11 40 11 34 1 -7 -12 37 -9 46 2 3 5 21 10 40 11 18 1 40 4 48 7
43 16 89 25 85 18 -3 -5 4 -8 15 -7 11 1 20 4 20 8 0 4 9 5 20 2 14 -4 20 0
20 11 0 14 -31 16 -305 16 -290 0 -305 -1 -305 -19z"/>
<path d="M4572 7023 c-18 -34 -35 -98 -38 -138 -2 -22 -6 -57 -10 -77 -4 -26
-3 -38 5 -38 23 0 141 55 138 65 -2 5 9 43 25 85 16 41 30 79 31 85 3 13 -60
34 -105 34 -26 1 -40 -4 -46 -16z"/>
<path d="M5321 6951 c-12 -8 -13 -16 -3 -50 11 -35 18 -42 51 -51 34 -9 247
-25 463 -35 47 -2 113 -11 146 -20 64 -16 119 -20 125 -7 2 4 -3 42 -11 85
l-14 77 -307 1 c-168 0 -335 3 -371 5 -36 2 -71 0 -79 -5z"/>
<path d="M6155 6938 c17 -57 59 -62 67 -9 4 30 3 31 -34 31 -36 0 -39 -2 -33
-22z"/>
<path d="M50 6936 c0 -1 5 -17 11 -35 12 -34 26 -36 43 -7 9 13 7 20 -8 32
-18 13 -46 19 -46 10z"/>
<path d="M4844 6780 c-118 -13 -155 -21 -161 -37 -12 -30 26 -44 100 -39 38 3
74 10 81 15 7 6 15 8 18 5 3 -3 30 6 59 20 29 14 58 26 65 26 7 0 16 5 19 10
7 11 -71 11 -181 0z"/>
<path d="M4095 6629 c-21 -16 -41 -32 -44 -34 -2 -3 25 -3 60 0 194 17 190 16
179 30 -6 7 -32 16 -58 19 -26 4 -58 9 -72 11 -17 3 -38 -6 -65 -26z"/>
<path d="M6450 6610 c-47 -3 -80 -9 -73 -13 14 -9 135 -23 269 -31 50 -3 104
-8 120 -11 42 -8 57 5 45 38 l-10 26 -133 -2 c-73 -1 -171 -4 -218 -7z"/>
<path d="M5707 6313 c-16 -15 -2 -118 14 -107 5 3 9 -1 9 -10 0 -8 -6 -16 -12
-19 -25 -9 1 -19 52 -20 39 -2 55 2 64 15 7 10 16 14 21 10 4 -4 4 3 1 16 -6
16 -3 22 8 22 9 0 16 -3 17 -7 5 -54 11 -59 77 -66 l52 -6 1 42 c2 65 -7 100
-18 69 -3 -6 -9 -10 -14 -7 -5 4 -28 8 -51 11 -24 2 -49 7 -56 9 -7 3 -10 0
-7 -5 3 -6 1 -10 -4 -10 -6 0 -11 5 -11 11 0 5 -5 7 -11 3 -11 -7 -84 21 -110
43 -9 7 -19 10 -22 6z"/>
<path d="M5240 6150 c0 -29 14 -37 52 -31 4 0 21 -13 37 -30 30 -29 31 -30 39
-10 4 11 12 19 17 18 6 -1 11 17 13 41 l3 42 -80 0 -81 0 0 -30z"/>
<path d="M5080 6131 c-5 -11 -10 -49 -10 -85 0 -38 -7 -83 -17 -107 -16 -41
-16 -42 8 -60 13 -10 27 -19 32 -19 4 0 7 35 7 78 0 42 3 107 7 145 6 69 -5
89 -27 48z"/>
<path d="M4860 6039 c0 -5 5 -7 10 -4 6 3 10 8 10 11 0 2 -4 4 -10 4 -5 0 -10
-5 -10 -11z"/>
<path d="M5240 5994 c0 -28 4 -35 16 -32 9 2 22 12 28 23 6 11 18 25 26 32 12
10 8 12 -27 13 -43 0 -43 0 -43 -36z"/>
<path d="M4729 5961 c-14 -14 -31 -41 -38 -58 -7 -18 -18 -33 -24 -33 -18 0
27 -28 54 -34 18 -4 34 4 68 34 l43 40 -25 11 c-15 7 -27 23 -31 40 -7 35 -13
35 -47 0z"/>
<path d="M4570 5880 c0 -21 16 -26 39 -11 18 11 5 31 -20 31 -12 0 -19 -7 -19
-20z"/>
<path d="M5340 5439 c-30 -4 -75 -17 -100 -28 -25 -11 -59 -21 -77 -21 -33 0
-104 -53 -90 -67 12 -11 49 -14 42 -3 -3 5 0 10 8 10 21 0 28 -12 15 -27 -8
-10 -8 -12 3 -8 21 8 23 -59 3 -76 -16 -13 -125 -16 -145 -3 -5 3 -9 1 -9 -5
0 -5 -3 -18 -7 -28 -6 -17 -5 -16 16 2 16 14 22 15 19 5 -2 -8 -10 -21 -18
-28 -8 -7 -10 -12 -5 -11 24 3 36 -2 29 -12 -8 -14 57 21 68 36 4 6 8 -9 8
-33 0 -26 4 -41 10 -37 10 6 14 -13 10 -48 -1 -10 17 -47 39 -82 22 -35 45
-82 49 -103 9 -38 62 -138 62 -117 0 6 3 5 8 -1 4 -7 24 -9 52 -5 76 10 78 22
82 378 2 192 -1 305 -7 311 -5 4 -35 5 -65 1z m-290 -264 c7 -9 8 -15 2 -15
-5 0 -12 7 -16 15 -3 8 -4 15 -2 15 2 0 9 -7 16 -15z"/>
<path d="M4427 5323 c-17 -63 -17 -72 3 -78 17 -5 20 -15 20 -70 0 -60 1 -63
27 -68 31 -6 52 12 76 65 10 20 22 40 27 43 17 10 11 25 -10 25 -11 0 -20 6
-20 13 -1 18 -43 63 -66 69 -10 3 -26 9 -36 13 -11 4 -18 1 -21 -12z"/>
<path d="M4855 5230 c-10 -11 -24 -20 -30 -20 -9 0 -6 -14 8 -42 12 -24 24
-45 28 -48 6 -5 12 -23 23 -72 4 -17 13 -28 23 -28 9 0 13 3 10 7 -4 3 0 17 9
31 11 17 12 22 3 17 -8 -5 -6 0 3 11 14 16 15 23 5 33 -9 10 -8 11 6 6 16 -7
22 3 18 28 0 4 3 7 7 7 13 0 8 55 -5 56 -7 1 -20 2 -28 3 -8 0 -15 8 -15 16 0
22 -44 19 -65 -5z"/>
<path d="M4694 4773 c-11 -58 4 -81 69 -108 l57 -23 21 30 c31 43 14 77 -59
111 -31 15 -62 27 -69 27 -7 0 -15 -16 -19 -37z"/>
<path d="M5978 4623 c7 -3 16 -2 19 1 4 3 -2 6 -13 5 -11 0 -14 -3 -6 -6z"/>
<path d="M5096 4162 c-2 -4 -1 -14 4 -21 6 -11 10 -9 19 8 10 17 9 21 -3 21
-8 0 -17 -4 -20 -8z"/>
<path d="M5095 4049 c4 -6 14 -8 22 -5 8 3 11 2 8 -3 -8 -14 13 -24 33 -16 16
6 15 8 -2 21 -23 16 -70 19 -61 3z"/>
<path d="M4160 3198 c0 -5 5 -6 12 -2 7 4 8 3 4 -4 -4 -7 -16 -12 -27 -12 -23
0 -26 -35 -4 -44 8 -3 32 0 53 7 29 9 37 17 37 36 0 20 -5 24 -37 26 -21 1
-38 -2 -38 -7z"/>
<path d="M9940 471 c0 -6 4 -13 10 -16 6 -3 7 1 4 9 -7 18 -14 21 -14 7z"/>
<path d="M9464 359 c-3 -5 -11 -6 -17 -2 -7 4 -5 -1 3 -12 13 -15 15 -16 18
-3 2 10 10 14 23 11 10 -3 19 -3 19 0 0 9 -40 15 -46 6z"/>
<path d="M9600 359 c0 -6 -6 -7 -12 -3 -10 5 -10 4 -1 -6 7 -8 16 -9 28 -3 16
9 16 11 1 16 -9 4 -16 2 -16 -4z"/>
<path d="M9645 340 c-3 -5 1 -10 10 -10 9 0 13 5 10 10 -3 6 -8 10 -10 10 -2
0 -7 -4 -10 -10z"/>
<path d="M9320 222 c0 -7 -4 -11 -9 -7 -5 3 -12 1 -15 -4 -8 -12 17 -21 32
-12 7 4 8 12 2 21 -7 11 -10 12 -10 2z"/>
<path d="M9350 209 c0 -6 4 -8 9 -4 6 3 14 -3 20 -12 10 -17 10 -16 11 2 0 14
-7 21 -20 22 -11 1 -20 -3 -20 -8z"/>
<path d="M9401 204 c0 -11 3 -14 6 -6 3 7 2 16 -1 19 -3 4 -6 -2 -5 -13z"/>
<path d="M2475 60 c-3 -6 1 -7 9 -4 18 7 21 14 7 14 -6 0 -13 -4 -16 -10z"/>
<path d="M1866 51 c-4 -6 -3 -11 2 -11 5 0 12 -9 15 -20 3 -11 11 -20 19 -19
10 0 10 2 1 6 -24 9 -13 25 15 20 15 -2 21 -2 15 0 -7 3 -13 8 -13 13 0 5 -7
7 -16 3 -9 -3 -20 0 -24 7 -5 8 -9 9 -14 1z"/>
<path d="M9103 35 c-17 -19 -16 -35 1 -35 8 0 14 10 14 25 0 14 -1 25 -2 25 0
-1 -7 -7 -13 -15z"/>
<path d="M1305 10 c-3 -5 1 -10 9 -10 9 0 16 5 16 10 0 6 -4 10 -9 10 -6 0
-13 -4 -16 -10z"/>
</g>
</svg>
