<?xml version="1.0" standalone="no"?>
<!DOCTYPE svg PUBLIC "-//W3C//DTD SVG 20010904//EN"
 "http://www.w3.org/TR/2001/REC-SVG-20010904/DTD/svg10.dtd">
<svg version="1.0" xmlns="http://www.w3.org/2000/svg"
 width="715.000000pt" height="1080.000000pt" viewBox="0 0 715.000000 1080.000000"
 preserveAspectRatio="xMidYMid meet">

<g transform="translate(0.000000,1080.000000) scale(0.100000,-0.100000)"
fill="#000000" stroke="none">
<path d="M0 9309 l0 -1490 44 36 c45 37 141 87 187 98 20 5 28 15 33 39 10 55
65 159 112 215 51 59 154 137 197 147 16 4 27 13 28 24 0 9 3 12 5 6 5 -13 51
-6 60 8 4 6 0 15 -7 20 -11 7 -11 11 -1 15 7 2 17 13 22 24 8 15 7 19 -4 19
-10 0 -13 -6 -10 -17 4 -14 3 -15 -4 -5 -7 11 -11 10 -16 -4 -3 -9 -9 -14 -13
-10 -3 3 2 16 13 28 19 21 19 21 -3 16 -16 -4 -20 -2 -16 8 6 15 16 18 27 7
14 -14 35 -11 29 5 -4 8 -2 13 3 9 5 -3 10 3 10 14 0 10 -7 19 -16 20 -10 0
-11 2 -2 6 6 2 9 9 6 15 -3 5 2 8 11 6 10 -2 20 4 22 12 4 13 3 13 -6 0 -6 -8
-11 -13 -12 -10 -4 22 -5 49 -1 45 5 -4 42 33 42 43 0 2 -8 -2 -17 -9 -16 -13
-17 -12 -4 4 7 9 20 17 27 17 8 0 14 4 14 9 0 4 -17 7 -37 5 l-38 -4 30 14
c17 8 24 15 16 15 -9 1 -6 8 9 21 13 11 19 20 14 21 -5 1 2 5 16 9 24 8 24 8
3 9 -27 1 -30 23 -6 42 9 8 14 9 10 3 -4 -7 0 -17 8 -24 12 -10 13 -7 5 19 -4
17 -12 35 -15 42 -5 8 -1 9 15 4 16 -5 20 -4 15 5 -4 7 1 13 14 17 12 3 21 10
21 15 0 6 -7 7 -16 4 -14 -5 -15 -4 -4 9 7 8 17 12 24 8 6 -3 0 7 -14 23 -14
15 -18 23 -8 16 19 -15 31 -2 22 22 -4 10 5 26 23 43 35 33 51 68 28 59 -8 -3
-15 -1 -15 4 0 6 7 10 16 10 11 0 14 6 9 20 -7 22 11 53 25 45 5 -3 12 0 16 6
4 8 3 9 -4 5 -7 -4 -12 -2 -12 3 0 8 -7 7 -19 -1 -11 -7 -17 -16 -15 -20 3 -4
0 -8 -5 -8 -14 0 -14 11 -1 45 8 22 13 24 29 15 26 -13 34 -13 57 5 18 14 18
15 0 8 -13 -4 -17 -2 -14 8 4 13 66 30 118 32 23 1 54 20 45 28 -1 2 24 5 58
7 33 2 68 7 77 12 9 5 47 7 85 5 38 -2 77 1 87 6 13 7 23 7 32 0 7 -6 15 -9
17 -7 8 8 86 19 146 20 34 1 64 4 67 7 4 3 38 4 76 1 54 -3 70 -1 70 10 0 10
2 10 9 -1 7 -11 18 -12 53 -4 50 13 99 12 91 -1 -3 -5 6 -7 21 -4 14 3 26 1
26 -3 0 -5 14 -9 30 -9 17 0 30 -4 30 -10 0 -5 14 -10 30 -10 17 0 30 -4 30
-10 0 -5 11 -10 24 -10 14 0 28 -5 32 -11 3 -6 15 -9 25 -6 11 3 17 1 13 -4
-3 -5 1 -9 9 -9 8 0 20 -7 27 -15 9 -11 16 -12 25 -5 9 7 11 -7 11 -60 -1 -49
-5 -70 -13 -70 -7 0 -13 -9 -13 -20 0 -11 -6 -23 -14 -26 -8 -3 -12 -19 -11
-44 2 -27 -1 -37 -9 -33 -6 4 -5 -1 3 -10 8 -10 15 -34 17 -55 2 -20 8 -38 14
-40 5 -2 8 -7 5 -11 -2 -5 7 -23 20 -41 13 -18 22 -37 19 -42 -3 -5 0 -7 6 -6
12 3 42 -42 48 -71 2 -8 5 -60 7 -117 2 -57 6 -107 8 -111 17 -27 22 -267 11
-503 -8 -197 -8 -540 2 -700 4 -63 7 -125 8 -137 1 -13 4 -23 7 -23 3 0 6 -12
6 -27 1 -16 5 -64 9 -108 4 -44 7 -88 8 -97 0 -9 4 -14 8 -12 4 3 8 1 8 -4 0
-17 74 -88 125 -120 130 -80 327 -159 363 -144 9 4 18 16 19 27 7 58 13 94 23
130 6 22 12 49 14 60 2 11 12 47 21 80 9 33 21 84 26 113 5 30 11 59 12 65 1
7 5 15 10 18 4 3 9 19 11 35 6 43 35 165 43 177 8 13 10 23 17 95 3 30 9 59
15 66 5 6 7 16 3 22 -12 19 -147 60 -228 69 -62 8 -97 22 -88 37 5 7 2 9 -7 6
-30 -12 -17 29 14 46 18 9 23 14 13 11 -14 -4 -16 -2 -9 7 20 25 22 58 5 68
-10 5 -12 10 -5 10 9 0 10 7 3 26 -7 18 -7 23 2 18 7 -5 8 -3 3 7 -5 7 -10 36
-12 64 -1 27 -6 71 -11 97 -6 32 -5 45 2 44 6 -2 8 -1 3 2 -4 2 -12 13 -18 24
-8 15 -8 19 0 14 15 -10 14 1 -5 28 -10 16 -12 26 -5 31 6 3 11 11 11 16 0 6
-5 7 -11 3 -8 -5 -8 -1 0 14 8 16 7 21 -4 26 -8 3 -15 11 -15 18 0 9 3 8 10
-2 8 -12 10 -10 10 8 0 13 -4 20 -10 17 -16 -10 -23 24 -9 42 10 11 10 17 3
20 -6 2 -9 15 -6 28 2 14 0 25 -7 25 -7 0 -8 8 -1 26 6 14 7 23 2 21 -4 -3
-13 1 -20 9 -7 8 -9 14 -5 14 4 0 1 5 -7 10 -12 8 -13 11 -1 19 10 6 10 10 1
16 -6 4 -9 13 -6 21 3 8 2 24 -3 37 -5 12 -5 31 -1 43 5 11 4 27 -1 35 -7 11
-9 10 -9 -5 0 -15 -3 -17 -11 -9 -6 6 -8 17 -3 24 11 18 11 69 -1 69 -5 0 -3
5 5 10 11 7 12 10 2 10 -9 0 -11 7 -7 21 4 12 2 24 -4 28 -17 11 -23 54 -8 63
9 6 9 8 0 8 -7 0 -10 7 -7 15 3 8 2 20 -2 27 -5 7 -10 38 -11 68 -5 79 -10
124 -18 151 -4 16 -3 20 3 11 7 -11 10 -11 15 3 4 9 3 14 -2 11 -5 -3 -14 1
-20 8 -8 10 -9 16 -1 21 6 4 2 14 -12 25 -13 11 -17 19 -10 20 6 0 12 -5 12
-12 0 -6 2 -9 5 -6 3 3 -1 17 -9 32 -13 26 -12 66 3 64 19 -2 22 4 10 19 -12
15 -12 16 3 10 15 -5 16 -2 8 19 -8 21 -6 26 15 36 13 6 22 14 20 18 -3 4 6
19 18 32 13 14 21 30 19 36 -2 7 3 10 12 6 12 -5 19 3 27 25 7 21 17 31 27 29
9 -2 26 6 38 17 17 16 37 21 84 22 34 1 64 4 67 7 4 3 13 0 21 -7 12 -9 14 -9
9 0 -5 9 3 12 30 11 21 -1 49 2 63 6 19 6 21 5 10 -3 -14 -10 -8 -13 16 -10 4
0 11 -5 15 -13 6 -9 9 -6 10 12 1 18 3 20 6 7 4 -14 8 -15 18 -7 9 8 17 7 27
-3 12 -12 17 -12 37 4 26 21 41 24 41 9 0 -5 -5 -9 -11 -7 -6 1 -14 -4 -16
-11 -6 -15 16 -12 36 6 7 7 21 10 30 7 9 -4 22 -8 29 -9 8 -1 18 -9 23 -17 6
-10 9 -11 9 -1 0 10 3 10 14 0 7 -7 11 -19 9 -25 -3 -7 -1 -13 5 -13 6 0 13 6
15 13 3 6 4 -7 2 -31 -3 -23 1 -55 7 -70 15 -37 15 -54 0 -73 -11 -14 -10 -17
8 -22 17 -4 19 -3 10 8 -8 9 -6 14 7 19 10 4 14 4 10 0 -4 -5 3 -14 15 -22 13
-7 16 -11 7 -8 -13 3 -15 0 -12 -15 3 -10 10 -19 15 -19 5 0 6 6 2 13 -6 9 -3
8 8 -1 10 -8 14 -20 11 -29 -4 -10 -2 -14 4 -10 6 4 8 -4 6 -21 -4 -21 -2 -24
6 -12 8 12 11 8 12 -20 1 -19 3 -27 6 -18 3 11 13 16 31 14 29 -3 30 -6 18
-49 -6 -21 -11 -25 -21 -17 -9 7 -15 7 -23 -2 -8 -10 -4 -13 16 -15 16 -1 32
6 40 18 7 10 18 19 24 19 6 0 5 -7 -3 -17 -8 -10 -9 -14 -2 -10 6 4 15 2 19
-4 4 -7 3 -9 -3 -6 -6 4 -13 0 -17 -8 -3 -8 -12 -12 -21 -9 -17 7 -21 -11 -5
-21 6 -4 7 -11 4 -17 -4 -7 0 -7 12 -1 17 8 29 9 49 4 3 0 -2 -15 -10 -32 -9
-17 -14 -38 -12 -47 3 -11 5 -8 6 8 1 20 3 22 11 10 8 -12 10 -12 10 5 1 18 2
18 11 -3 5 -13 13 -20 19 -17 6 4 8 11 5 16 -4 5 -1 9 5 9 8 0 9 -7 5 -17 -4
-10 -8 -26 -10 -36 -2 -9 -6 -21 -10 -26 -3 -5 -1 -12 5 -16 5 -3 10 -1 10 4
0 6 5 11 12 11 6 0 8 -3 5 -7 -4 -3 -1 -13 6 -21 10 -13 8 -14 -11 -8 -12 4
-22 3 -22 -2 0 -5 14 -12 30 -14 23 -3 30 -1 26 9 -3 7 -1 13 4 13 9 0 15 -30
11 -52 0 -5 4 -8 10 -8 6 0 9 6 6 14 -3 8 1 17 9 20 18 7 18 3 -6 -46 -16 -34
-17 -42 -6 -54 12 -11 15 -11 20 1 3 9 -1 15 -10 15 -12 0 -12 2 -2 14 7 7 20
12 28 11 8 -1 24 9 36 23 16 19 23 22 29 12 5 -8 4 -11 -3 -6 -6 3 -14 1 -18
-5 -3 -6 0 -15 7 -20 11 -7 10 -9 -3 -9 -10 0 -17 -3 -16 -7 0 -5 -2 -16 -7
-26 -5 -13 -10 -15 -15 -7 -5 9 -9 8 -13 -2 -3 -9 3 -14 18 -14 12 0 22 5 21
11 -1 5 3 11 8 12 5 1 13 7 18 15 6 9 7 5 3 -11 -5 -17 -4 -22 5 -16 9 6 11 4
4 -6 -13 -22 -14 -40 -1 -38 27 3 57 -1 56 -8 -4 -22 3 -32 16 -27 8 4 15 1
15 -6 0 -7 11 -1 25 14 35 37 40 32 14 -14 -13 -22 -27 -40 -31 -40 -5 0 -6 5
-2 12 4 7 3 8 -4 4 -7 -4 -12 -1 -12 6 0 10 -2 11 -8 0 -5 -8 -16 -10 -28 -6
-10 4 -16 3 -11 -1 4 -5 17 -9 30 -11 12 -1 24 -3 26 -3 2 -1 -2 -8 -9 -17
-11 -12 -11 -15 1 -12 8 2 17 8 21 13 5 6 8 5 9 -2 5 -43 4 -59 -6 -65 -6 -5
-5 -12 4 -20 11 -11 13 -11 6 1 -6 10 -4 13 6 9 11 -4 15 2 14 26 0 17 -3 36
-7 42 -13 20 -2 47 20 49 12 1 22 -2 22 -7 0 -4 -4 -8 -9 -8 -5 0 -12 -7 -15
-16 -5 -12 -3 -14 6 -8 35 25 79 -5 63 -42 -4 -11 -7 -22 -7 -26 1 -5 -3 -8
-9 -8 -5 0 -8 -4 -4 -10 3 -5 13 -7 23 -4 13 5 14 4 3 -4 -7 -5 -14 -22 -16
-38 -1 -16 -6 -37 -10 -46 -4 -10 -5 -23 -3 -30 3 -7 -1 -18 -7 -25 -7 -6 -11
-38 -11 -76 1 -36 -2 -63 -5 -61 -4 2 -10 -27 -15 -64 -7 -64 -9 -72 -14 -89
-3 -10 -6 -32 -8 -56 -1 -10 -6 -16 -11 -13 -4 3 -6 -5 -4 -18 3 -13 -1 -34
-8 -47 -7 -13 -12 -28 -11 -33 2 -5 -1 -12 -5 -15 -9 -6 -34 -85 -36 -113 -1
-10 -5 -18 -9 -18 -4 0 -8 -7 -8 -15 0 -23 -61 -165 -71 -165 -5 0 -6 -7 -3
-15 4 -8 1 -22 -6 -30 -7 -8 -10 -15 -6 -15 4 0 0 -10 -9 -23 -8 -13 -12 -27
-8 -30 3 -4 2 -7 -4 -7 -9 0 -20 -24 -29 -66 -1 -7 -15 -40 -31 -75 -17 -35
-37 -80 -45 -99 -9 -19 -44 -98 -78 -175 -84 -190 -83 -189 -86 -201 -4 -23
-98 -211 -128 -259 -18 -27 -41 -67 -51 -87 l-20 -38 25 -24 c14 -13 61 -42
105 -64 70 -35 91 -40 170 -45 97 -6 243 -33 261 -48 21 -17 21 -63 2 -84 -18
-19 -20 -19 -146 13 -70 17 -170 39 -222 48 -52 9 -117 25 -145 36 -27 11 -77
24 -110 29 -33 5 -82 20 -110 34 -27 13 -72 26 -100 30 -64 8 -155 36 -149 47
6 9 -76 48 -171 82 -33 11 -73 31 -90 42 -16 12 -48 27 -70 35 -22 7 -57 24
-77 36 -21 13 -42 23 -48 23 -5 0 -10 4 -10 8 0 4 -17 9 -37 10 -20 2 -42 7
-48 11 -9 8 -160 21 -232 21 -17 0 -38 7 -47 16 -9 9 -25 14 -36 11 -11 -3
-20 -1 -20 4 0 5 -9 9 -20 9 -23 0 -25 -17 -8 -55 15 -32 6 -41 -24 -21 -12 8
-42 18 -65 22 -24 4 -43 10 -43 15 0 5 -4 9 -10 9 -5 0 -10 -6 -10 -13 0 -9
-28 -13 -107 -14 -102 -1 -142 -5 -161 -17 -14 -9 -85 -9 -132 -1 -25 5 -56 9
-70 9 -14 1 -28 5 -31 10 -9 12 -31 -3 -23 -16 5 -8 -1 -9 -17 -4 -27 9 -56
13 -149 21 -108 10 -120 11 -126 18 -4 3 -16 1 -28 -5 -11 -6 -22 -11 -23 -10
-10 6 -65 -13 -80 -27 -16 -15 -80 -38 -125 -45 -10 -1 -31 -14 -46 -29 -15
-15 -33 -27 -39 -27 -6 0 -16 -7 -23 -15 -6 -8 -15 -14 -18 -12 -4 1 -19 -7
-34 -17 -16 -10 -35 -15 -44 -12 -9 4 -24 0 -33 -7 -20 -18 -69 -27 -74 -14
-4 12 -47 -9 -47 -23 0 -6 -6 -10 -14 -10 -8 0 -17 -6 -20 -12 -3 -7 -3 -3 0
9 4 18 2 22 -10 17 -12 -5 -15 -2 -10 10 7 17 1 19 -59 16 -20 -1 -72 10 -115
23 -42 14 -102 28 -134 32 -31 3 -72 14 -92 25 l-36 18 0 -629 c0 -510 2 -627
13 -623 29 11 248 -137 432 -291 194 -163 293 -237 415 -309 152 -90 319 -199
319 -209 1 -4 -8 -3 -20 4 -12 6 -25 7 -29 2 -13 -14 -20 -62 -10 -68 5 -3 7
-11 5 -18 -10 -29 -13 -197 -3 -197 7 0 7 -4 1 -12 -11 -15 -11 -127 0 -145 6
-9 2 -13 -10 -13 -10 0 -14 -4 -8 -8 14 -10 17 -32 5 -32 -5 0 -10 -9 -10 -21
0 -11 5 -17 10 -14 5 3 10 -1 10 -9 0 -9 -7 -16 -16 -16 -9 0 -12 -5 -8 -12
12 -19 11 -118 -1 -118 -5 0 -2 -5 8 -11 10 -6 14 -15 10 -22 -4 -7 -8 -32 -9
-57 -1 -25 -5 -60 -9 -77 -5 -22 -4 -33 3 -33 6 0 9 -7 6 -15 -4 -8 -11 -12
-16 -9 -6 4 -5 -4 2 -16 7 -12 8 -20 3 -17 -10 6 -11 -89 -1 -99 4 -3 3 -17
-3 -31 -5 -13 -6 -22 -1 -20 4 3 7 -26 6 -64 0 -38 2 -69 5 -69 3 0 6 -16 6
-35 0 -19 -3 -35 -6 -35 -6 0 -4 -24 7 -74 5 -19 3 -27 -3 -23 -13 8 -14 -41
-2 -65 6 -11 5 -18 -4 -21 -9 -3 -9 -7 0 -18 7 -9 8 -20 4 -28 -5 -8 -3 -24 4
-37 9 -19 10 -32 1 -57 -33 -96 -135 -249 -280 -421 -63 -76 -101 -112 -140
-130 -20 -9 -36 -21 -36 -26 0 -5 -11 -12 -25 -16 -14 -3 -25 -10 -25 -15 0
-5 -6 -9 -13 -9 -7 0 -29 -12 -50 -26 -47 -32 -69 -28 -83 14 -6 19 -16 37
-23 41 -7 4 -11 12 -10 17 1 5 0 11 -1 14 -7 19 -6 168 1 182 7 13 6 23 -6 34
-20 21 -19 29 2 14 10 -7 7 -2 -7 11 -15 14 -25 35 -25 51 1 15 -3 24 -7 22
-7 -5 -12 11 -9 29 1 5 -3 6 -8 3 -5 -4 -12 -2 -16 3 -6 11 -142 8 -187 -4
-24 -6 -28 -4 -28 15 0 29 53 78 116 109 27 13 56 27 64 31 8 4 14 15 12 25
-2 11 1 14 9 10 9 -6 10 -1 5 19 -3 14 -3 26 1 26 9 0 8 71 -1 108 -3 12 -1
20 3 17 5 -3 11 2 14 9 4 9 -1 16 -10 18 -15 3 -15 4 -1 19 11 10 13 20 7 32
-6 10 -5 18 1 22 6 4 8 11 5 16 -4 5 -2 9 4 9 5 0 8 9 6 20 -2 11 2 20 8 20 8
0 8 3 2 8 -13 9 -18 105 -6 98 5 -4 7 3 4 14 -3 11 -10 17 -16 13 -6 -3 -7 -1
-3 5 4 6 13 9 21 6 8 -4 12 -11 8 -17 -3 -6 -1 -7 5 -3 19 12 14 23 -13 30
-14 4 -25 13 -25 22 0 8 5 12 11 8 6 -3 3 5 -6 20 -9 14 -22 23 -29 19 -6 -3
-7 -2 -3 3 5 5 16 9 24 9 9 0 18 6 21 14 3 10 -1 12 -15 9 -17 -4 -19 -1 -15
21 4 19 7 21 11 9 8 -20 25 -3 28 29 2 16 -2 21 -12 17 -15 -6 -13 11 4 41 9
17 10 35 0 29 -13 -8 -11 8 15 135 3 14 11 28 17 32 8 5 6 9 -7 12 -17 4 -16
5 3 6 12 0 24 10 28 21 3 11 11 20 16 20 5 0 7 10 5 23 -2 12 1 31 7 42 6 11
10 37 10 58 0 20 2 37 6 37 3 0 6 29 5 65 -1 36 2 67 5 70 9 5 6 288 -3 345
-9 52 -17 60 -70 60 -63 0 -168 21 -209 42 -47 24 -109 78 -159 141 l-38 49 0
-2376 0 -2376 3575 0 3575 0 0 5400 0 5400 -3575 0 -3575 0 0 -1491z m3500
167 c0 -2 -7 -7 -16 -10 -8 -3 -12 -2 -9 4 6 10 25 14 25 6z m7 -111 c-9 -9
-14 -10 -19 -1 -13 19 -9 24 11 19 16 -4 17 -8 8 -18z m23 -44 c-5 -11 -15
-23 -22 -27 -7 -5 -8 -2 -3 7 21 37 44 55 25 20z m103 -141 c-6 -24 -34 -23
-40 0 -4 13 -3 13 6 0 10 -13 13 -13 22 3 13 23 18 22 12 -3z m111 -206 c3 -8
2 -12 -4 -9 -6 3 -10 10 -10 16 0 14 7 11 14 -7z m57 -127 c-8 -8 -11 -7 -11
4 0 20 13 34 18 19 3 -7 -1 -17 -7 -23z m1947 -34 c2 -8 -5 -13 -15 -13 -11 0
-20 7 -20 15 0 18 28 16 35 -2z m-1778 -87 c0 -3 -4 -8 -10 -11 -5 -3 -10 -1
-10 4 0 6 5 11 10 11 6 0 10 -2 10 -4z m60 -10 c0 -2 -7 -6 -15 -10 -8 -3 -15
-1 -15 4 0 6 7 10 15 10 8 0 15 -2 15 -4z m144 -91 c3 3 2 0 -2 -5 -11 -13
-44 -2 -36 12 4 5 11 5 18 -1 7 -6 16 -9 20 -6z m2006 -830 c14 -17 14 -235 0
-235 -4 0 -6 -10 -5 -22 1 -13 -2 -29 -8 -35 -5 -7 -7 -13 -3 -13 4 0 0 -13
-9 -30 -8 -16 -14 -32 -13 -34 2 -2 -7 -15 -20 -28 -12 -14 -19 -27 -16 -31 4
-4 -1 -9 -10 -13 -9 -3 -16 -12 -16 -20 0 -8 -3 -13 -7 -13 -19 3 -36 -2 -30
-8 4 -3 -12 -28 -36 -54 -58 -65 -67 -77 -67 -88 0 -5 -3 -11 -7 -13 -5 -1
-28 -43 -52 -93 -70 -143 -73 -149 -97 -172 -55 -51 -82 13 -44 103 13 30 17
51 11 57 -13 13 0 44 58 141 64 107 151 284 151 307 0 10 4 20 9 23 5 3 9 17
9 31 0 14 14 65 32 113 40 105 74 144 126 140 19 -1 39 -7 44 -13z m682 -1712
c22 -25 27 -45 16 -65 -19 -37 -68 -7 -68 41 0 44 24 55 52 24z m-2969 -222
c48 -16 99 -36 114 -45 51 -28 298 -143 323 -151 34 -10 111 -50 152 -77 125
-85 181 -145 203 -217 6 -21 5 -23 -11 -16 -18 7 -69 14 -214 31 -30 3 -58 10
-61 16 -3 5 -39 11 -79 13 -40 3 -76 8 -79 13 -6 9 -65 21 -126 26 -41 4 -75
16 -75 27 0 5 -7 9 -15 9 -18 0 -18 8 0 40 20 35 18 47 -4 22 -22 -26 -43 -28
-74 -7 -12 8 -31 14 -42 14 -11 -1 -40 7 -65 16 -25 9 -55 19 -68 21 -47 9
-97 43 -97 67 0 18 -5 21 -29 19 -16 -2 -40 -1 -54 3 -20 5 -23 10 -17 32 6
24 4 25 -26 19 l-31 -6 7 38 c4 20 12 40 18 44 7 4 8 8 3 8 -23 0 31 41 73 54
98 32 148 29 274 -13z m862 -180 c-25 -39 -49 -71 -52 -71 -3 0 3 12 13 28 10
15 31 48 47 75 17 26 32 45 35 43 2 -3 -17 -37 -43 -75z m-21 -123 c-45 -74
-77 -114 -54 -68 17 32 89 140 95 140 2 0 -16 -32 -41 -72z m-60 -7 c-15 -22
-31 -41 -35 -41 -5 0 6 21 22 46 17 25 33 43 35 41 3 -2 -8 -23 -22 -46z
m-737 -17 c-3 -3 -12 -4 -19 -1 -8 3 -5 6 6 6 11 1 17 -2 13 -5z m2472 -70
c25 -32 27 -90 4 -116 -9 -10 -30 -18 -49 -18 -98 0 -139 87 -65 137 46 31 84
30 110 -3z m-1670 -28 c-22 -20 -22 -20 -6 0 9 11 17 27 18 35 0 11 2 11 6 0
3 -7 -5 -23 -18 -35z m-525 -25 c3 -4 -6 -6 -19 -3 -14 2 -25 6 -25 8 0 8 39
4 44 -5z m500 -25 c-3 -9 -10 -16 -15 -16 -6 0 -5 9 1 21 13 24 24 20 14 -5z
m1418 -63 c-10 -21 -25 -51 -33 -68 -9 -16 -26 -59 -39 -95 -13 -36 -37 -80
-53 -99 -15 -18 -34 -45 -40 -60 -6 -14 -20 -32 -29 -39 -10 -7 -18 -20 -18
-28 0 -8 -4 -14 -9 -14 -5 0 -14 -13 -19 -28 -11 -32 -86 -82 -122 -82 -19 0
-21 4 -15 28 3 15 13 35 22 44 8 9 38 58 67 108 72 128 211 312 260 343 23 15
42 27 43 27 1 0 -6 -17 -15 -37z m-1362 -138 c34 -18 62 -65 51 -84 -7 -10
-13 -10 -29 -2 -14 8 -36 8 -73 1 -29 -6 -55 -8 -58 -5 -3 4 9 17 27 31 25 20
31 30 26 50 -7 29 12 32 56 9z m-215 -115 c157 -13 902 -136 1035 -170 19 -5
47 -12 62 -15 38 -7 58 -31 58 -68 0 -50 -24 -77 -69 -77 -21 0 -51 7 -67 15
-16 8 -95 28 -174 45 -93 19 -155 38 -174 52 -25 18 -33 19 -64 10 -26 -8 -39
-8 -49 0 -16 13 -17 58 -1 58 56 0 -211 57 -518 110 -99 17 -191 33 -206 36
-42 8 -33 25 10 19 20 -3 91 -9 157 -15z m-1295 -29 c0 -5 9 -7 20 -4 11 3 27
2 37 -1 15 -6 13 -10 -12 -34 -38 -35 -80 -40 -95 -12 -9 18 -8 25 6 41 18 20
44 26 44 10z m-470 -30 c0 -5 -7 -14 -15 -21 -16 -14 -18 -10 -9 14 6 17 24
22 24 7z m1327 -137 c-27 -23 -57 -32 -57 -16 0 4 10 14 23 22 54 36 78 32 34
-6z m-1689 -39 c-3 -3 -9 2 -12 12 -6 14 -5 15 5 6 7 -7 10 -15 7 -18z m4255
-27 c25 -30 22 -81 -9 -117 -29 -35 -61 -40 -99 -15 -48 31 -27 147 28 157 33
6 60 -2 80 -25z m-4269 -22 c-3 -8 -12 -12 -20 -9 -17 6 -9 23 11 23 8 0 12
-6 9 -14z m-34 -76 c0 -17 -2 -19 -14 -8 -10 9 -11 15 -2 20 16 11 16 10 16
-12z m3599 -51 c31 -18 69 -42 84 -55 56 -47 213 -109 415 -163 55 -15 54 -35
-3 -61 l-45 -20 -127 41 c-158 51 -247 92 -338 155 -73 51 -103 89 -92 117 10
25 44 21 106 -14z m-3624 -9 c3 -5 1 -10 -4 -10 -6 0 -11 5 -11 10 0 6 2 10 4
10 3 0 8 -4 11 -10z m717 -54 c3 2 8 -2 11 -10 3 -8 -1 -17 -9 -20 -8 -3 -14
-2 -14 2 0 4 -18 7 -40 5 -22 -1 -40 1 -40 5 0 12 64 29 76 20 6 -4 13 -5 16
-2z m-742 -23 c-1 -24 -2 -26 -11 -10 -5 9 -7 22 -4 27 10 17 15 11 15 -17z
m-50 -135 c0 -16 -3 -19 -11 -11 -6 6 -8 16 -5 22 11 17 16 13 16 -11z m3564
-40 c8 -13 6 -22 -8 -37 -26 -29 -141 -83 -168 -79 -61 8 7 133 76 140 47 5
88 -5 100 -24z m-3593 -39 c-9 -22 -10 -22 -10 -3 -1 11 2 24 6 27 12 12 14 0
4 -24z m-21 -65 c0 -8 -4 -12 -10 -9 -5 3 -10 10 -10 16 0 5 5 9 10 9 6 0 10
-7 10 -16z m-33 -86 c-3 -8 -6 -5 -6 6 -1 11 2 17 5 13 3 -3 4 -12 1 -19z
m-634 -95 c-7 -2 -21 -2 -30 0 -10 3 -4 5 12 5 17 0 24 -2 18 -5z m57 -78 c10
-12 10 -15 -4 -15 -9 0 -16 7 -16 15 0 8 2 15 4 15 2 0 9 -7 16 -15z m-72 -72
c-10 -2 -26 -2 -35 0 -10 3 -2 5 17 5 19 0 27 -2 18 -5z m55 -10 c-7 -2 -19
-2 -25 0 -7 3 -2 5 12 5 14 0 19 -2 13 -5z m497 -7 c0 -3 -4 -8 -10 -11 -5 -3
-10 -1 -10 4 0 6 5 11 10 11 6 0 10 -2 10 -4z m-383 -12 c-3 -3 -12 -4 -19 -1
-8 3 -5 6 6 6 11 1 17 -2 13 -5z m-224 -41 c-7 -2 -21 -2 -30 0 -10 3 -4 5 12
5 17 0 24 -2 18 -5z m534 -115 c-3 -8 -6 -5 -6 6 -1 11 2 17 5 13 3 -3 4 -12
1 -19z m-600 -34 c-3 -3 -12 -4 -19 -1 -8 3 -5 6 6 6 11 1 17 -2 13 -5z
m-1063 -59 c-4 -8 -8 -15 -10 -15 -2 0 -4 7 -4 15 0 8 4 15 10 15 5 0 7 -7 4
-15z m1126 -37 c10 -6 2 -7 -25 -4 -22 3 -53 6 -68 6 -16 0 -26 4 -22 10 7 11
92 2 115 -12z m190 -28 c0 -5 -4 -10 -9 -10 -6 0 -13 5 -16 10 -3 6 1 10 9 10
9 0 16 -4 16 -10z m-39 -135 c28 -15 29 -17 15 -43 -26 -48 -60 -79 -94 -84
-18 -3 -37 0 -42 7 -12 14 7 71 33 99 9 11 17 23 17 28 0 13 39 9 71 -7z
m-431 -863 c0 -4 -4 -13 -9 -21 -8 -12 -12 -12 -25 -2 -15 12 -15 15 1 26 17
13 33 11 33 -3z"/>
<path d="M4184 5491 c7 -11 70 -41 87 -41 6 0 -9 11 -35 25 -51 27 -60 30 -52
16z"/>
<path d="M5162 4904 c10 -10 38 -18 70 -20 l53 -4 -35 13 c-19 8 -51 17 -70
21 -32 6 -34 5 -18 -10z"/>
<path d="M5308 4873 c7 -3 16 -2 19 1 4 3 -2 6 -13 5 -11 0 -14 -3 -6 -6z"/>
<path d="M5438 4843 c6 -2 18 -2 25 0 6 3 1 5 -13 5 -14 0 -19 -2 -12 -5z"/>
<path d="M3371 9470 c-9 -5 -4 -7 13 -7 29 0 32 2 13 10 -8 3 -20 2 -26 -3z"/>
<path d="M3530 9179 c0 -5 5 -7 10 -4 6 3 10 8 10 11 0 2 -4 4 -10 4 -5 0 -10
-5 -10 -11z"/>
<path d="M3610 9099 c0 -22 13 -25 29 -5 9 11 7 15 -9 19 -15 4 -20 0 -20 -14z"/>
<path d="M867 9005 c-4 -8 -2 -17 3 -20 6 -4 10 3 10 14 0 25 -6 27 -13 6z"/>
<path d="M3655 8950 c-16 -7 -17 -9 -3 -9 9 -1 20 4 23 9 7 11 7 11 -20 0z"/>
<path d="M3715 8800 c-3 -5 -1 -10 4 -10 6 0 11 5 11 10 0 6 -2 10 -4 10 -3 0
-8 -4 -11 -10z"/>
<path d="M3753 8787 c-3 -6 -1 -7 5 -3 6 3 15 -2 21 -11 10 -17 10 -17 11 2 0
17 2 18 11 5 9 -13 10 -13 6 0 -4 17 -44 22 -54 7z"/>
<path d="M3870 8730 c0 -5 5 -10 11 -10 5 0 7 5 4 10 -3 6 -8 10 -11 10 -2 0
-4 -4 -4 -10z"/>
<path d="M3866 8653 c-6 -14 -5 -15 5 -6 7 7 10 15 7 18 -3 3 -9 -2 -12 -12z"/>
<path d="M3905 8660 c-7 -11 20 -60 31 -60 4 0 2 6 -5 13 -6 8 -9 23 -6 35 4
23 -9 30 -20 12z"/>
<path d="M3945 8641 c-4 -7 -2 -18 4 -24 6 -6 11 -7 11 -1 0 5 5 2 10 -6 5 -8
10 -10 10 -4 0 5 -6 18 -13 29 -11 13 -16 15 -22 6z"/>
<path d="M3880 8619 c0 -5 5 -7 10 -4 6 3 10 8 10 11 0 2 -4 4 -10 4 -5 0 -10
-5 -10 -11z"/>
<path d="M3921 8576 c-7 -8 -8 -17 -3 -20 6 -3 13 1 16 10 9 23 2 28 -13 10z"/>
<path d="M3952 8544 c10 -10 20 -16 22 -13 3 3 -5 11 -17 18 -21 13 -21 12 -5
-5z"/>
<path d="M3978 8553 c7 -3 16 -2 19 1 4 3 -2 6 -13 5 -11 0 -14 -3 -6 -6z"/>
<path d="M4115 8551 c-22 -9 -29 -58 -8 -58 8 0 11 7 7 19 -3 12 0 18 10 18 9
0 16 7 16 15 0 8 -1 15 -2 14 -2 0 -12 -4 -23 -8z"/>
<path d="M3960 8498 c0 -4 4 -8 9 -8 6 0 12 4 15 8 3 5 -1 9 -9 9 -8 0 -15 -4
-15 -9z"/>
<path d="M4010 8489 c0 -5 5 -7 10 -4 6 3 10 8 10 11 0 2 -4 4 -10 4 -5 0 -10
-5 -10 -11z"/>
<path d="M4015 8460 c3 -5 8 -10 11 -10 2 0 4 5 4 10 0 6 -5 10 -11 10 -5 0
-7 -4 -4 -10z"/>
<path d="M4077 8419 c4 -13 8 -18 11 -10 2 7 -1 18 -6 23 -8 8 -9 4 -5 -13z"/>
<path d="M1670 7452 c-36 -13 -83 -27 -105 -30 -36 -7 -40 -11 -51 -50 -34
-115 -124 -230 -234 -297 -56 -33 -174 -75 -214 -75 -30 0 -46 -18 -46 -53 l0
-29 73 8 c71 9 203 10 509 5 87 -1 163 1 168 4 6 4 9 19 5 33 -13 62 -14 74
-5 96 6 16 4 32 -6 51 -12 23 -12 30 -2 37 10 6 10 10 -2 18 -8 5 -10 10 -3
10 14 0 16 97 2 105 -5 4 -9 11 -9 16 0 6 5 7 12 3 8 -5 8 -3 2 7 -5 8 -9 44
-9 81 -1 37 -5 72 -10 76 -6 5 -39 -2 -75 -16z"/>
<path d="M3249 7434 c-7 -9 -14 -21 -16 -28 -12 -57 -23 -89 -34 -102 -6 -8
-12 -28 -11 -44 0 -16 -6 -34 -14 -40 -7 -7 -11 -16 -8 -22 3 -5 1 -14 -4 -21
-10 -12 -32 -84 -37 -122 -5 -36 -73 -289 -89 -335 -9 -25 -19 -54 -21 -65 -2
-11 -7 -32 -11 -47 -6 -25 -2 -29 52 -53 32 -14 65 -24 73 -23 17 4 37 77 77
293 14 77 34 183 44 235 25 126 40 222 46 294 4 49 1 62 -15 77 -17 16 -21 17
-32 3z"/>
<path d="M305 7060 c-6 -10 54 -30 68 -23 4 2 7 11 7 19 0 16 -65 20 -75 4z"/>
</g>
</svg>
